<?xml version="1.0" encoding="utf-8"?>
<svg xmlns="http://www.w3.org/2000/svg" x="0px" y="0px"
     width="512px" height="512px" viewBox="0 0 612 792"
class="svg">
  <style>
    path {
      fill: black;
    }
    @media (prefers-color-scheme: dark) {
      path { fill: white; }
    }
  </style>
<g>
	<path fill-rule="evenodd" clip-rule="evenodd" d="M126.881,433.763c-0.22,3.997-0.474,7.097-0.546,10.2
		c-0.382,16.322-0.799,32.645-0.949,48.97c-0.016,1.716,1.192,4.287,2.596,5.041c12.42,6.672,21.877,16.502,29.099,28.246
		c16.274,26.466,30.736,53.858,38.049,84.371c1.301,5.427,1.856,11.179,1.732,16.759c-0.126,5.65-4.776,8.396-9.388,5.252
		c-4.653-3.172-9.156-7.425-11.985-12.229c-5.731-9.731-10.575-20.025-15.259-30.326c-6.963-15.313-13.18-30.969-20.284-46.213
		c-4.105-8.81-9.329-17.099-14.049-25.622c-0.537,0.173-1.074,0.345-1.611,0.518c-0.284,0.984-0.763,1.958-0.823,2.957
		c-1.784,29.709-12.032,56.865-25.114,83.149c-3.709,7.452-7.684,14.774-11.594,22.126c-2.223,4.179-5.423,7.007-10.478,5.563
		c-4.916-1.404-6.9-5.426-6.38-10.087c0.791-7.086,1.757-14.242,3.642-21.095c2.603-9.461,5.738-18.822,9.337-27.953
		c10.209-25.897,14.89-52.82,15.902-80.505c0.767-20.979,1.513-41.958,2.463-62.929c0.164-3.612-0.78-5.329-4.433-6.326
		c-8.833-2.409-17.622-5.053-26.259-8.085c-9.092-3.191-13.134-8.397-12.399-14.801c0.75-6.537,6.214-11.389,15.679-12.037
		c7.737-0.529,15.583,0.446,23.376,0.856c2.117,0.111,4.215,0.593,6.94,0.995c0.974-7.091,2.002-13.785,2.788-20.508
		c0.966-8.271,1.556-16.591,2.662-24.842c0.486-3.622-0.589-4.944-4.141-5.684c-21.906-4.561-42.164-12.896-58.5-28.607
		C17.592,282.681,8.14,248.318,16.335,208.633c3.917-18.967,10.761-36.471,24.064-50.809c4-4.311,8.896-8.2,14.113-10.838
		c4.068-2.057,9.636-3.382,13.881-2.346c6.987,1.705,13.13,0.318,19.801-0.897c15.476-2.819,31.135-3.338,46.739-0.57
		c22.165,3.932,39.417,15.499,52.181,33.912c35.644,51.42,26.144,103.295-7.581,141.443c-11.815,13.365-26.501,21.612-44.503,23.293
		c-2.423,0.226-3.87,0.582-3.97,3.686c-0.502,15.467-1.126,30.935-2.103,46.378c-0.251,3.971,1.137,5.248,4.564,6.739
		c32.678,14.218,65.32,28.528,97.775,43.246c7.222,3.274,13.616,8.346,20.492,12.419c6.007,3.557,12.263,6.701,18.205,10.357
		c3.917,2.41,8.056,4.886,11.061,8.254c5.185,5.81,5.294,14.309,1.252,20.48c-4.056,6.192-11.748,9.282-19.338,6.609
		c-7.03-2.475-14.338-5.136-20.339-9.387c-27.197-19.263-57.99-31.256-88.069-44.721
		C145.627,441.883,136.629,438.026,126.881,433.763z M82.411,163.475c-8.798-7.048-16.497-6.577-24.379,1.76
		c-1.596,1.688-3.197,3.452-4.394,5.425c-15.661,25.814-20.769,53.681-11.557,82.437c13.805,43.09,52.597,57.03,85.492,57.436
		c10.131,0.125,18.684-4.281,25.834-11.416c8.976-8.955,15.254-19.561,20.408-31.121c16.717-37.503-7.391-95.032-54.264-102.523
		c-10.829-1.73-21.824-2.45-32.757-3.474C85.57,161.882,84.247,162.824,82.411,163.475z"/>
	<path fill-rule="evenodd" clip-rule="evenodd" d="M524.334,572.519c-2.947,5.624-5.183,9.832-7.365,14.066
		c-8.317,16.133-16.589,32.29-24.957,48.396c-1.144,2.2-2.568,4.309-4.159,6.212c-2.534,3.034-5.795,4.571-9.771,3.123
		c-4.196-1.527-5.696-4.952-5.539-9.115c0.087-2.31,0.605-4.616,1.065-6.896c4.135-20.475,13.64-38.903,22.043-57.752
		c1.211-2.715,2.425-5.429,4.315-9.659c-28.202,1.297-55.325,2.544-82.842,3.81c0.28,1.846,0.484,3.194,0.931,6.142
		c-7.691-2.046-14.593-3.881-22.122-5.884c1.022,2.203,1.941,4.227,2.896,6.233c6.705,14.083,12.016,28.589,12.759,44.359
		c0.178,3.767,0.18,7.727-0.786,11.315c-1.254,4.657-5.516,6.413-9.408,3.664c-3.237-2.287-6.511-5.604-7.922-9.189
		c-3.952-10.039-6.955-20.451-10.312-30.723c-0.551-1.686-0.995-3.406-1.729-5.943c-0.827,1.39-1.287,2-1.582,2.682
		c-6.347,14.66-12.66,29.335-19.019,43.99c-1.618,3.73-3.861,6.805-8.606,5.947c-3.907-0.706-6.914-4.633-5.95-9.639
		c1.626-8.447,3.522-16.981,6.607-24.977c5.747-14.9,12.447-29.431,18.696-44.139c0.76-1.787,1.186-3.717,1.852-5.856
		c-5.285-1.285-10.131-2.33-14.9-3.649c-12.331-3.412-23.993-8.437-33.646-16.938c-4.661-4.105-8.978-9.05-12.059-14.414
		c-7.37-12.832-5.778-25.952,5.118-35.948c7.78-7.137,17.019-12.713,25.754-18.771c10.455-7.251,22.181-11.182,34.753-12.901
		c1.407-0.193,3.006-1.843,3.8-3.227c10.099-17.623,19.981-35.369,30.133-52.961c2.182-3.78,4.463-8.576,10.03-7.561
		c5.923,1.081,6.161,6.535,6.557,11.074c1.6,18.395,2.764,36.827,4.457,55.212c0.311,3.372,2.023,6.752,3.658,9.826
		c1.627,3.062,3.969,5.743,5.999,8.59c10.05,14.094,10.422,28.682,2.252,43.719c-0.438,0.807-0.72,1.698-1.348,3.207
		c1.426-0.378,2.21-0.478,2.901-0.786c19.925-8.899,41.161-11.966,62.611-14.021c3.134-0.301,6.388-0.532,9.466-0.041
		c15.077,2.408,22.163,7.648,25.523,23.139c6.77,0.641,13.625,0.813,20.286,2.043c10.281,1.898,20.497,4.265,30.607,6.938
		c5.488,1.451,6.073,4.297,1.972,8.446c-6.979,7.059-15.869,9.243-25.296,7.551c-8.48-1.522-16.727-4.326-25.099-6.48
		c-1.762-0.454-3.629-0.797-5.43-0.729c-1.781,0.067-4.924,0.472-5.049,1.164c-0.368,2.05-0.151,4.691,0.924,6.431
		c4.285,6.932,9.174,13.489,13.486,20.406c7.836,12.57,11.274,26.634,12.814,41.159c0.371,3.498-0.243,7.399-1.496,10.702
		c-2.121,5.591-6.941,6.499-10.885,2.056c-2.584-2.913-4.396-6.607-6.136-10.156C538.379,601.879,531.736,587.91,524.334,572.519z
		 M340.337,516.37c9.572,5.328,18.544,7.587,27.76,8.891c21.836,3.089,38.789-5.799,51.631-22.678
		c8.504-11.178,1.587-29.457-11.969-33.489c-12.063-3.588-24.408-2.656-36.72-1.84c-0.489,0.032-1.239,0.07-1.409,0.367
		c-2.004,3.519-5.159,1.636-7.934,1.951c-4.196,0.478-9.004,0.57-12.323,2.722c-6.93,4.492-13.629,9.665-19.373,15.579
		c-8.156,8.398-5.956,18.406,3.753,23.973c1.955-2.485,3.401-5.438,5.754-7.126c11.561-8.297,34.271-2.96,41.134,9.594
		c0.923,1.688,1.377,4.567,0.533,6.009c-0.764,1.306-3.77,2.231-5.485,1.875c-5.183-1.076-10.331-2.562-15.283-4.44
		C354.289,515.437,348.189,514.875,340.337,516.37z M398.891,549.086c0.101,0.637,0.201,1.274,0.303,1.912
		c0.95-0.14,1.908-0.242,2.852-0.425c14.861-2.878,29.675-6.03,44.591-8.589c23.933-4.105,47.937-7.8,71.896-11.751
		c1.278-0.211,2.429-1.196,3.638-1.82c-1.119-1.034-2.104-2.696-3.387-2.971c-2.716-0.584-5.608-0.744-8.393-0.552
		c-20.767,1.435-41.48,3.083-61.253,10.553c-4.931,1.862-10.405,2.229-15.529,3.647C422.002,542.302,410.459,545.74,398.891,549.086
		z M417.74,411.226c-0.281-0.088-0.563-0.175-0.844-0.263c-7.793,12.115-15.586,24.231-23.578,36.656
		c8.313,0.436,16.105,0.843,24.422,1.278C417.74,436.188,417.74,423.707,417.74,411.226z"/>
	<path fill-rule="evenodd" clip-rule="evenodd" d="M103.862,225.366c-6.715,0.907-12.873-0.449-18.408-4.256
		c-5.762-3.961-11.337-8.192-17.089-12.17c-2.31-1.598-4.84-2.891-7.326-4.218c-4.89-2.609-5.487-7.966-0.603-10.519
		c3.008-1.572,7.301-2.61,10.413-1.736c16.325,4.582,27.17,15.447,33.225,31.186C104.225,224.046,103.969,224.595,103.862,225.366z"
		/>
	<path fill-rule="evenodd" clip-rule="evenodd" d="M110.928,222.047c0.545-2.267,0.671-3.818,1.279-5.15
		c4.845-10.623,11.531-19.826,21.273-26.498c1.593-1.092,3.702-2.177,5.488-2.052c2.238,0.155,5.338,0.995,6.293,2.598
		c0.853,1.43-0.023,4.856-1.316,6.438c-6.845,8.364-14.046,16.439-21.17,24.574c-1.09,1.245-2.275,2.524-3.674,3.353
		c-1.699,1.006-4.513,2.674-5.345,2.052C112.172,226.175,111.652,223.566,110.928,222.047z"/>
	<path fill-rule="evenodd" clip-rule="evenodd" d="M136.819,288.322c-4.254-0.753-6.676-1.055-9.035-1.622
		c-8.734-2.099-16.735-0.121-24.538,3.878c-1.638,0.84-5.026,1.295-5.629,0.474c-1.14-1.553-1.65-4.436-1.015-6.283
		c4.348-12.66,27.393-16.979,35.884-6.676C134.458,280.486,135.055,284.012,136.819,288.322z"/>
	<path fill-rule="evenodd" clip-rule="evenodd" d="M136.651,255.344c-4.906-4.861-7.102-18.423-3.418-23.309
		c1.283-1.701,4.4-2.985,6.563-2.829c3.138,0.226,3.228,3.153,2.62,5.847C140.874,241.876,140.974,249.186,136.651,255.344z"/>
	<path fill-rule="evenodd" clip-rule="evenodd" d="M93.73,252.886c-7.233,0.605-15.376-3.633-17.856-9.599
		c-0.785-1.889-1.163-4.283-0.736-6.228c0.313-1.42,2.076-3.108,3.517-3.508c1.159-0.322,3.39,0.714,4.136,1.825
		C86.549,240.978,89.977,246.801,93.73,252.886z"/>
	<path fill-rule="evenodd" clip-rule="evenodd" d="M360.201,498.01c-6.221-3.939-9.448-14.679-6.014-20.396
		c0.936-1.558,3.508-3.329,4.977-3.063c1.786,0.324,3.944,2.42,4.631,4.242C365.648,483.722,363.604,493.277,360.201,498.01z"/>
</g>
</svg>
