<?xml version="1.0" encoding="windows-1252"?>
<!-- Uploaded to: SVG Repo, www.svgrepo.com, Generator: SVG Repo Mixer Tools -->
<svg version="1.1" id="Layer_1" xmlns="http://www.w3.org/2000/svg" xmlns:xlink="http://www.w3.org/1999/xlink" viewBox="0 0 512 512" xml:space="preserve">
<rect x="399.153" y="439.91" style="fill:#27B5F7;" width="102.348" height="56.329"/>
<rect x="10.5" y="217.275" style="fill:#FFFFFF;" width="144.495" height="188.063"/>
<path style="fill:#FEBBA0;" d="M213.864,313.829v20.353c0,6.8-4.088,12.932-10.365,15.549l-67.241,28.017  c-14.206,5.92-23.459,22.008-23.459,37.397v81.092h286.352v-81.092c0-15.389-9.254-31.479-23.459-37.397l-67.241-28.017  c-6.277-2.615-10.365-8.749-10.365-15.549v-20.353H213.864z"/>
<path style="fill:#2F456A;" d="M375.692,377.748l-67.241-28.017c-1.989-0.829-3.757-2.013-5.246-3.458l-47.133,25.098  l-47.232-25.197c-1.51,1.489-3.308,2.71-5.341,3.558l-67.241,28.017c-14.206,5.92-23.459,22.008-23.459,37.397v81.092h286.352  v-81.092C399.151,399.755,389.896,383.665,375.692,377.748z"/>
<g>
	<polygon style="fill:#5078B5;" points="303.426,346.174 256.158,496.237 322.635,435.116 307.593,419.604 346.417,365.397  "/>
	<polygon style="fill:#5078B5;" points="208.891,346.174 256.158,496.237 189.681,435.116 204.722,419.604 165.899,365.397  "/>
</g>
<path style="fill:#FEBBA0;" d="M350.006,193.873V163.43c0-51.83-42.017-93.848-93.848-93.848c-51.831,0-93.848,42.017-93.848,93.848  h-0.368v30.443c-12.925,0-23.403,10.478-23.403,23.403c0,12.925,10.478,23.403,23.403,23.403v17.472  c1.126,14.735,8.311,27.853,19.192,35.038l56.575,32.343c11.36,7.503,25.173,7.503,36.533,0l56.405-32.343  c10.879-7.185,18.233-20.303,19.36-35.038V240.68c12.925,0,23.403-10.478,23.403-23.403  C373.409,204.352,362.931,193.873,350.006,193.873z"/>
<g>
	<polygon style="fill:#FFFFFF;" points="208.891,346.174 226.71,402.745 256.026,371.371  "/>
	<polygon style="fill:#FFFFFF;" points="303.426,346.174 285.606,402.745 256.291,371.371  "/>
	<path style="fill:#FFFFFF;" d="M303.204,346.272l-47.046,149.963L208.84,346.173l47.232,25.197L303.204,346.272z"/>
</g>
<path style="fill:#FBC45E;" d="M166.486,59.132c18.211-24.811,37.468-30.107,51.767-22.665  c11.336-10.359,28.323-20.705,56.692-20.705c64.078,0,99.141,52.56,99.141,99.278c0,49.854-24.112,75.692-24.112,75.692  s-1.634-46.507-49.649-46.507c-32.098,0-51.44-13.625-64.938-30.344c-5.736,15.98-33.514,22.689-44.427,33.003  c-21.598,20.407-28.644,36.381-28.644,36.381S127.871,111.732,166.486,59.132z"/>
<g>
	<circle style="fill:#FF634C;" cx="402.36" cy="334.992" r="18.806"/>
	<circle style="fill:#FF634C;" cx="468.182" cy="334.992" r="18.806"/>
</g>
<path d="M10.585,506.685h-0.137C4.678,506.685,0,502.007,0,496.237c0-5.77,4.678-10.448,10.448-10.448h0.137  c5.77,0,10.448,4.678,10.448,10.448C21.033,502.007,16.355,506.685,10.585,506.685z"/>
<path d="M501.501,506.684h-0.137c-5.77,0-10.448-4.678-10.448-10.448c0-5.77,4.678-10.448,10.448-10.448h0.137  c5.77,0,10.448,4.678,10.448,10.448C511.949,502.006,507.271,506.684,501.501,506.684z"/>
<path d="M294.077,230.185c-6.44,0-11.679-5.239-11.679-11.678c0-6.44,5.239-11.679,11.679-11.679c6.44,0,11.679,5.239,11.679,11.679  C305.756,224.947,300.517,230.185,294.077,230.185z"/>
<path d="M217.872,230.185c-6.44,0-11.679-5.239-11.679-11.678c0-6.44,5.239-11.679,11.679-11.679s11.679,5.239,11.679,11.679  C229.549,224.947,224.311,230.185,217.872,230.185z"/>
<path d="M256.018,287.16c-11.39,0-20.658-9.267-20.658-20.658c0-5.77,4.678-10.448,10.448-10.448h20.419  c5.77,0,10.448,4.678,10.448,10.448C276.675,277.893,267.409,287.16,256.018,287.16z"/>
<path d="M339.609,124.645c-5.77,0-10.448-4.678-10.448-10.448c0-16.492-9.105-30.702-27.064-42.237  c-4.855-3.119-6.262-9.582-3.145-14.437c3.12-4.854,9.582-6.262,14.437-3.145c23.988,15.408,36.668,36.092,36.668,59.819  C350.057,119.968,345.379,124.645,339.609,124.645z"/>
<path d="M274.436,59.242c-0.076,0-0.153,0-0.229-0.002c-5.731-0.046-10.361-4.706-10.361-10.448c0-5.642,4.472-10.239,10.063-10.441  c0.893-0.039,1.845,0.041,2.705,0.225c5.642,1.209,9.236,6.763,8.027,12.405C283.59,55.885,279.257,59.242,274.436,59.242z"/>
<path d="M115.136,338.444H50.359c-5.77,0-10.448-4.678-10.448-10.448c0-5.77,4.678-10.448,10.448-10.448h64.777  c5.77,0,10.448,4.678,10.448,10.448C125.584,333.766,120.907,338.444,115.136,338.444z"/>
<path d="M115.136,267.339H50.359c-5.77,0-10.448-4.678-10.448-10.448s4.678-10.448,10.448-10.448h64.777  c5.77,0,10.448,4.678,10.448,10.448S120.907,267.339,115.136,267.339z"/>
<path d="M115.136,302.891H50.359c-5.77,0-10.448-4.678-10.448-10.448c0-5.77,4.678-10.448,10.448-10.448h64.777  c5.77,0,10.448,4.678,10.448,10.448C125.584,298.214,120.907,302.891,115.136,302.891z"/>
<path d="M115.136,373.995h-0.158c-5.77,0-10.448-4.678-10.448-10.448s4.678-10.448,10.448-10.448h0.158  c5.77,0,10.448,4.678,10.448,10.448S120.907,373.995,115.136,373.995z"/>
<path d="M80.848,373.996H50.359c-5.77,0-10.448-4.678-10.448-10.448c0-5.77,4.678-10.448,10.448-10.448h30.489  c5.77,0,10.448,4.678,10.448,10.448C91.296,369.318,86.619,373.996,80.848,373.996z"/>
<path d="M508.94,361.195l-14.122-14.122c1.679-3.686,2.622-7.775,2.622-12.082c0-16.131-13.124-29.254-29.254-29.254  s-29.254,13.124-29.254,29.254c0,16.131,13.124,29.254,29.254,29.254c4.186,0,8.166-0.89,11.771-2.481l11.148,11.148v56.549h-44.926  v-60.877c0-2.771-1.101-5.429-3.06-7.388l-14.122-14.122c1.679-3.686,2.622-7.775,2.622-12.082  c0-16.131-13.124-29.254-29.254-29.254s-29.254,13.124-29.254,29.254s13.124,29.254,29.254,29.254c4.186,0,8.166-0.89,11.771-2.481  l11.148,11.148v56.549h-15.683v-14.315c0-20.365-12.291-39.709-29.888-47.042l-67.241-28.016c-2.39-0.996-3.936-3.313-3.936-5.904  v-16.27l27.31-15.659c0.19-0.109,0.377-0.225,0.561-0.346c13.674-9.03,22.654-25.091,24.02-42.961  c0.021-0.264,0.03-0.531,0.03-0.796v-8.674c13.568-4.413,23.402-17.181,23.402-32.202c0-13.11-7.493-24.5-18.421-30.121  c7.958-12.835,19.099-37.064,19.099-72.115c0-53.936-40.991-109.726-109.589-109.726c-23.159,0-42.415,6.26-58.647,19.105  c-19.238-5.849-40.529,4.406-58.234,28.529c-37.563,51.166-13.077,116.574-6.57,131.714v0.412  c-10.275,3.342-18.399,11.479-21.741,21.754H10.499c-5.77,0-10.448,4.678-10.448,10.448V405.34c0,5.77,4.678,10.448,10.448,10.448  h91.852v70.001H44.437c-5.77,0-10.448,4.678-10.448,10.448c0,5.77,4.678,10.448,10.448,10.448h423.177  c5.77,0,10.448-4.678,10.448-10.448c0-5.77-4.678-10.448-10.448-10.448h-58.015v-35.433h81.505v16.658  c0,5.77,4.678,10.448,10.448,10.448c5.77,0,10.448-4.678,10.448-10.448v-98.43C512,365.812,510.899,363.154,508.94,361.195z   M394.005,334.99c0-4.609,3.75-8.358,8.358-8.358c4.609,0,8.358,3.75,8.358,8.358c0,4.609-3.75,8.358-8.358,8.358  C397.755,343.348,394.005,339.599,394.005,334.99z M174.908,65.315L174.908,65.315c13.179-17.957,27.579-25.276,38.523-19.58  c3.89,2.025,8.632,1.404,11.871-1.555c8.442-7.714,22.773-17.969,49.644-17.969c55.518,0,88.694,45.165,88.694,88.83  c0,21.604-4.943,38.305-10.068,49.814c-0.398-0.803-0.819-1.611-1.265-2.42c-7.208-13.074-22.077-28.657-51.978-28.657  c-24.183,0-42.235-8.407-56.81-26.459c-2.003-2.48-5.002-3.885-8.128-3.885c-0.578,0-1.16,0.048-1.741,0.146  c-3.724,0.629-6.818,3.218-8.094,6.772c-2.211,6.158-12.8,11.672-22.142,16.538c-7.45,3.88-14.488,7.545-19.625,12.401  c-8.048,7.604-14.234,14.69-18.887,20.712C158.116,136.918,151.734,96.881,174.908,65.315z M161.943,204.322  c5.77,0,10.448-4.678,10.448-10.448v-7.418c1.884-3.605,9.201-16.344,25.748-31.979c3.021-2.854,9.073-6.007,14.925-9.054  c8.045-4.19,16.767-8.731,23.356-14.998c17.107,16.292,38.138,24.249,63.907,24.249c15.785,0,26.699,5.654,33.362,17.284  c5.336,9.313,5.842,19.099,5.845,19.142c0.003,0.074,0.02,0.144,0.024,0.217v2.558c0,5.77,4.678,10.448,10.448,10.448  c7.143,0,12.954,5.812,12.954,12.954s-5.812,12.954-12.954,12.954c-5.77,0-10.448,4.678-10.448,10.448v17.05  c-0.949,11.048-6.442,21.173-14.418,26.574l-56.095,32.165c-0.191,0.11-0.377,0.225-0.561,0.346c-7.831,5.173-17.184,5.174-25.018,0  c-0.187-0.123-0.377-0.241-0.573-0.352L186.636,284.3c-7.984-5.406-13.284-15.292-14.245-26.569v-17.052  c0-5.77-4.678-10.448-10.448-10.448c-7.143,0-12.954-5.812-12.954-12.954S154.8,204.322,161.943,204.322z M256.158,359.595  l-32.978-17.63c0.736-2.483,1.132-5.098,1.132-7.783v-4.274l7.937,4.538c7.334,4.763,15.53,7.144,23.725,7.144  c8.199,0,16.397-2.383,23.731-7.148l7.931-4.548v4.288c0,2.747,0.409,5.42,1.177,7.955L256.158,359.595z M285.766,367.462  l-4.748,15.071l-7.81-8.358L285.766,367.462z M239.107,374.173l-7.81,8.358l-4.748-15.071L239.107,374.173z M106.45,394.892H20.947  V227.725h108.807c3.343,10.274,11.467,18.411,21.741,21.754v8.674c0,0.265,0.01,0.532,0.03,0.796  c1.372,17.943,10.288,34.003,23.852,42.961c0.187,0.123,0.378,0.24,0.573,0.352l27.467,15.702v16.219  c0,2.59-1.545,4.907-3.936,5.904l-34.036,14.181v-38.084c0-5.77-4.678-10.448-10.448-10.448s-10.448,4.678-10.448,10.448v46.791  l-12.31,5.129C120.709,372.907,111.46,382.867,106.45,394.892z M123.246,485.789v-70.644c0-11.776,7.321-23.707,17.029-27.753  l21.969-9.153l28.903,40.356l-8.967,9.249c-1.962,2.024-3.024,4.755-2.943,7.573c0.081,2.818,1.298,5.484,3.373,7.392l46.748,42.982  H123.246V485.789z M204.65,434.687l7.573-7.809c3.517-3.626,3.935-9.251,0.994-13.357l-31.177-43.53l20.685-8.618l31.721,100.709  L204.65,434.687z M256.158,461.46l-17.651-56.038l17.651-18.891l17.651,18.891L256.158,461.46z M309.549,361.507l20.643,8.601  L299.1,413.52c-2.941,4.107-2.523,9.73,0.994,13.357l7.573,7.809l-29.795,27.394L309.549,361.507z M329.707,442.807  c2.075-1.908,3.291-4.573,3.373-7.392c0.08-2.818-0.98-5.549-2.943-7.573l-8.967-9.249l28.82-40.238l21.686,9.035  c9.708,4.045,17.029,15.976,17.029,27.753v24.763v45.881H282.958L329.707,442.807z M459.827,334.99c0-4.609,3.75-8.358,8.358-8.358  c4.609,0,8.358,3.75,8.358,8.358c0,4.609-3.75,8.358-8.358,8.358C463.577,343.348,459.827,339.599,459.827,334.99z"/>
</svg>