<?xml version="1.0" encoding="UTF-8"?>
<svg width="640" height="480" xmlns="http://www.w3.org/2000/svg" xmlns:svg="http://www.w3.org/2000/svg">
 <g>
  <title>Layer 1</title>
  <path d="m25.75,320.5l2.25,2.5l0.75,2.5l0.75,2.5l0.75,1l0.75,1l1,0.5q1,0.5 2,2.25q1,1.75 1.25,2l0.25,0.25l2,6q2,6 2.5,7l0.5,1l-1,8q-1,8 -2,13.5q-1,5.5 -3,17.5q-2,12 -2.75,13.25l-0.75,1.25l3.5,2q3.5,2 14,5.5q10.5,3.5 14,3.75l3.5,0.25l0,0.5l0,0.5l0.5,0l0.5,0l0.25,1q0.25,1 0,2.5l-0.25,1.5l10,2.75q10,2.75 17.5,7.5q7.5,4.75 9.75,8.25q2.25,3.5 8.25,19q6,15.5 8.5,22.5q2.5,7 4.5,12.5q2,5.5 3.75,13.5l1.75,8l0.5,0l0.5,0l1.25,8.5q1.25,8.5 3.5,19l2.25,10.5l10,0l10,0l92.5,-2.75q92.5,-2.75 96.25,-5.5l3.75,-2.75l5,-10.5l5,-10.5l-2.25,-10.75q-2.25,-10.75 -3.75,-13.5l-1.5,-2.75l-0.5,0l-0.5,0l-0.75,-3.5q-0.75,-3.5 -2.75,-21.5q-2,-18 -3,-39.5q-1,-21.5 0,-25.5q1,-4 0.75,-5.75l-0.25,-1.75l2,-0.5q2,-0.5 5,-5.5q3,-5 4.5,-6.25l1.5,-1.25l-0.75,-4q-0.75,-4 -1.5,-5.25l-0.75,-1.25l1.75,-1.25q1.75,-1.25 3,-3.25q1.25,-2 2.75,-2l1.5,0l0,-0.5l0,-0.5l5.5,-0.75q5.5,-0.75 6.5,-1.25q1,-0.5 6.5,-1.5q5.5,-1 6.5,-1q1,0 8,0.5q7,0.5 10.5,0q3.5,-0.5 12,-0.75l8.5,-0.25l5,2.25q5,2.25 10.5,5.75q5.5,3.5 10.5,8.5q5,5 7.5,6.25l2.5,1.25l0.5,1.5l0.5,1.5l1.5,5q1.5,5 2.75,5.5l1.25,0.5l0,1.5q0,1.5 2.25,16.5l2.25,15l-2.75,13q-2.75,13 -3.25,21q-0.5,8 0,13q0.5,5 1.25,9.75q0.75,4.75 2.25,5q1.5,0.25 1.5,2.25l0,2l-1.25,1l-1.25,1l-4.5,11q-4.5,11 -6.25,16.5q-1.75,5.5 -2.75,5.5l-1,0l-1,10.5l-1,10.5l-14.5,0l-14.5,0l0,0.5l0,0.5l-213.5,-0.25l-213.5,-0.25l-0.5,-123.75l-0.5,-123.75l7.5,2.25q7.5,2.25 11.75,6.5q4.25,4.25 6.5,6.75zm-25.25,231.5l0,0l0,0z" id="path3" stroke-width="2px" stroke="#000000" fill-rule="evenodd" fill="#000362"/>
  <path d="m212.75,308l-0.75,1l-0.5,-1q-0.5,-1 -3.5,-1q-3,0 -3.25,-1.5q-0.25,-1.5 -0.5,-1.75q-0.25,-0.25 -4.75,-3.25q-4.5,-3 -7,-3.75q-2.5,-0.75 -2.5,-2.25q0,-1.5 -1.5,-1.75q-1.5,-0.25 -3,-1.25l-1.5,-1l-12,-1q-12,-1 -12.25,-1.25l-0.25,-0.25l-0.75,-2.5q-0.75,-2.5 -1.25,-2.5l-0.5,0l-0.25,-4q-0.25,-4 1,-11l1.25,-7l1.25,-2q1.25,-2 2.75,-4.5q1.5,-2.5 3.5,-4.5l2,-2l0.25,-2.5l0.25,-2.5l0.5,0.25q0.5,0.25 6.5,-0.5l6,-0.75l0,-0.5l0,-0.5l7,-1.25q7,-1.25 8.5,-0.75l1.5,0.5l5.25,6.25q5.25,6.25 8.75,12.75q3.5,6.5 4.75,11.75q1.25,5.25 1.75,6l0.5,0.75l-0.75,0.5q-0.75,0.5 -1.25,11q-0.5,10.5 -2.5,14.5q-2,4 -2.75,5z" id="path5" stroke-width="2px" stroke="#000000" fill-rule="evenodd" fill="#000362"/>
  <path d="m222,327.25l2,-0.25l0,0.5q0,0.5 1,0.5q1,0 1.75,3.5q0.75,3.5 0.5,7q-0.25,3.5 0.75,3.5q1,0 2,1.75l1,1.75l-0.75,0.75q-0.75,0.75 -1.75,6.25l-1,5.5l-2.75,1.75q-2.75,1.75 -5.25,3.25q-2.5,1.5 -7.5,2.25l-5,0.75l0,-2.5l0,-2.5l0.25,-2q0.25,-2 3.25,-6.5q3,-4.5 4.25,-14l1.25,-9.5l2,-0.75l2,-0.75l2,-0.25z" id="path7" stroke-width="2px" stroke="#000000" fill-rule="evenodd" fill="#000362"/>
  <path d="m315.75,311.5l2.25,0.5l0,0.5l0,0.5l-5,0.25q-5,0.25 -6.5,0.75q-1.5,0.5 -3.5,2q-2,1.5 -4.5,2.75q-2.5,1.25 -2.75,2.25q-0.25,1 -1.5,1.75q-1.25,0.75 -3.25,2l-2,1.25l-1.75,-3q-1.75,-3 -3,-6.5l-1.25,-3.5l-1,0q-1,0 -1,-1l0,-1l0.5,0l0.5,0l-1.75,-11.5q-1.75,-11.5 -2.25,-12.5l-0.5,-1l-4.25,-2l-4.25,-2l-2.75,-8q-2.75,-8 -5.25,-15.5l-2.5,-7.5l4.5,-6q4.5,-6 5.75,-6.75q1.25,-0.75 5.75,-2l4.5,-1.25l0.25,5q0.25,5 -0.5,7.5l-0.75,2.5l7.75,4l7.75,4l1,11l1,11l6.25,6.75q6.25,6.75 7.25,7l1,0.25l0.5,3.75q0.5,3.75 0.25,5.5q-0.25,1.75 1.25,4.75l1.5,3l2.25,0.5z" id="path9" stroke-width="2px" stroke="#000000" fill-rule="evenodd" fill="#000362"/>
  <path d="m570,398.75l11,-1.75l-0.25,6q-0.25,6 0.75,21.5q1,15.5 -0.5,20.5q-1.5,5 -3.75,9.25l-2.25,4.25l-25.5,6q-25.5,6 -40,10.75l-14.5,4.75l-0.5,0l-0.5,0l1.5,-4.5l1.5,-4.5l0.75,-1q0.75,-1 1.75,-2.5q1,-1.5 4.5,-11.5q3.5,-10 7,-14l3.5,-4l1,-5q1,-5 2,-10q1,-5 1.5,-8.5q0.5,-3.5 0.25,-4l-0.25,-0.5l0.5,-2l0.5,-2l1.5,0q1.5,0 1.5,-1.5l0,-1.5l3.25,-0.5q3.25,-0.5 4.25,-2l1,-1.5l1.75,1.25q1.75,1.25 3.75,1.5l2,0.25l0,0.5q0,0.5 10,-0.75q10,-1.25 21,-3z" id="path11" stroke-width="2px" stroke="#000000" fill-rule="evenodd" fill="#000362"/>
  <path d="m683.75,312.5l0.25,1.5l-0.75,2.5q-0.75,2.5 -0.25,3q0.5,0.5 2,8.5q1.5,8 -0.75,21.5q-2.25,13.5 -2.75,13.5l-0.5,0l-2,-0.25q-2,-0.25 -2.75,-1.5q-0.75,-1.25 -6,-6.5q-5.25,-5.25 -6.5,-6.5l-1.25,-1.25l-5.25,-1q-5.25,-1 -7.75,-2.25q-2.5,-1.25 -4.25,-2l-1.75,-0.75l-4.75,0.75q-4.75,0.75 -9.25,-0.25q-4.5,-1 -5.25,-0.75q-0.75,0.25 -13.5,1.75l-12.75,1.5l-0.75,-2.5q-0.75,-2.5 -1,-2.75q-0.25,-0.25 -1.5,-8q-1.25,-7.75 -0.75,-12.25q0.5,-4.5 3,-11.5q2.5,-7 3.25,-10.5l0.75,-3.5l0.5,0q0.5,0 0.5,-1l0,-1l0.5,0l0.5,0l0.25,0.5q0.25,0.5 1,-0.75q0.75,-1.25 6.25,-3.25q5.5,-2 9.75,-3.25q4.25,-1.25 4.5,-1.75l0.25,-0.5l5.5,-0.75q5.5,-0.75 11.5,-1.5l6,-0.75l0,1q0,1 5.5,1.75l5.5,0.75l2.75,2.25q2.75,2.25 5,4.5q2.25,2.25 5,6q2.75,3.75 5.5,7.5q2.75,3.75 4.5,6l1.75,2.25l0.25,1.5z" id="path13" stroke-width="2px" stroke="#000000" fill-rule="evenodd" fill="#000362"/>
  <path d="m677.5,424.25l3.5,-1.25l-0.5,0.75l-0.5,0.75l2,1.25q2,1.25 3,3.5q1,2.25 3.25,4q2.25,1.75 4.25,3.75l2,2l1.5,-0.5q1.5,-0.5 1.75,0.5q0.25,1 1.75,1q1.5,0 2,1.25q0.5,1.25 2.5,1.5q2,0.25 2,2.25q0,2 2,1.25l2,-0.75l1.25,2.25q1.25,2.25 1.75,4.25l0.5,2l2.75,1.5q2.75,1.5 3.5,1q0.75,-0.5 1,1.5q0.25,2 1.25,2q1,0 1.5,2.5q0.5,2.5 4,3l3.5,0.5l0.5,1l0.5,1l-0.25,2.5l-0.25,2.5l0.25,1l0.25,1l-1,2.5l-1,2.5l-1.5,-0.25q-1.5,-0.25 -2,-0.25q-0.5,0 -15.5,-1.5q-15,-1.5 -22,-0.5q-7,1 -16,2.25l-9,1.25l-2,-1.25q-2,-1.25 -6,-3q-4,-1.75 -4,-2.75q0,-1 -1.5,-1l-1.5,0l0,-1.5q0,-1.5 1,-1.5q1,0 0.5,-3q-0.5,-3 -1.5,-3.25l-1,-0.25l1,-0.5q1,-0.5 2.75,-3.75q1.75,-3.25 4.5,-7q2.75,-3.75 4.75,-5q2,-1.25 2.25,-3.75q0.25,-2.5 0.5,-2.75q0.25,-0.25 2,-2.5q1.75,-2.25 5,-6.5q3.25,-4.25 3.25,-5.25q0,-1 3.5,-2.25z" id="path15" stroke-width="2px" stroke="#000000" fill-rule="evenodd" fill="#000362"/>
  <path d="m52.5,314.75l0.5,-0.75l6.5,1.25q6.5,1.25 14,3.75q7.5,2.5 14.75,8.25q7.25,5.75 10.75,10.25q3.5,4.5 5.5,9.5q2,5 0.5,16.5q-1.5,11.5 -2.5,12.5l-1,1l-3.75,1.75q-3.75,1.75 -5.25,2.25q-1.5,0.5 -8.75,5.75q-7.25,5.25 -9.75,9.25q-2.5,4 -4.75,10.75l-2.25,6.75l-0.5,0.25l-0.5,0.25l-3.5,-0.25q-3.5,-0.25 -14,-3.75q-10.5,-3.5 -14,-5.5l-3.5,-2l0.75,-1.25q0.75,-1.25 2.75,-13.25q2,-12 3,-17.5q1,-5.5 2,-13.5l1,-8l-0.5,-1q-0.5,-1 -2.5,-7l-2,-6l-0.25,-0.25q-0.25,-0.25 -1.25,-2q-1,-1.75 -2,-2.25l-1,-0.5l5.5,-3.25q5.5,-3.25 6.75,-5q1.25,-1.75 5,-4q3.75,-2.25 4.25,-3z" id="path17" stroke-width="2px" stroke="#000000" fill-rule="evenodd" fill="#f9f7f7"/>
  <path d="m323,311l5,-1l2.25,0l2.25,0l2.75,1.75q2.75,1.75 4.5,2.5l1.75,0.75l0.25,-0.25q0.25,-0.25 4.75,-0.75q4.5,-0.5 6.75,0.25q2.25,0.75 3,2q0.75,1.25 2,1l1.25,-0.25l0.25,1.5q0.25,1.5 2.25,2l2,0.5l-1,1.25l-1,1.25l1,0.25q1,0.25 1,1.75q0,1.5 1.25,2q1.25,0.5 1.25,2.5q0,2 0.5,7.5q0.5,5.5 0,11q-0.5,5.5 -0.25,7q0.25,1.5 -0.75,1.5q-1,0 -0.5,3.5l0.5,3.5l0,0.5l0,0.5l-1.5,0q-1.5,0 -2.75,2q-1.25,2 -3,3.25l-1.75,1.25l0.75,1.25q0.75,1.25 1.5,5.25l0.75,4l-1.5,1.25q-1.5,1.25 -4.5,6.25q-3,5 -5,5.5l-2,0.5l0.25,1.75q0.25,1.75 -0.75,5.75q-1,4 0,25.5q1,21.5 3,39.5q2,18 2.75,21.5l0.75,3.5l-8,2.75l-8,2.75l-6,-2q-6,-2 -7,-2.5q-1,-0.5 -4,-1q-3,-0.5 -6.25,-3.25l-3.25,-2.75l1,-8.5q1,-8.5 1.25,-8.75l0.25,-0.25l-1,-1q-1,-1 -2.25,-3.75q-1.25,-2.75 -2,-4.5q-0.75,-1.75 -2.75,-3.5l-2,-1.75l-0.75,-5.5q-0.75,-5.5 -3.75,-16q-3,-10.5 -4.25,-15l-1.25,-4.5l1,0q1,0 3.75,-5l2.75,-5l0,-5q0,-5 -0.75,-7.5l-0.75,-2.5l-1.25,-1q-1.25,-1 -2.5,-2q-1.25,-1 -3,-5.5q-1.75,-4.5 -3,-12q-1.25,-7.5 -2.25,-9q-1,-1.5 -2.5,-1.5l-1.5,0l1.25,-8.5q1.25,-8.5 1.75,-9q0.5,-0.5 1.75,-7.5l1.25,-7l2,-1.25q2,-1.25 3.25,-2q1.25,-0.75 1.5,-1.75q0.25,-1 2.75,-2.25q2.5,-1.25 4.5,-2.75q2,-1.5 3.5,-2q1.5,-0.5 6.5,-0.75l5,-0.25l0,-0.5l0,-0.5l5,-1z" id="path19" stroke-width="2px" stroke="#000000" fill-rule="evenodd" fill="#fcf9f9"/>
  <path d="m539,344l1,0l2,5.5q2,5.5 3,5.5l1,0l0.75,6q0.75,6 1,8.5q0.25,2.5 1.5,3q1.25,0.5 1.5,5.5q0.25,5 1.25,5l1,0l-1,3.25q-1,3.25 -2,3q-1,-0.25 -1.25,3.25l-0.25,3.5l-2.25,1.25q-2.25,1.25 -4.75,3l-2.5,1.75l-2,-0.25q-2,-0.25 -3.75,-1.5l-1.75,-1.25l-1,1.5q-1,1.5 -4.25,2l-3.25,0.5l0,1.5q0,1.5 -1.5,1.5l-1.5,0l-0.5,2l-0.5,2l-0.5,0q-0.5,0 -1,1.25l-0.5,1.25l-4.5,3q-4.5,3 -7.25,6.75q-2.75,3.75 -4.25,9.75q-1.5,6 -3.25,17.5l-1.75,11.5l-0.5,0l-0.5,0l-0.75,-1.5q-0.75,-1.5 -6.25,-13.5q-5.5,-12 -6.75,-14.5l-1.25,-2.5l-1.5,0.5l-1.5,0.5l-2.25,-15q-2.25,-15 -2.25,-16.5l0,-1.5l-1.25,-0.5q-1.25,-0.5 -2.75,-5.5l-1.5,-5l2.75,-10q2.75,-10 4,-11.75q1.25,-1.75 4.5,-7.5q3.25,-5.75 5.25,-12.75q2,-7 3,-8.5q1,-1.5 1.75,-3.25q0.75,-1.75 1.75,-4l1,-2.25l1.75,-1q1.75,-1 6,-4l4.25,-3l0.5,-0.25l0.5,-0.25l3.5,-0.25q3.5,-0.25 3.5,1.25q0,1.5 6,3.25q6,1.75 8.5,2.5q2.5,0.75 3,2q0.5,1.25 2.5,1.5l2,0.25l1.25,4q1.25,4 2.5,8q1.25,4 2.25,4z" id="path21" stroke-width="2px" stroke="#000000" fill-rule="evenodd" fill="#f9f9f9"/>
  <path d="m156.5,283l0.5,0l0.5,0q0.5,0 1.25,2.5l0.75,2.5l0.25,0.25q0.25,0.25 12.25,1.25l12,1l1.5,1q1.5,1 3,1.25q1.5,0.25 1.5,1.75q0,1.5 2.5,2.25q2.5,0.75 7,3.75q4.5,3 4.75,3.25q0.25,0.25 0.5,1.75q0.25,1.5 3.25,1.5q3,0 3.5,1l0.5,1l-0.25,1l-0.25,1l0.5,4q0.5,4 1.5,6.5q1,2.5 1.25,5l0.25,2.5l0.5,0l0.5,0l-1.25,9.5q-1.25,9.5 -4.25,14q-3,4.5 -3.25,6.5l-0.25,2l-0.5,0l-0.5,0l-2.75,8.5q-2.75,8.5 -3,8.75l-0.25,0.25l-1.25,0.75q-1.25,0.75 -1.5,-0.25q-0.25,-1 -4.25,0.25l-4,1.25l-0.25,0.25q-0.25,0.25 -0.5,2.25q-0.25,2 -1.25,2q-1,0 0.25,6q1.25,6 1.5,7.75q0.25,1.75 0,3q-0.25,1.25 0.5,2.75l0.75,1.5l2.75,1q2.75,1 4,1.75q1.25,0.75 2.25,1l1,0.25l1.25,1.5l1.25,1.5l-1,7q-1,7 -4.5,33q-3.5,26 -4.5,27q-1,1 -2.25,5.5q-1.25,4.5 -1.5,6.5q-0.25,2 0.5,4.25l0.75,2.25l-1.75,3.25q-1.75,3.25 -1,4.75l0.75,1.5l-3.25,2q-3.25,2 -5,3.25q-1.75,1.25 -5.75,2l-4,0.75l-8.5,-0.25q-8.5,-0.25 -16.5,-2q-8,-1.75 -8,-2.75q0,-1 -2.5,-1l-2.5,0l0,2l0,2l-0.5,0l-0.5,0l-1.75,-8q-1.75,-8 -3.75,-13.5q-2,-5.5 -4.5,-12.5q-2.5,-7 -8.5,-22.5q-6,-15.5 -8.25,-19q-2.25,-3.5 -9.75,-8.25q-7.5,-4.75 -17.5,-7.5l-10,-2.75l0.25,-1.5q0.25,-1.5 0,-2.5l-0.25,-1l2.5,-1.75q2.5,-1.75 21.5,-7.75q19,-6 23.25,-7.75q4.25,-1.75 7.25,-3.75l3,-2l-1,-4.5q-1,-4.5 -0.25,-6q0.75,-1.5 0,-18.5q-0.75,-17 0.25,-20q1,-3 0.5,-6.5q-0.5,-3.5 -1,-10l-0.5,-6.5l0.75,-0.75q0.75,-0.75 3.75,-7.5l3,-6.75l2.75,-1q2.75,-1 5.5,-3.5l2.75,-2.5l0.75,-1.5l0.75,-1.5l0.25,-3l0.25,-3l1,0q1,0 1,2q0,2 3,1.5q3,-0.5 3,-1.5l0,-1l1.5,-0.25l1.5,-0.25l1,-3.25l1,-3.25l0.5,0z" id="path23" stroke-width="2px" stroke="#000000" fill-rule="evenodd" fill="#291919"/>
  <path d="m161.5,515.75l8.5,0.25l0.25,1.5q0.25,1.5 -3.25,8q-3.5,6.5 -4,7.5q-0.5,1 -2.25,10l-1.75,9l-10,0l-10,0l-2.25,-10.5q-2.25,-10.5 -3.5,-19l-1.25,-8.5l0,-2l0,-2l2.5,0q2.5,0 2.5,1q0,1 8,2.75q8,1.75 16.5,2z" id="path25" stroke-width="2px" stroke="#000000" fill-rule="evenodd" fill="#000000"/>
  <path d="m292.75,413.5l0.25,0.5l1.25,4.5q1.25,4.5 4.25,15q3,10.5 3.75,16l0.75,5.5l2,1.75q2,1.75 2.75,3.5q0.75,1.75 2,4.5q1.25,2.75 2.25,3.75l1,1l-0.25,0.25q-0.25,0.25 -1.25,8.75l-1,8.5l3.25,2.75q3.25,2.75 6.25,3.25q3,0.5 4,1q1,0.5 7,2.5l6,2l8,-2.75l8,-2.75l0.5,0l0.5,0l1.5,2.75q1.5,2.75 3.75,13.5l2.25,10.75l-5,10.5l-5,10.5l-3.75,2.75q-3.75,2.75 -96.25,5.5l-92.5,2.75l1.75,-9q1.75,-9 2.25,-10q0.5,-1 4,-7.5q3.5,-6.5 3.25,-8l-0.25,-1.5l4,-0.75q4,-0.75 5.75,-2q1.75,-1.25 5,-3.25l3.25,-2l-0.75,-1.5q-0.75,-1.5 1,-4.75l1.75,-3.25l-0.75,-2.25q-0.75,-2.25 -0.5,-4.25q0.25,-2 1.5,-6.5q1.25,-4.5 2.25,-5.5q1,-1 4.5,-27q3.5,-26 4.5,-33l1,-7l-1.25,-1.5l-1.25,-1.5l1.5,0l1.5,0l1,-2q1,-2 2,-2q1,0 3.25,-7q2.25,-7 2.75,-10l0.5,-3l4.5,-2.5q4.5,-2.5 6.5,-2.5q2,0 3.75,-0.75q1.75,-0.75 4.25,-0.5l2.5,0.25l1.5,-2.25q1.5,-2.25 5.5,-3.25q4,-1 12,0q8,1 12.75,4.25q4.75,3.25 6.5,6.25q1.75,3 3.75,3l2,0l2.25,4q2.25,4 4.75,9q2.5,5 2.75,7.5l0.25,2.5l2.25,1l2.25,1l0.25,0.5z" id="path27" stroke-width="2px" stroke="#000000" fill-rule="evenodd" fill="#453711"/>
  <path d="m280,310.25l1,0.75l0,1q0,1 1,1l1,0l1.25,3.5q1.25,3.5 3,6.5l1.75,3l-1.25,7q-1.25,7 -1.75,7.5q-0.5,0.5 -1.75,9l-1.25,8.5l1.5,0q1.5,0 2.5,1.5q1,1.5 2.25,9q1.25,7.5 3,12q1.75,4.5 3,5.5q1.25,1 2.5,2l1.25,1l0.75,2.5q0.75,2.5 0.75,7.5l0,5l-2.75,5q-2.75,5 -3.75,5l-1,0l-0.25,-0.5l-0.25,-0.5l-2.25,-1l-2.25,-1l-0.25,-2.5q-0.25,-2.5 -2.75,-7.5q-2.5,-5 -4.75,-9l-2.25,-4l-2,0q-2,0 -3.75,-3q-1.75,-3 -6.5,-6.25q-4.75,-3.25 -12.75,-4.25q-8,-1 -12,0q-4,1 -5.5,3.25l-1.5,2.25l-2.5,-0.25q-2.5,-0.25 -4.25,0.5q-1.75,0.75 -3.75,0.75q-2,0 -6.5,2.5l-4.5,2.5l-0.5,3q-0.5,3 -2.75,10q-2.25,7 -3.25,7q-1,0 -2,2l-1,2l-1.5,0l-1.5,0l-1,-0.25q-1,-0.25 -2.25,-1q-1.25,-0.75 -4,-1.75l-2.75,-1l-0.75,-1.5q-0.75,-1.5 -0.5,-2.75q0.25,-1.25 0,-3q-0.25,-1.75 -1.5,-7.75q-1.25,-6 -0.25,-6q1,0 1.25,-2q0.25,-2 0.5,-2.25l0.25,-0.25l4,-1.25q4,-1.25 4.25,-0.25q0.25,1 1.5,0.25l1.25,-0.75l0.25,-0.25q0.25,-0.25 3,-8.75l2.75,-8.5l0.5,0l0.5,0l0,2.5l0,2.5l5,-0.75q5,-0.75 7.5,-2.25q2.5,-1.5 5.25,-3.25l2.75,-1.75l1,-5.5q1,-5.5 1.75,-6.25l0.75,-0.75l-1,-1.75q-1,-1.75 -2,-1.75q-1,0 -0.75,-3.5q0.25,-3.5 -0.5,-7q-0.75,-3.5 -1.75,-3.5q-1,0 -1,-0.5l0,-0.5l1.25,-2q1.25,-2 2.5,-6l1.25,-4l1,0q1,0 1.25,-1.5q0.25,-1.5 0.75,-2q0.5,-0.5 3.5,-3.5l3,-3l0.25,-0.5l0.25,-0.5l9.5,-2.25q9.5,-2.25 11.5,-2.25l2,0l2,1q2,1 8.5,5q6.5,4 7.5,4.75z" id="path29" stroke-width="2px" stroke="#000000" fill-rule="evenodd" fill="#877B59"/>
  <path d="m344,298l1,-2l9,2.75q9,2.75 13.5,3l4.5,0.25l0,0.5l0,0.5l-3.5,0.75q-3.5,0.75 -2,2.5l1.5,1.75l-0.5,0l-0.5,0l0.25,2.5q0.25,2.5 -1.5,6.5l-1.75,4l-2,-0.5q-2,-0.5 -2.25,-2l-0.25,-1.5l-1.25,0.25q-1.25,0.25 -2,-1q-0.75,-1.25 -3,-2q-2.25,-0.75 -6.75,-0.25q-4.5,0.5 -4.75,0.75l-0.25,0.25l-1.75,-0.75q-1.75,-0.75 -4.5,-2.5l-2.75,-1.75l-2.25,0l-2.25,0l0,-0.5q0,-0.5 1,-0.5q1,0 2,-1.75q1,-1.75 3,-3.25q2,-1.5 5.5,-2.75q3.5,-1.25 4.5,-3.25z" id="path31" stroke-width="2px" stroke="#000000" fill-rule="evenodd" fill="#877B59"/>
  <path d="m518.5,410l0.5,0l0.25,0.5q0.25,0.5 -0.25,4q-0.5,3.5 -1.5,8.5q-1,5 -2,10l-1,5l-3.5,4q-3.5,4 -7,14q-3.5,10 -4.5,11.5q-1,1.5 -1.75,2.5l-0.75,1l-0.25,-1l-0.25,-1l-0.75,-4l-0.75,-4l0.5,0l0.5,0l1.75,-11.5q1.75,-11.5 3.25,-17.5q1.5,-6 4.25,-9.75q2.75,-3.75 7.25,-6.75l4.5,-3l0.5,-1.25q0.5,-1.25 1,-1.25z" id="path33" stroke-width="2px" stroke="#000000" fill-rule="evenodd" fill="#877B59"/>
  <path d="m586,292.25l15,0.75l-0.75,3.5q-0.75,3.5 -3.25,10.5q-2.5,7 -3,11.5q-0.5,4.5 0.75,12.25q1.25,7.75 1.5,8q0.25,0.25 1,2.75l0.75,2.5l-0.25,0.5q-0.25,0.5 -0.75,5.5l-0.5,5l-2.5,3.5q-2.5,3.5 -5,8l-2.5,4.5l-0.5,5.5q-0.5,5.5 -1.5,12l-1,6.5l-1.25,1l-1.25,1l-11,1.75q-11,1.75 -21,3q-10,1.25 -10,0.75l0,-0.5l2.5,-1.75q2.5,-1.75 4.75,-3l2.25,-1.25l0.25,-3.5q0.25,-3.5 1.25,-3.25q1,0.25 2,-3l1,-3.25l-1,0q-1,0 -1.25,-5q-0.25,-5 -1.5,-5.5q-1.25,-0.5 -1.5,-3q-0.25,-2.5 -1,-8.5l-0.75,-6l-1,0q-1,0 -3,-5.5l-2,-5.5l0.75,-5.5q0.75,-5.5 1.75,-8.5q1,-3 1,-3.5q0,-0.5 0.5,-11q0.5,-10.5 1,-12q0.5,-1.5 1.25,-4.5l0.75,-3l4,-1.75q4,-1.75 11.5,-2.75q7.5,-1 8,-0.5q0.5,0.5 15.5,1.25z" id="path35" stroke-width="2px" stroke="#000000" fill-rule="evenodd" fill="#877B59"/>
  <path d="m585,224.75l1,5.25l1.25,7l1.25,7l0.75,-0.75q0.75,-0.75 3.5,-0.5q2.75,0.25 3.5,2.25q0.75,2 2.75,1.75q2,-0.25 5.5,0.75q3.5,1 4.5,1.25l1,0.25l1.75,5.5q1.75,5.5 3,12q1.25,6.5 4.75,7q3.5,0.5 4.25,4l0.75,3.5l0.25,0.5l0.25,0.5l-0.25,0.5q-0.25,0.5 -4.5,1.75q-4.25,1.25 -9.75,3.25q-5.5,2 -6.25,3.25l-0.75,1.25l-0.25,-0.5l-0.25,-0.5l-1,-2.5q-1,-2.5 -3.5,-4.25q-2.5,-1.75 -5.5,-3.75q-3,-2 -6.75,-4.75l-3.75,-2.75l-1.5,-18q-1.5,-18 -1.25,-26.5q0.25,-8.5 1.25,-8.75l1,-0.25l1,0q1,0 2,5.25z" id="path37" stroke-width="2px" stroke="#000000" fill-rule="evenodd" fill="#877B59"/>
  <path d="m387,299l5,-2l0,0.5l0,0.5l10,1.25q10,1.25 12.5,2.75q2.5,1.5 6.5,4.5q4,3 6,4.5l2,1.5l0.75,1.75q0.75,1.75 2.25,5.75q1.5,4 1,16.5q-0.5,12.5 -1.75,17.5l-1.25,5l-8.5,0.25q-8.5,0.25 -12,0.75q-3.5,0.5 -10.5,0q-7,-0.5 -8,-0.5q-1,0 -6.5,1q-5.5,1 -6.5,1.5q-1,0.5 -6.5,1.25l-5.5,0.75l-0.5,-3.5q-0.5,-3.5 0.5,-3.5q1,0 0.75,-1.5q-0.25,-1.5 0.25,-7q0.5,-5.5 0,-11q-0.5,-5.5 -0.5,-7.5q0,-2 -1.25,-2.5q-1.25,-0.5 -1.25,-2q0,-1.5 -1,-1.75l-1,-0.25l1,-1.25l1,-1.25l1.75,-4q1.75,-4 1.5,-6.5l-0.25,-2.5l0.5,0l0.5,0l2.75,0q2.75,0 5.5,-2.25q2.75,-2.25 4.25,-2.5q1.5,-0.25 1.5,-1.25l0,-1l5,-2z" id="path39" stroke-width="2px" stroke="#000000" fill-rule="evenodd" fill="#A38C4D"/>
  <path d="m494.25,459.5l0.75,1.5l0.75,4l0.75,4l0.25,1l0.25,1l-1,4.5l-1,4.5l-0.25,0.5l-0.25,0.5l-5.25,4.75q-5.25,4.75 -9.25,7.5l-4,2.75l0,-2q0,-2 -1.5,-2.25q-1.5,-0.25 -2.25,-5q-0.75,-4.75 -1.25,-9.75q-0.5,-5 0,-13q0.5,-8 3.25,-21l2.75,-13l1.5,-0.5l1.5,-0.5l1.25,2.5q1.25,2.5 6.75,14.5q5.5,12 6.25,13.5z" id="path41" stroke-width="2px" stroke="#000000" fill-rule="evenodd" fill="#A38C4D"/>
  <path d="m683.25,316.5l0.75,-2.5l4.75,1.5q4.75,1.5 7,3.25q2.25,1.75 3.25,2l1,0.25l0.5,0l0.5,0l1.25,4q1.25,4 2.25,6q1,2 4,8q3,6 3.25,6.5l0.25,0.5l0,0.5l0,0.5l-1,6.5q-1,6.5 -2,6.5q-1,0 -2.25,4q-1.25,4 -2.5,5.75q-1.25,1.75 -2.75,2q-1.5,0.25 -2.25,3.25l-0.75,3l1.5,3.5q1.5,3.5 3.25,4.25q1.75,0.75 4.25,1.5q2.5,0.75 2.5,1.75q0,1 1.5,1q1.5,0 1.5,1q0,1 2.25,1q2.25,0 3,1.25q0.75,1.25 3.25,1.5q2.5,0.25 2.5,1.25q0,1 1,1l1,0l-0.5,2l-0.5,2l0.75,0.5q0.75,0.5 1,2.75q0.25,2.25 2.25,2.5l2,0.25l-0.75,4q-0.75,4 2.25,10.5q3,6.5 2.5,19.5q-0.5,13 -1,15q-0.5,2 -0.75,7l-0.25,5l-0.5,0l-0.5,0l-0.5,-1l-0.5,-1l-3.5,-0.5q-3.5,-0.5 -4,-3q-0.5,-2.5 -1.5,-2.5q-1,0 -1.25,-2q-0.25,-2 -1,-1.5q-0.75,0.5 -3.5,-1l-2.75,-1.5l-0.5,-2q-0.5,-2 -1.75,-4.25l-1.25,-2.25l-2,0.75q-2,0.75 -2,-1.25q0,-2 -2,-2.25q-2,-0.25 -2.5,-1.5q-0.5,-1.25 -2,-1.25q-1.5,0 -1.75,-1q-0.25,-1 -1.75,-0.5l-1.5,0.5l-2,-2q-2,-2 -4.25,-3.75q-2.25,-1.75 -3.25,-4q-1,-2.25 -3,-3.5l-2,-1.25l0.5,-0.75l0.5,-0.75l0.25,-2q0.25,-2 0.5,-5q0.25,-3 1.25,-3.25q1,-0.25 1.75,-2q0.75,-1.75 1.25,-7.75q0.5,-6 0,-14q-0.5,-8 -2,-11.5q-1.5,-3.5 -2.25,-9l-0.75,-5.5l0.5,0q0.5,0 2.75,-13.5q2.25,-13.5 0.75,-21.5q-1.5,-8 -2,-8.5q-0.5,-0.5 0.25,-3z" id="path43" stroke-width="2px" stroke="#000000" fill-rule="evenodd" fill="#7A6D47"/>
  <path d="m679,362.75l2,0.25l0.75,5.5q0.75,5.5 2.25,9q1.5,3.5 2,11.5q0.5,8 0,14q-0.5,6 -1.25,7.75q-0.75,1.75 -1.75,2q-1,0.25 -1.25,3.25q-0.25,3 -0.25,4.5l0,1.5l-0.25,0.5l-0.25,0.5l-3.5,1.25q-3.5,1.25 -3.5,2.25q0,1 -3.25,5.25q-3.25,4.25 -5,6.5q-1.75,2.25 -2,2.5q-0.25,0.25 -0.5,2.75q-0.25,2.5 -2.25,3.75q-2,1.25 -4.75,5q-2.75,3.75 -4.5,7q-1.75,3.25 -2.75,3.75l-1,0.5l1,0.25q1,0.25 1.5,3.25q0.5,3 -0.5,3q-1,0 -1,1.5l0,1.5l1.5,0q1.5,0 1.5,1q0,1 4,2.75q4,1.75 6,3l2,1.25l0,2.5q0,2.5 -2.75,3.5q-2.75,1 -4,2.25q-1.25,1.25 -5.75,4.75q-4.5,3.5 -6.75,5.25q-2.25,1.75 -3.5,3q-1.25,1.25 -4.25,3l-3,1.75l-1.75,4q-1.75,4 -4.75,11.5q-3,7.5 -4.75,19l-1.75,11.5l-96.5,0l-96.5,0l0,-0.5l0,-0.5l14.5,0l14.5,0l1,-10.5l1,-10.5l1,0q1,0 2.75,-5.5q1.75,-5.5 6.25,-16.5l4.5,-11l1.25,-1l1.25,-1l4,-2.75q4,-2.75 9.25,-7.5l5.25,-4.75l0.25,-0.5l0.25,-0.5l14.5,-4.75q14.5,-4.75 40,-10.75l25.5,-6l2.25,-4.25q2.25,-4.25 3.75,-9.25q1.5,-5 0.5,-20.5q-1,-15.5 -0.75,-21.5l0.25,-6l1.25,-1l1.25,-1l1,-6.5q1,-6.5 1.5,-12l0.5,-5.5l2.5,-4.5q2.5,-4.5 5,-8l2.5,-3.5l0.5,-5q0.5,-5 0.75,-5.5l0.25,-0.5l12.75,-1.5q12.75,-1.5 13.5,-1.75q0.75,-0.25 5.25,0.75q4.5,1 9.25,0.25l4.75,-0.75l1.75,0.75q1.75,0.75 4.25,2q2.5,1.25 7.75,2.25l5.25,1l1.25,1.25q1.25,1.25 6.5,6.5q5.25,5.25 6,6.5q0.75,1.25 2.75,1.5z" id="path45" stroke-width="2px" stroke="#000000" fill-rule="evenodd" fill="#787059"/>
  <path d="m810.5,552.75l-31.5,0.25l-1.25,-8.5q-1.25,-8.5 -2.75,-13.5q-1.5,-5 -4.5,-10.5q-3,-5.5 -4.75,-8.25q-1.75,-2.75 -4,-5.5q-2.25,-2.75 -9.25,-9.25l-7,-6.5l-0.25,-4l-0.25,-4l0.75,-1q0.75,-1 2.75,-4q2,-3 5,-8l3,-5l2.75,0.75q2.75,0.75 5.75,-1.75l3,-2.5l5,0q5,0 7.5,-0.5q2.5,-0.5 8.5,-3l6,-2.5l1.5,1q1.5,1 9.75,-0.75q8.25,-1.75 11.25,-3.25l3,-1.5l-1.5,-6q-1.5,-6 -2.75,-12.5q-1.25,-6.5 -1.75,-8.25q-0.5,-1.75 -0.25,-3.5l0.25,-1.75l-2.5,-2.5q-2.5,-2.5 -2,-9.5l0.5,-7l-1.5,-4q-1.5,-4 -2.25,-6.5l-0.75,-2.5l0.5,0q0.5,0 2.75,-18q2.25,-18 1.5,-22l-0.75,-4l3.25,-0.5q3.25,-0.5 11,-12.75q7.75,-12.25 13.25,-14l5.5,-1.75l-0.25,119l-0.25,119l-0.25,0.25q-0.25,0.25 -31.75,0.5zm32,-0.75l0,0l0,0z" id="path48" stroke-width="2px" stroke="#000000" fill-rule="evenodd" fill="#787059"/>
  <path d="m105.5,248.75l2.5,0.25l0.5,0q0.5,0 0.5,1.5q0,1.5 1.5,1.5l1.5,0l4,1.25q4,1.25 7.5,2l3.5,0.75l0.5,0l0.5,0l0.75,2l0.75,2l2.25,1.25q2.25,1.25 3.25,1.5l1,0.25l1.25,2.5q1.25,2.5 2.75,5.5q1.5,3 2.5,10l1,7l-0.25,0.5l-0.25,0.5l-0.25,3l-0.25,3l-0.75,1.5l-0.75,1.5l-2.75,2.5q-2.75,2.5 -5.5,3.5l-2.75,1l-3,6.75q-3,6.75 -3.75,7.5l-0.75,0.75l0.5,6.5q0.5,6.5 1,10q0.5,3.5 -0.5,6.5q-1,3 -0.25,20q0.75,17 0,18.5q-0.75,1.5 0.25,6l1,4.5l-3,2q-3,2 -7.25,3.75q-4.25,1.75 -23.25,7.75q-19,6 -21.5,7.75l-2.5,1.75l-0.5,0l-0.5,0l0,-0.5l0,-0.5l0.5,-0.25q0.5,-0.25 2.75,-7q2.25,-6.75 4.75,-10.75q2.5,-4 9.75,-9.25q7.25,-5.25 8.75,-5.75q1.5,-0.5 5.25,-2.25l3.75,-1.75l1,-1q1,-1 2.5,-12.5q1.5,-11.5 -0.5,-16.5q-2,-5 -5.5,-9.5q-3.5,-4.5 -10.75,-10.25q-7.25,-5.75 -14.75,-8.25q-7.5,-2.5 -14,-3.75l-6.5,-1.25l1,-1.75q1,-1.75 5,-3.5q4,-1.75 3.75,-4.75l-0.25,-3l-0.25,-2q-0.25,-2 -1.75,-2l-1.5,0l-0.75,-4.5q-0.75,-4.5 -1,-4.75l-0.25,-0.25l0.75,-0.75q0.75,-0.75 2.5,-2.5q1.75,-1.75 2.5,-5q0.75,-3.25 2.75,-6.75q2,-3.5 3.75,-4.5q1.75,-1 1.75,-3.5l0,-2.5l2,-0.25q2,-0.25 4.5,-1.75q2.5,-1.5 7.5,-4q5,-2.5 11.5,-5l6.5,-2.5l2.5,0.25z" id="path50" stroke-width="2px" stroke="#000000" fill-rule="evenodd" fill="#909940"/>
  <path d="m806,386.5l0,0.5l0.75,2.5q0.75,2.5 2.25,6.5l1.5,4l-0.5,7q-0.5,7 2,9.5l2.5,2.5l-0.25,1.75q-0.25,1.75 0.25,3.5q0.5,1.75 1.75,8.25q1.25,6.5 2.75,12.5l1.5,6l-3,1.5q-3,1.5 -11.25,3.25q-8.25,1.75 -9.75,0.75l-1.5,-1l-6,2.5q-6,2.5 -8.5,3q-2.5,0.5 -7.5,0.5l-5,0l-3,2.5q-3,2.5 -5.75,1.75l-2.75,-0.75l-3,5q-3,5 -5,8q-2,3 -2.75,4l-0.75,1l-1,0q-1,0 -1.25,1.5q-0.25,1.5 -2,2.5l-1.75,1l-0.5,-2.5q-0.5,-2.5 -2,-2.5q-1.5,0 -1.5,-2.5q0,-2.5 -1,-2.5q-1,0 -1,-1.5l0,-1.5l-0.5,0l-0.5,0l-0.25,-1l-0.25,-1l0.25,-2.5l0.25,-2.5l0.5,0l0.5,0l0.25,-5q0.25,-5 0.75,-7q0.5,-2 1,-15q0.5,-13 -2.5,-19.5q-3,-6.5 -2.25,-10.5l0.75,-4l-2,-0.25q-2,-0.25 -2.25,-2.5q-0.25,-2.25 -1,-2.75l-0.75,-0.5l0.5,-2l0.5,-2l0.5,0q0.5,0 -0.25,-6.5q-0.75,-6.5 -1.25,-10q-0.5,-3.5 -0.25,-3.75l0.25,-0.25l-1.5,-0.5q-1.5,-0.5 -3.75,-3.25l-2.25,-2.75l-0.5,-6.5q-0.5,-6.5 -1,-7.5q-0.5,-1 -1.75,-5q-1.25,-4 -1.75,-4l-0.5,0l0,-0.5l0,-0.5l0.5,0q0.5,0 3.75,-17q3.25,-17 13.25,-43.5q10,-26.5 10,-36l0,-9.5l6.5,-5q6.5,-5 12.25,-7.75q5.75,-2.75 12.25,-0.25l6.5,2.5l-4.25,6.75q-4.25,6.75 -5.75,7.75l-1.5,1l0.25,7l0.25,7l-2.75,2q-2.75,2 -8.25,16.5q-5.5,14.5 -9,32q-3.5,17.5 -3.25,26l0.25,8.5l4.75,3.5q4.75,3.5 7.75,10.5l3,7l7.75,4.75q7.75,4.75 18,10.5q10.25,5.75 12,7.25q1.75,1.5 4.25,0.75q2.5,-0.75 4,-1.5l1.5,-0.75l0,0.5z" id="path52" stroke-width="2px" stroke="#000000" fill-rule="evenodd" fill="#909940"/>
  <path d="m59,297.5l0,-0.5l1.5,0q1.5,0 1.75,2l0.25,2l0.25,3q0.25,3 -3.75,4.75q-4,1.75 -5,3.5l-1,1.75l-0.5,0.75q-0.5,0.75 -4.25,3q-3.75,2.25 -5,4q-1.25,1.75 -6.75,5l-5.5,3.25l-0.75,-1l-0.75,-1l-0.75,-2.5l-0.75,-2.5l7.5,-7.75q7.5,-7.75 13,-11.25q5.5,-3.5 8,-4.75q2.5,-1.25 2.5,-1.75z" id="path54" stroke-width="2px" stroke="#000000" fill-rule="evenodd" fill="#999040"/>
  <path d="m109,245.5l1,-3.5l1,0q1,0 1,5l0,5l-1.5,0q-1.5,0 -1.5,-1.5q0,-1.5 -0.5,-1.5l-0.5,0l1,-3.5z" id="path85" stroke-width="2px" stroke="#000000" fill-rule="evenodd" fill="#FFFFFF"/>
  <path d="m303,201.5l0,-0.5l3,0.75q3,0.75 17,2l14,1.25l3.5,0l3.5,0l-1,1.75q-1,1.75 -8.25,10.5q-7.25,8.75 -8.75,12.25q-1.5,3.5 -2.5,15q-1,11.5 1.5,20q2.5,8.5 8.25,17.75q5.75,9.25 8.75,11.5l3,2.25l-1,2q-1,2 -4.5,3.25q-3.5,1.25 -5.5,2.75q-2,1.5 -3,3.25q-1,1.75 -2,1.75q-1,0 -1,0.5l0,0.5l-5,1l-5,1l-2.25,-0.5l-2.25,-0.5l-1.5,-3q-1.5,-3 -1.25,-4.75q0.25,-1.75 -0.25,-5.5l-0.5,-3.75l-1,-0.25q-1,-0.25 -7.25,-7l-6.25,-6.75l-1,-11l-1,-11l-7.75,-4l-7.75,-4l0.75,-2.5q0.75,-2.5 0.5,-7.5l-0.25,-5l-4.5,1.25q-4.5,1.25 -5.75,2q-1.25,0.75 -5.75,6.75l-4.5,6l2.5,7.5q2.5,7.5 5.25,15.5l2.75,8l4.25,2l4.25,2l0.5,1q0.5,1 2.25,12.5l1.75,11.5l-0.5,0l-0.5,0l-1,-0.75q-1,-0.75 -7.5,-4.75q-6.5,-4 -8.5,-5l-2,-1l-2,0q-2,0 -11.5,2.25l-9.5,2.25l-0.5,0l-0.5,0l0.25,-9.5q0.25,-9.5 2.25,-46.5q2,-37 4.25,-42.5l2.25,-5.5l28,1l28,1l0,-0.5z" id="path95" stroke-width="2px" stroke="#000000" fill-rule="evenodd" fill="#f9f7f7"/>
  <path d="m377,301.5l5,-0.5l0,1q0,1 -1.5,1.25q-1.5,0.25 -4.25,2.5q-2.75,2.25 -5.5,2.25l-2.75,0l-1.5,-1.75q-1.5,-1.75 2,-2.5l3.5,-0.75l0,-0.5l0,-0.5l5,-0.5z" id="path97" stroke-width="2px" stroke="#000000" fill-rule="evenodd" fill="#FC3F3F"/>
  <path d="m488,213.25l14,0.75l0.5,0.25q0.5,0.25 4.5,1l4,0.75l-1.75,6.5q-1.75,6.5 -3.25,28.5q-1.5,22 -2.25,44.5l-0.75,22.5l-4.25,3q-4.25,3 -6,4l-1.75,1l-1,2.25q-1,2.25 -1.75,4q-0.75,1.75 -1.75,3.25q-1,1.5 -3,8.5q-2,7 -5.25,12.75q-3.25,5.75 -4.5,7.5q-1.25,1.75 -4,11.75l-2.75,10l-0.5,-1.5l-0.5,-1.5l-2.5,-1.25q-2.5,-1.25 -7.5,-6.25q-5,-5 -10.5,-8.5q-5.5,-3.5 -10.5,-5.75l-5,-2.25l1.25,-5q1.25,-5 1.75,-17.5q0.5,-12.5 -1.5,-18l-2,-5.5l-2.25,-1.75q-2.25,-1.75 -6.25,-4.75q-4,-3 -6.5,-4.5q-2.5,-1.5 -12.5,-2.75l-10,-1.25l0,-0.5l0,-0.5l0.5,-0.75q0.5,-0.75 8.25,-7.5q7.75,-6.75 11.25,-14.25q3.5,-7.5 4.5,-24q1,-16.5 -1.5,-22q-2.5,-5.5 -5.25,-9.25q-2.75,-3.75 -5.25,-6.5l-2.5,-2.75l0,-0.5l0,-0.5l36,1.75q36,1.75 50,2.5z" id="path99" stroke-width="2px" stroke="#000000" fill-rule="evenodd" fill="#f9f9f9"/>
  <path d="m364,198.75l6,-0.75l7,1.25q7,1.25 11,2.5l4,1.25l0,0.5q0,0.5 2,1.5l2,1l3,2l3,2l2.5,2.75q2.5,2.75 5.25,6.5q2.75,3.75 5.25,9.25q2.5,5.5 1.5,22q-1,16.5 -4.5,24q-3.5,7.5 -11.25,14.25q-7.75,6.75 -8.25,7.5l-0.5,0.75l-5,2l-5,2l-5,0.5l-5,0.5l-4.5,-0.25q-4.5,-0.25 -13.5,-3l-9,-2.75l-3,-2.25q-3,-2.25 -8.75,-11.5q-5.75,-9.25 -8.25,-17.75q-2.5,-8.5 -1.5,-20q1,-11.5 2.5,-15q1.5,-3.5 8.75,-12.25q7.25,-8.75 8.25,-10.5l1,-1.75l7,-2.75q7,-2.75 13,-3.5z" id="path101" stroke-width="2px" stroke="#000000" fill-rule="evenodd" fill="#668cb7"/>
  <path d="m509.25,222.5l1.75,-6.5l6.5,0l6.5,0l1,1.75q1,1.75 1.5,2l0.5,0.25l1.25,3.5q1.25,3.5 9.75,19.5q8.5,16 9,19q0.5,3 0,4.5q-0.5,1.5 -0.25,15.5l0.25,14l-0.75,3q-0.75,3 -1.25,4.5q-0.5,1.5 -1,12q-0.5,10.5 -0.5,11q0,0.5 -1,3.5q-1,3 -1.75,8.5l-0.75,5.5l-1,0q-1,0 -2.25,-4q-1.25,-4 -2.5,-8l-1.25,-4l-2,-0.25q-2,-0.25 -2.5,-1.5q-0.5,-1.25 -3,-2q-2.5,-0.75 -8.5,-2.5q-6,-1.75 -6,-3.25q0,-1.5 -3.5,-1.25l-3.5,0.25l-0.5,0.25l-0.5,0.25l0.75,-22.5q0.75,-22.5 2.25,-44.5q1.5,-22 3.25,-28.5z" id="path103" stroke-width="2px" stroke="#000000" fill-rule="evenodd" fill="#f9f7f7"/>
  <path d="m396.5,205.25l-0.5,0.75l-2,-1q-2,-1 -2,-1.5l0,-0.5l0.5,0q0.5,0 1.5,-1.75l1,-1.75l2,-1.75q2,-1.75 2,-3.25q0,-1.5 1,-1.5q1,0 1.5,-1.25q0.5,-1.25 -1.75,-3q-2.25,-1.75 -1.75,-4.75l0.5,-3l0.25,-0.25q0.25,-0.25 4,0q3.75,0.25 4,1.75q0.25,1.5 4.25,1.25q4,-0.25 4.75,0.5q0.75,0.75 0.25,3.25l-0.5,2.5l-1.25,1.25q-1.25,1.25 -4.75,1q-3.5,-0.25 -3.5,0.75q0,1 -1.25,1.5q-1.25,0.5 -2,2.5q-0.75,2 -1.75,2q-1,0 -2.5,2.75q-1.5,2.75 -2,3.5z" id="path105" stroke-width="2px" stroke="#000000" fill-rule="evenodd" fill="#826363"/>
  <path d="m731,477.5l1,-2.5l0.5,0l0.5,0l0,1.5q0,1.5 1,1.5q1,0 1,2.5q0,2.5 1.5,2.5q1.5,0 2,2.5l0.5,2.5l1.75,-1q1.75,-1 2,-2.5q0.25,-1.5 1.25,-1.5l1,0l0.25,4l0.25,4l7,6.5q7,6.5 9.25,9.25q2.25,2.75 4,5.5q1.75,2.75 4.75,8.25q3,5.5 4.5,10.5q1.5,5 2.75,13.5l1.25,8.5l-79,0l-79,0l1.75,-11.5q1.75,-11.5 4.75,-19q3,-7.5 4.75,-11.5l1.75,-4l3,-1.75q3,-1.75 4.25,-3q1.25,-1.25 3.5,-3q2.25,-1.75 6.75,-5.25q4.5,-3.5 5.75,-4.75q1.25,-1.25 4,-2.25q2.75,-1 2.75,-3.5l0,-2.5l9,-1.25q9,-1.25 16,-2.25q7,-1 22,0.5q15,1.5 15.5,1.5q0.5,0 2,0.25l1.5,0.25l1,-2.5z" id="path119" stroke-width="2px" stroke="#000000" fill-rule="evenodd" fill="#66625D"/>
  <path d="m428.5,86l0.5,0l0,1.5l0,1.5l6.5,-0.75l6.5,-0.75l5.5,3.5q5.5,3.5 8.75,7.75l3.25,4.25l-1,9.5q-1,9.5 -3.5,17l-2.5,7.5l4.75,3.25q4.75,3.25 8.75,5.25q4,2 12,4.5q8,2.5 10.5,3.5q2.5,1 4,1.25l1.5,0.25l0,0.5l0,0.5l-0.5,0q-0.5,0 0,1.75q0.5,1.75 1.5,2q1,0.25 2.25,5.25q1.25,5 2.25,13.5q1,8.5 1.75,22l0.75,13.5l-14,-0.75q-14,-0.75 -50,-2.5l-36,-1.75l0,0.5l0,0.5l-3,-2l-3,-2l0.5,-0.75q0.5,-0.75 2,-3.5q1.5,-2.75 2.5,-2.75q1,0 1.75,-2q0.75,-2 2,-2.5q1.25,-0.5 1.25,-1.5q0,-1 3.5,-0.75q3.5,0.25 4.75,-1l1.25,-1.25l0.5,-2.5q0.5,-2.5 -0.25,-3.25q-0.75,-0.75 -4.75,-0.5q-4,0.25 -4.25,-1.25q-0.25,-1.5 -4,-1.75q-3.75,-0.25 -4,0l-0.25,0.25l-0.5,3q-0.5,3 1.75,4.75q2.25,1.75 1.75,3q-0.5,1.25 -1.5,1.25q-1,0 -1,1.5q0,1.5 -2,3.25l-2,1.75l-1,1.75q-1,1.75 -1.5,1.75l-0.5,0l-4,-1.25q-4,-1.25 -11,-2.5l-7,-1.25l3.75,-11q3.75,-11 4.5,-15.75q0.75,-4.75 1,-5q0.25,-0.25 0.75,-4.25l0.5,-4l2.25,-2.25q2.25,-2.25 10.25,-6l8,-3.75l4,0.25q4,0.25 7.5,-1.25q3.5,-1.5 5.5,-2.5l2,-1l-1.25,-1.25q-1.25,-1.25 -2.25,-9.25q-1,-8 -1.5,-14l-0.5,-6l-0.75,-2l-0.75,-2l1.75,-4q1.75,-4 1.75,-5.5l0,-1.5l1.25,-0.75q1.25,-0.75 2.25,-1q1,-0.25 1,-1.25q0,-1 3.5,-2.5q3.5,-1.5 3.5,-3l0,-1.5l0.5,0z" id="path107" stroke-width="2px" stroke="#000000" fill-rule="evenodd" fill="#EDC785"/>
 </g>
</svg>
