<?xml version="1.0" encoding="UTF-8" standalone="no"?>
<svg
   id="Layer_1"
   data-name="Layer 1"
   viewBox="0 0 250px 250px"
   width="177.34"
   height="173.48"
   version="1.1"
   xmlns="http://www.w3.org/2000/svg"
   xmlns:svg="http://www.w3.org/2000/svg">
  <defs
     id="defs26">
    <style
       id="style2">.cls-1 {
      fill: #8f2100;
    }

    .cls-2 {
      fill: #b92d00;
    }

    .cls-3 {
      fill: #ae2f00;
    }

    .cls-4 {
      fill: #881f00;
    }

    .cls-5 {
      fill: #9a2500;
    }

    .cls-6 {
      fill: #a32700;
    }

    .cls-7 {
      fill: #7e1a00;
    }

    .cls-8 {
      fill: #b73900;
    }

    .cls-9 {
      fill: #a72f00;
    }

    .cls-10 {
      fill: #ac3500;
    }

    .cls-11 {
      fill: #c93f00;
    }

    .cls-12 {
      fill: #c64400;
    }

    .cls-13 {
      fill: #c13500;
    }

    .cls-14 {
      fill: #d24300;
    }

    .cls-15 {
      fill: #bf4300;
    }

    .cls-16 {
      fill: #cf4f00;
    }

    .cls-17 {
      fill: #c34f00;
    }

    .cls-18 {
      fill: #d84e00;
    }

    .cls-19 {
      fill: #db5600;
    }

    .cls-20 {
      fill: #d25900;
    }

    .cls-21 {
      fill: #df5800;
    }

    .cls-22 {
      fill: #da5e00;
    }

    .cls-23 {
      fill: #e36000;
    }

    .cls-24 {
      fill: #fd4000;
    }

    .cls-25 {
      fill: #e56900;
    }

    .cls-26 {
      fill: #fd7e00;
    }

    .cls-27 {
      fill: #fd9800;
    }

    .cls-28 {
      fill: url(#linear-gradient);
    }

    .cls-29 {
      fill: url(#linear-gradient-2);
    }

    .cls-30 {
      fill: url(#linear-gradient-3);
    }

    .cls-31 {
      fill: url(#linear-gradient-4);
    }

    .cls-32 {
      fill: url(#linear-gradient-5);
    }

    .cls-33 {
      fill: url(#linear-gradient-6);
    }

    .cls-34 {
      fill: url(#linear-gradient-7);
    }

    .cls-35 {
      fill: url(#linear-gradient-8);
    }</style>
  </defs>
  <g
     id="zh0PxQ.tif"
     transform="translate(-164.32,-17.74)">
    <path
       class="cls-1"
       d="m 168.15,80.39 c 0.38,-1.34 0.76,-2.69 1.15,-4 3,-0.28 3.16,-0.68 1.31,-4 l 0.6,-2 0.51,-0.84 a 0.66,0.66 0 0 1 0.05,-0.48 l 0.55,-0.75 v 0 l 1.2,-2.84 q 3,-5.88 6.08,-11.76 c 2.34,1.3 4.58,3.21 7.42,1.46 0.18,-0.11 0.63,0.35 1,0.55 l -1.81,2 -7.05,2.62 c 1.05,2.7 2.62,5 2.63,7.23 0,3 -2.35,4.2 -5,4 0,2 -0.59,4.17 0.12,5.45 1.95,3.56 -0.16,5.43 -1.8,7.73 -0.56,0.8 -1.3,2.11 -1.07,2.83 0.88,2.82 2.13,5.5 3.24,8.23 q -0.28,3 -0.59,6 c 0.39,1.67 0.81,3.32 1.16,5 a 34,34 0 0 1 0.55,3.48 c 0.26,2.51 0.46,5 0.68,7.55 v 1.33 l -3.28,2.26 c -2.6,-3 -3.47,-3.13 -4.89,0 -1.05,2.36 -1.24,5.2 -1.77,7.85 -0.05,0.24 0.31,0.55 0.39,0.85 q 1.2,4.85 2.38,9.7 l -0.6,0.67 -2.08,0.08 q -1.62,-6.41 -3.23,-12.8 c 0.32,-2.33 0.54,-4.69 1,-7 0.46,-2.31 -0.2,-3.39 -2.2,-3.67 0,-1.1 -0.09,-2.21 -0.14,-3.31 l 2.46,-1.43 -2.64,-2.62 c 0,-0.88 0,-1.75 0,-2.63 3.33,0 3.56,-2.86 3.85,-5.45 0.35,-3.17 0.06,-6.49 0.79,-9.52 0.73,-3.03 0.13,-4.83 -2,-6.42 0.06,-0.66 0.12,-1.32 0.19,-2 l 3.67,1.58 0.46,-0.42 z"
       id="path28" />
    <path
       class="cls-2"
       d="m 191.47,180 -1.24,-1.29 c 0.41,-2 2.92,-3.25 1.25,-5.91 -2,-3.15 -1.27,-5.82 0.6,-8.88 1.26,-2 4.39,-3.22 3.32,-6.68 -0.75,-2.42 -0.12,-3.51 2.2,-3.56 a 26.46,26.46 0 0 0 3.49,-0.51 c -0.64,2.23 -1.28,4.45 -2,6.9 1,1.41 1.86,3.83 3.42,4.69 3.77,2.06 3.76,5.83 4.05,9.39 0.17,2.06 1,3 2.3,2.09 a 81.65,81.65 0 0 0 7.16,-5.7 c 3.35,-0.88 6.66,-2 10.05,-2.57 a 10.88,10.88 0 0 0 7.9,-4.76 l 3,-1.39 c -0.07,0.5 0,1.25 -0.23,1.45 -2.88,2.24 -5.81,4.41 -8.73,6.59 l -9,2 a 41.27,41.27 0 0 0 -5.17,2.95 c -1.21,0.92 -3.16,2.88 -2.92,3.51 0.78,2.07 2.13,4.83 3.76,5.34 3,0.94 4.44,3 6.06,5.56 l -1.74,1.37 h -4.78 c -0.54,-2.65 -2.17,-3.68 -4.41,-3.31 -4,0.67 -6.78,-1.42 -8.92,-4.56 l 6.93,-4.92 -0.36,-0.76 a 18.33,18.33 0 0 0 -3.18,1.45 10.46,10.46 0 0 1 -11.06,1.12 c -0.44,-0.2 -1.15,0.26 -1.75,0.39 z"
       id="path30" />
    <path
       class="cls-3"
       d="m 201.09,153.19 a 26.46,26.46 0 0 1 -3.49,0.51 c -2.32,0.05 -2.95,1.14 -2.2,3.56 1.07,3.46 -2.06,4.64 -3.32,6.68 -1.87,3.06 -2.57,5.73 -0.6,8.88 1.67,2.66 -0.84,4 -1.25,5.91 l -3.54,-4.08 a 49.09,49.09 0 0 0 0.43,-5.91 c -0.07,-2.05 0,-4.51 -1,-6 -1,-1.49 -1.28,-2.26 -0.55,-3.69 l 2.34,-4.53 3.58,-1.78 -7.77,-0.88 a 7.65,7.65 0 0 1 0.07,-2.59 c 0.84,-2.05 0.28,-5.32 3.52,-5.44 l 3.6,4 c 0.53,1.31 1,3.73 1.6,3.75 3.06,0.1 6.33,1.34 9.17,-1.09 l 2.38,0.68 -0.6,2 z"
       id="path32" />
    <path
       class="cls-4"
       d="m 206.48,24.42 6,-3.47 c 0.37,2.55 1.78,1.91 3.36,1.6 5.48,-1.09 11.14,-3.18 15.79,2.44 a 27.72,27.72 0 0 1 -2.93,3.17 14.44,14.44 0 0 1 -3.08,1.51 c -4,-0.23 -8,0 -11.93,-0.86 -2.64,-0.54 -5.83,-0.91 -7.21,-4.39 z"
       id="path34" />
    <path
       class="cls-5"
       d="m 187.93,55.71 c -0.33,-0.2 -0.78,-0.66 -1,-0.55 -2.84,1.75 -5.08,-0.16 -7.42,-1.46 l 5.34,-8 2.34,0.46 -0.62,-2.52 v 0 l 1.29,0.11 c 0,2.6 1.65,2.7 3.27,2.65 1.62,-0.05 2.9,0.23 3.68,2.38 0.39,1.08 2.1,1.57 3.22,2.33 l -0.59,1.33 c -0.94,0.16 -2.41,0 -2.73,0.55 -1.62,3.01 -4.34,2.32 -6.78,2.72 z"
       id="path36" />
    <path
       class="cls-6"
       d="m 187.92,154.53 -2.34,4.53 c -0.73,1.43 -0.39,2.27 0.55,3.69 0.94,1.42 0.92,3.94 1,6 a 49.09,49.09 0 0 1 -0.43,5.91 l -8.33,-12.13 c 0.18,-1.84 0.37,-3.68 0.57,-5.7 l -3,1.08 v 0 -2 c 2.6,-0.45 5.19,-1 7.79,-1.31 a 32.22,32.22 0 0 1 4.19,-0.07 z"
       id="path38" />
    <path
       class="cls-6"
       d="m 191.47,180 c 0.6,-0.15 1.31,-0.61 1.78,-0.41 a 10.46,10.46 0 0 0 11.06,-1.12 18.33,18.33 0 0 1 3.18,-1.45 l 0.36,0.76 -6.93,4.92 c 2.14,3.14 4.89,5.23 8.92,4.56 2.24,-0.37 3.87,0.66 4.41,3.31 l -0.6,0.56 H 202.9 c -3.1,-2.82 -6.22,-5.61 -9.28,-8.48 A 23.55,23.55 0 0 1 191.47,180 Z"
       id="path40" />
    <path
       class="cls-7"
       d="m 231.59,25 c -4.65,-5.62 -10.31,-3.53 -15.79,-2.44 -1.58,0.31 -3,0.95 -3.36,-1.6 l 4.8,-3.21 h 17.93 c 0,2.27 1,4.76 -1.14,6.63 -0.19,0.17 0,0.84 -0.05,1.28 z"
       id="path42" />
    <path
       class="cls-7"
       d="m 206.48,24.42 c 1.38,3.48 4.57,3.85 7.17,4.39 3.89,0.83 7.95,0.63 11.93,0.86 3.34,1.11 6.74,2.06 10,3.42 1.61,0.67 4.16,0.18 4.38,3.28 l -2.36,-0.11 -6,-2 L 222,32.38 211.27,31 c -0.61,-0.4 -1.23,-0.81 -1.85,-1.2 L 207.06,28.3 204,26.92 Z"
       id="path44" />
    <path
       class="cls-6"
       d="m 171.17,140.51 0.6,-0.67 c 0.79,0.74 1.6,1.48 2.37,2.24 1,1 2,2.07 3,3.1 l 1.19,1.33 -0.29,1 0.89,-0.32 3.58,4.68 -7.77,2 -0.36,-6.66 -2.64,1.34 v 0 l -0.57,-1.33 a 0.6,0.6 0 0 1 -0.09,-0.49 c -0.21,-0.71 -0.43,-1.42 -0.64,-2.13 v 0 l -0.56,-0.76 c -0.18,-0.67 -0.36,-1.33 -0.55,-2 z"
       id="path46" />
    <path
       class="cls-4"
       d="m 167,85.75 c 2.09,1.59 2.68,3.46 2,6.42 -0.68,2.96 -0.44,6.35 -0.79,9.52 -0.29,2.59 -0.52,5.44 -3.85,5.45 q 0.9,-9.39 1.78,-18.8 l 0.31,-0.58 z"
       id="path48" />
    <path
       class="cls-5"
       d="m 194.52,34.39 1,-0.8 0.82,-0.71 2.94,-2.68 a 12,12 0 0 0 0.46,1.74 c 2.68,-0.42 2.57,2 3.16,3.73 -3.19,4 -7.81,4 -12,5.34 v -2.72 c 0.82,-0.87 1.65,-1.74 2.47,-2.62 z"
       id="path50" />
    <path
       class="cls-1"
       d="m 202.88,35.67 c -0.59,-1.71 -0.48,-4.15 -3.16,-3.73 a 12,12 0 0 1 -0.46,-1.74 l 4.7,-3.28 3.1,1.41 c 1.1,3.67 -0.59,6.67 -4.18,7.34 z"
       id="path52" />
    <path
       class="cls-1"
       d="m 174.77,153.85 7.77,-2 h 1.19 l 7.77,0.88 -3.58,1.78 a 32.22,32.22 0 0 0 -4.17,0 c -2.6,0.34 -5.19,0.86 -7.79,1.31 h -1.17 c -0.18,-0.45 -0.36,-0.9 -0.55,-1.35 z"
       id="path54" />
    <path
       class="cls-4"
       d="m 164.64,117.13 c 2,0.28 2.63,1.47 2.2,3.67 -0.43,2.2 -0.66,4.66 -1,7 -0.39,-3.56 -0.79,-7.12 -1.2,-10.67 z"
       id="path56" />
    <path
       class="cls-5"
       d="m 174.77,153.85 -0.53,0.65 -2.47,-6 2.64,-1.34 z"
       id="path58" />
    <path
       class="cls-7"
       d="m 190.88,38.29 v 2.72 1.34 l -3,1.32 -1.29,-0.11 z"
       id="path60" />
    <path
       class="cls-4"
       d="m 164.32,109.77 2.64,2.62 -2.46,1.43 z"
       id="path62" />
    <path
       class="cls-5"
       d="m 175.92,157.9 3,-1.08 c -0.2,2 -0.39,3.86 -0.57,5.7 q -1.2,-2.31 -2.43,-4.62 z"
       id="path64" />
    <path
       class="cls-4"
       d="m 168.15,80.39 3.15,4.54 -0.46,0.42 -3.67,-1.58 z"
       id="path66" />
    <path
       class="cls-4"
       d="m 170.61,72.41 c 1.85,3.27 1.72,3.67 -1.31,4 0.43,-1.41 0.87,-2.68 1.31,-4 z"
       id="path68" />
    <path
       class="cls-7"
       d="m 186.61,43.6 0.62,2.52 -2.34,-0.46 z"
       id="path70" />
    <path
       class="cls-4"
       d="m 173.47,65.46 -1.2,2.84 z"
       id="path72" />
    <path
       class="cls-5"
       d="m 171.17,140.51 -1.77,1.33 c -0.1,-0.42 -0.21,-0.83 -0.31,-1.25 z"
       id="path74" />
    <path
       class="cls-5"
       d="m 174.79,155.85 h 1.17 v 2 z"
       id="path76" />
    <path
       class="cls-5"
       d="m 170.46,144.57 c 0.21,0.71 0.43,1.42 0.64,2.13 -0.21,-0.7 -0.43,-1.42 -0.64,-2.13 z"
       id="path78" />
    <path
       class="cls-1"
       d="m 194.52,34.39 -1.17,1.28 z"
       id="path80" />
    <path
       class="cls-5"
       d="m 171.19,147.19 0.57,1.33 z"
       id="path82" />
    <path
       class="cls-5"
       d="m 170,143.84 0.56,0.76 z"
       id="path84" />
    <path
       class="cls-7"
       d="m 166.39,87.76 -0.31,0.58 c 0.11,-0.19 0.21,-0.34 0.31,-0.58 z"
       id="path86" />
    <path
       class="cls-4"
       d="m 171.72,69.54 -0.51,0.84 z"
       id="path88" />
    <path
       class="cls-4"
       d="m 172.32,68.31 -0.55,0.75 z"
       id="path90" />
    <path
       class="cls-1"
       d="m 196.32,32.88 -0.82,0.71 z"
       id="path92" />
    <path
       class="cls-7"
       d="m 289,17.74 5.54,3.8 c -0.54,0.45 -1.2,1.4 -1.59,1.28 -2.63,-0.79 -4.37,1.31 -6.46,2.22 -0.54,0.24 -1.11,0.41 -1.67,0.61 -2.19,-0.63 -4.61,-2.2 -6.51,-1.63 -1.9,0.57 -3,3.36 -4.85,5.6 V 25 A 21.46,21.46 0 0 0 270,23.42 c -2.36,-0.61 -2.76,0.06 -2,2.9 v 2 l -1.79,-0.68 -0.59,-0.68 c -1.32,-4.31 -1.8,-4 -5.63,-3.72 -6.08,0.42 -12.2,-0.14 -18.3,-0.28 v -5.21 z"
       id="path94" />
    <path
       class="cls-8"
       d="m 213.65,191.15 0.6,-0.56 h 25.11 a 22.84,22.84 0 0 0 4.61,-0.08 c 3.79,-0.8 8.28,0 10.43,-5.28 0.91,0.47 1.81,0.85 2.64,1.38 2.61,1.65 4.68,1.76 6.38,-1.67 0.84,-1.71 2.45,-2.86 4.59,-1.88 0.57,0.26 1.46,-0.31 2.2,-0.52 a 30.77,30.77 0 0 1 4.5,-1.25 c 3.3,-0.4 6.62,-0.56 9.76,-0.81 l 0.91,-5.76 1.15,-0.23 c -0.21,3.28 0.87,5.07 3.72,4.78 -1.07,0.61 -2.16,1.18 -3.2,1.85 a 14.89,14.89 0 0 0 -1.65,1.45 l -4.75,2.07 c -4.18,-1.88 -7.61,-1 -10.13,2.93 -1.45,2.25 -3,3.38 -5.62,3.1 a 29.17,29.17 0 0 0 -5.78,0.48 z"
       id="path96" />
    <path
       class="cls-9"
       d="m 305.85,188.31 -2.57,2.86 h -7.09 a 24.14,24.14 0 0 0 -0.71,-2.38 c -0.93,-2.3 -1.9,-4.59 -2.86,-6.88 2.08,2.44 4.58,2.16 7.16,1.35 a 18.64,18.64 0 0 1 3.29,1.87 26.16,26.16 0 0 1 2.78,3.18 z"
       id="path98" />
    <path
       class="cls-4"
       d="M 241.76,17.75 V 23 c -1.07,1.29 -3.86,0.26 -3.59,3.34 l 1,5.23 c -2.49,-1.77 -4.38,-3.16 -5.19,-5.89 0,-0.44 -0.14,-1.11 0.05,-1.28 2.11,-1.87 1.1,-4.36 1.14,-6.63 z"
       id="path100" />
    <path
       class="cls-10"
       d="m 259.12,191.14 a 29.17,29.17 0 0 1 5.78,-0.48 c 2.59,0.28 4.17,-0.85 5.62,-3.1 2.52,-3.93 6,-4.81 10.13,-2.93 -0.49,0.59 -0.95,1.22 -1.47,1.78 -1.5,1.59 -3,3.16 -4.54,4.74 z"
       id="path102" />
    <path
       class="cls-9"
       d="M 294.39,191.15 H 289 a 9,9 0 0 1 -2.37,-7.24 v 0 c 4.18,-1.32 4.2,-1.33 6.14,3.08 0.59,1.36 1.08,2.77 1.62,4.16 z"
       id="path104" />
    <path
       class="cls-5"
       d="m 294.39,191.15 c -0.54,-1.39 -1,-2.8 -1.63,-4.16 -1.94,-4.41 -2,-4.4 -6.14,-3.08 l -1.22,-1.35 a 14.89,14.89 0 0 1 1.65,-1.45 c 1,-0.67 2.13,-1.24 3.2,-1.85 l 2.32,-2 1.24,0.7 c -0.39,1.32 -0.79,2.65 -1.19,4 1,2.29 1.93,4.58 2.86,6.88 a 24.14,24.14 0 0 1 0.71,2.38 z"
       id="path106" />
    <path
       class="cls-4"
       d="m 285.4,182.56 1.22,1.35 v 0 l -1.8,2 -7.16,5.24 h -3 c 1.52,-1.58 3,-3.15 4.54,-4.74 0.52,-0.56 1,-1.19 1.47,-1.78 z"
       id="path108" />
    <path
       class="cls-9"
       d="m 277.66,191.14 7.16,-5.24 v 5.25 z"
       id="path110" />
    <path
       class="cls-5"
       d="m 284.81,191.15 v -5.25 l 1.8,-2 a 9,9 0 0 0 2.37,7.24 z"
       id="path112" />
    <path
       class="cls-6"
       d="m 187.93,55.71 c 2.44,-0.4 5.16,0.27 6.84,-2.8 0.32,-0.58 1.79,-0.39 2.73,-0.55 0.35,0.8 0.71,1.6 1,2.2 l 3.22,-2.21 -3.63,4.65 -0.94,-0.25 0.35,2.26 c 0,0.44 0,0.89 0,1.33 l -1.18,2 c -4.06,-0.06 -5.31,3.64 -7,6.65 a 2.8,2.8 0 0 0 0.06,2.23 c 1,1.79 2.23,3.44 3.37,5.14 0,1.69 0.57,4 -0.19,4.95 -2.4,2.89 -2,5.08 0.47,7.11 l -2.68,2.63 a 32,32 0 0 1 -4,4 c -1.34,1 -1.72,1.72 -0.69,3.11 0.55,0.74 1.12,1.47 1.75,2.3 -0.57,0.73 -0.92,1.57 -1.48,1.83 -2.13,1 -2.31,2.42 -1.64,4.68 a 10.05,10.05 0 0 1 0.38,5.16 91.06,91.06 0 0 1 -3.5,9.1 l -1,-3.44 1.19,-5.34 1.09,-0.84 -1.09,-1.16 c -0.08,-3.94 -1.29,-7.09 -4.78,-8.69 q 0.3,-3 0.59,-6 c 1.27,-3 2,-6.58 3.93,-8.94 2.33,-2.88 3.46,-5.59 2.74,-9.31 0,-0.25 0.24,-0.57 0.33,-0.78 l 3.78,-1 c -1,-0.81 -1.24,-1 -1.52,-1.3 -2.88,-2.63 -3,-4.41 -0.23,-7 1.8,-1.71 3,-3.68 2.16,-6.33 -0.4,-1.24 -1.46,-2.23 -2.22,-3.33 z m -7.85,37.41 0.45,1 c 4.15,0.28 5.44,-0.69 5.19,-4.63 z"
       id="path114" />
    <path
       class="cls-9"
       d="m 180.15,117.8 1,3.44 a 91.06,91.06 0 0 0 3.5,-9.1 10.05,10.05 0 0 0 -0.38,-5.16 c -0.67,-2.26 -0.49,-3.73 1.64,-4.68 0.56,-0.26 0.91,-1.1 1.48,-1.83 -0.63,-0.83 -1.2,-1.56 -1.75,-2.3 -1,-1.39 -0.65,-2.16 0.69,-3.11 a 32,32 0 0 0 4,-4 70.58,70.58 0 0 1 -0.08,8.61 135.87,135.87 0 0 1 -2.39,13.78 c -0.64,2.8 -2.55,5.37 -2.7,8.12 -0.12,2.25 2.25,4.5 0.62,7.2 a 1.41,1.41 0 0 0 0.54,1.09 c 3.25,1.14 2.17,3.67 1.74,6.12 -0.19,1.15 -0.32,2.74 0.23,3.54 1.44,2.1 0.41,3.16 -1,4.29 -3.24,0.12 -2.68,3.39 -3.52,5.44 a 7.65,7.65 0 0 0 -0.07,2.59 h -1.19 l -3.51,-4.66 -0.6,-0.67 -1.19,-1.33 c -2.42,-5.35 1.16,-9.55 2.21,-14.4 l -2.16,-1.72 c 0.07,-0.43 0.06,-0.81 0.15,-0.84 4.65,-1.68 3.55,-4.77 1.63,-8.1 -0.14,-0.24 0,-0.66 -0.06,-1 v -1.32 z"
       id="path116" />
    <path
       class="cls-5"
       d="m 186.12,57.7 c 0.76,1.1 1.82,2.09 2.22,3.33 0.85,2.65 -0.36,4.62 -2.16,6.33 -2.75,2.63 -2.65,4.41 0.23,7 0.28,0.25 0.57,0.49 1.52,1.3 l -3.78,1 c -0.09,0.21 -0.38,0.53 -0.33,0.78 0.72,3.72 -0.41,6.43 -2.74,9.31 -1.92,2.36 -2.66,5.91 -3.93,8.94 -1.11,-2.73 -2.36,-5.41 -3.24,-8.23 -0.23,-0.72 0.51,-2 1.07,-2.83 1.64,-2.3 3.75,-4.17 1.8,-7.73 -0.71,-1.28 -0.12,-3.45 -0.12,-5.45 2.69,0.22 5.06,-1 5,-4 0,-2.27 -1.58,-4.53 -2.63,-7.23 z"
       id="path118" />
    <path
       class="cls-5"
       d="m 178.94,119.13 c 0,0.33 -0.08,0.75 0.06,1 1.92,3.33 3,6.42 -1.63,8.1 -0.09,0 -0.08,0.41 -0.15,0.84 l 2.16,1.72 c -1,4.85 -4.63,9.05 -2.21,14.4 -1,-1 -2,-2.08 -3,-3.1 -0.77,-0.76 -1.58,-1.5 -2.37,-2.24 q -1.19,-4.84 -2.38,-9.7 c -0.08,-0.3 -0.44,-0.61 -0.39,-0.85 0.53,-2.65 0.72,-5.49 1.77,-7.85 1.42,-3.18 2.29,-3 4.89,0 z"
       id="path120" />
    <path
       class="cls-5"
       d="M 180.15,117.8 H 179 c -0.22,-2.52 -0.42,-5 -0.68,-7.55 a 34,34 0 0 0 -0.55,-3.48 c -0.35,-1.68 -0.77,-3.33 -1.16,-5 3.49,1.6 4.7,4.75 4.78,8.69 v 2 z"
       id="path122" />
    <path
       class="cls-11"
       d="m 204.07,151.19 -2.38,-0.68 3.58,-2.66 2.9,-0.21 c -0.68,-4.68 -1.15,-8.94 1.88,-12.48 l 4.19,2 a 6.47,6.47 0 0 0 3.24,6.15 c 2.87,1.92 5.28,5.33 9.28,3.32 0.2,-0.1 0.54,0.24 0.83,0.29 1.93,0.32 3.86,0.62 5.79,0.92 0.05,2.24 -0.87,2.62 -2.82,2.53 a 17.47,17.47 0 0 0 -6.13,1.28 c -0.36,0.11 -0.65,2.43 -0.38,2.61 3.73,2.43 5.29,7.87 9.94,9 a 10.88,10.88 0 0 1 -7.9,4.76 c -3.39,0.54 -6.7,1.69 -10.05,2.57 l -1.78,-3.2 -1.21,-2.15 -3,-4 -0.59,-0.65 -2.7,-4.77 c -1,-1.81 -1.12,-3.1 1.3,-3.28 a 9.74,9.74 0 0 0 2.42,-0.82 l -0.19,-1.1 z"
       id="path124" />
    <path
       class="cls-12"
       d="m 228,169.88 c 2.92,-2.18 5.85,-4.35 8.73,-6.59 0.26,-0.2 0.16,-0.95 0.24,-1.45 0.58,-1 1.11,-2 1.75,-2.9 1.18,-1.72 2.42,-3.39 3.64,-5.08 h 0.59 v 1.37 c -0.35,0.91 -0.47,2.09 -1.07,2.68 -2.3,2.26 -1.85,4.68 -0.51,7.13 1.65,3 3.43,5.92 5.15,8.87 l 1.8,7.34 -5.4,3.34 -1.78,1.33 -6.78,2.5 -0.59,-1 3,-1.7 c -2.3,-2.75 -4.17,-4.59 -7,-4.45 q -0.88,-5.72 -1.77,-11.39 z"
       id="path126" />
    <path
       class="cls-13"
       d="m 229.79,181.24 c 2.86,-0.14 4.73,1.7 7,4.45 l -3,1.7 0.59,1 6.78,-2.5 -1.8,4.68 H 219 l 1.73,-1.33 c -1.62,-2.52 -3.09,-4.62 -6.06,-5.56 -1.63,-0.51 -3,-3.27 -3.76,-5.34 -0.24,-0.63 1.71,-2.59 2.92,-3.51 A 41.27,41.27 0 0 1 219,171.9 c 1,2.54 1.63,5.36 3,7.57 2,2.96 4.76,3.65 7.79,1.77 z"
       id="path128" />
    <path
       class="cls-14"
       d="m 242.36,153.86 c -1.22,1.69 -2.46,3.36 -3.64,5.08 -0.64,0.92 -1.17,1.93 -1.75,2.9 l -3,1.39 c -4.65,-1.09 -6.21,-6.53 -9.94,-9 -0.27,-0.18 0,-2.5 0.38,-2.61 a 17.47,17.47 0 0 1 6.13,-1.28 c 1.95,0.09 2.87,-0.29 2.82,-2.53 l 5.39,-2.67 h 2.39 c -0.46,0.67 -0.79,1.59 -1.39,2 -1.45,0.9 -3,1.55 -4.71,2.37 1.89,3.38 4.75,3.49 7.32,4.35 z"
       id="path130" />
    <path
       class="cls-13"
       d="m 209.47,160.54 c 0.2,0.21 0.39,0.43 0.59,0.65 a 12,12 0 0 0 0.92,3.22 c 0.33,0.54 1.36,0.55 2.07,0.8 l 1.21,2.15 1.78,3.2 a 81.65,81.65 0 0 1 -7.16,5.7 c -1.34,0.86 -2.13,0 -2.3,-2.09 -0.29,-3.56 -0.28,-7.33 -4.05,-9.39 -1.56,-0.86 -2.44,-3.28 -3.42,-4.69 0.7,-2.45 1.34,-4.67 2,-6.9 h 2.38 c 1.51,2.91 2.76,6.14 5.98,7.35 z"
       id="path132" />
    <path
       class="cls-11"
       d="m 229.79,181.24 c -3,1.88 -5.83,1.19 -7.72,-1.77 -1.41,-2.21 -2,-5 -3,-7.57 l 9,-2 q 0.83,5.67 1.72,11.34 z"
       id="path134" />
    <path
       class="cls-10"
       d="m 187.32,143.84 c 1.36,-1.13 2.39,-2.19 1,-4.29 -0.55,-0.8 -0.42,-2.39 -0.23,-3.54 0.43,-2.45 1.51,-5 -1.74,-6.12 a 1.41,1.41 0 0 1 -0.54,-1.09 c 1.63,-2.7 -0.74,-5 -0.62,-7.2 0.15,-2.75 2.06,-5.32 2.7,-8.12 a 135.87,135.87 0 0 0 2.39,-13.78 70.58,70.58 0 0 0 0.08,-8.61 L 193,88.46 c -2.47,-2 -2.87,-4.22 -0.47,-7.11 0.76,-0.93 0.16,-3.26 0.19,-4.95 h 1.79 c 0.35,4.53 -1.55,9.72 3.38,13.1 a 24.51,24.51 0 0 1 0.87,-3.75 14.67,14.67 0 0 1 1.73,-2.67 c -0.38,2.15 -0.87,4.29 -1.13,6.46 -0.37,3 1.14,5.25 3.52,5.56 l 0.61,2.67 c -0.41,1.94 -1,1 -1.72,0.19 -0.9,-1 -1.89,-2 -3.26,-3.46 -0.46,1.71 -0.81,2.7 -1,3.73 -1,5.55 1.59,11.56 -1.79,16.8 0,0.07 0,0.22 0,0.33 -0.69,4.78 -1.49,9.55 -2,14.36 a 9.88,9.88 0 0 0 0.87,4.48 61.18,61.18 0 0 0 2.85,5.5 c -1.53,0.22 -3.06,0 -3.42,0.58 -0.88,1.48 -1.16,3.39 -1.79,5.08 a 20.33,20.33 0 0 1 -1.3,2.49 z"
       id="path136" />
    <path
       class="cls-8"
       d="m 190.92,147.85 a 20.33,20.33 0 0 0 1.3,-2.49 c 0.63,-1.69 0.91,-3.6 1.79,-5.08 0.36,-0.61 1.89,-0.36 3.42,-0.58 a 61.18,61.18 0 0 1 -2.85,-5.5 9.88,9.88 0 0 1 -0.87,-4.48 c 0.51,-4.81 1.31,-9.58 2,-14.36 0,-0.11 0,-0.26 0,-0.33 3.38,-5.24 0.82,-11.25 1.79,-16.8 0.18,-1 0.53,-2 1,-3.73 1.37,1.44 2.36,2.41 3.26,3.46 0.71,0.83 1.31,1.75 1.72,-0.19 l 4.26,4.32 h -3.41 l 0.61,0.6 c -1.38,2.58 -3.3,5 -4,7.78 -1.25,4.91 -1.77,10.06 -2.54,15.12 0,0.31 0.4,0.74 0.65,1.08 l 6.36,8.86 c -3.93,2.93 -4.12,5.94 -1.09,9.68 a 9,9 0 0 1 1,2.64 l -3.58,2.66 c -2.84,2.43 -6.11,1.19 -9.17,1.09 -0.57,-0.02 -1.12,-2.44 -1.65,-3.75 z"
       id="path138" />
    <path
       class="cls-2"
       d="m 209.47,160.54 c -3.22,-1.21 -4.45,-4.44 -6,-7.35 l 0.6,-2 6.23,-0.62 0.19,1.1 a 9.74,9.74 0 0 1 -2.42,0.82 c -2.42,0.18 -2.33,1.47 -1.3,3.28 z"
       id="path140" />
    <path
       class="cls-5"
       d="m 234,25.66 c 0.81,2.73 2.7,4.12 5.19,5.89 -0.45,-2.37 -0.73,-3.8 -1,-5.23 3.2,-0.44 6.38,-1.11 9.59,-1.24 1.67,-0.07 3.36,1 5.08,1.18 4.27,0.37 8.56,0.5 12.85,0.72 l 0.59,0.68 c -3.25,0.53 -6.43,1.78 -9.82,0.18 -1.06,-0.51 -2.61,0.29 -3.94,0.49 -2.82,0.23 -5.66,0.3 -8.45,0.77 -1,0.17 -1.87,1.28 -2.8,2 l 2.28,3.27 3.59,2 2.39,0.67 3.6,2 v 2 L 246.51,39 h -3 L 240,36.37 c -0.22,-3.1 -2.77,-2.61 -4.38,-3.28 -3.26,-1.36 -6.66,-2.31 -10,-3.42 a 14.44,14.44 0 0 0 3.08,-1.51 27.72,27.72 0 0 0 2.89,-3.16 z"
       id="path142" />
    <path
       class="cls-6"
       d="m 187.92,43.67 3,-1.32 11.5,-2.82 -1.35,5.47 -3,6 c -1.12,-0.76 -2.83,-1.25 -3.22,-2.33 -0.78,-2.15 -2,-2.43 -3.68,-2.38 -1.68,0.05 -3.28,-0.02 -3.25,-2.62 z"
       id="path144" />
    <path
       class="cls-1"
       d="m 198.09,51 c 1,-2 2,-4 3,-6 h 1.2 l -1,4.49 2.19,1.51 -1.79,1.32 -3.22,2.21 c -0.26,-0.6 -0.62,-1.4 -1,-2.2 0.22,-0.41 0.42,-0.86 0.62,-1.33 z"
       id="path146" />
    <path
       class="cls-6"
       d="m 203.48,51 -2.23,-1.52 c 0.36,-1.57 0.69,-3 1,-4.49 l 1.21,-3.33 c 2.4,-0.19 4.75,-2.74 7.19,-0.14 0.55,-0.68 1.65,-1.52 1.54,-2 -0.53,-2.51 0.6,-2.73 2.41,-3.31 2.58,-0.84 4.94,-2.52 7.39,-3.83 l 9.58,1.9 c -1.15,0.47 -2.29,1.28 -3.44,1.32 -2.73,0.08 -4.53,1.76 -6.06,3.88 A 26.61,26.61 0 0 0 220,43.71 c -0.34,0.73 -0.88,1.63 -0.74,2.29 0.11,0.48 1.17,0.84 1.85,1 1.5,0.32 3,0.48 4.55,0.71 v 0 L 220.83,49 c -0.87,0.14 -1.74,0.31 -2.61,0.4 -2.92,0.33 -5.84,0.62 -8.76,0.93 l -1,-1.21 -0.76,1.21 -3,0.67 z"
       id="path148" />
    <path
       class="cls-3"
       d="m 225.62,47.7 c -1.52,-0.23 -3.05,-0.39 -4.55,-0.71 -0.68,-0.15 -1.74,-0.51 -1.85,-1 -0.14,-0.66 0.4,-1.56 0.74,-2.29 a 26.61,26.61 0 0 1 2.14,-4.23 c 1.53,-2.12 3.33,-3.8 6.06,-3.88 1.15,0 2.29,-0.85 3.44,-1.32 l 6,2 a 18.27,18.27 0 0 1 -2.56,1.4 c -2.92,1.08 -5.64,4.45 -5.85,7.36 v 1.34 l -2.37,1.32 z"
       id="path150" />
    <path
       class="cls-5"
       d="m 222,32.38 c -2.45,1.31 -4.81,3 -7.39,3.83 -1.81,0.58 -2.94,0.8 -2.41,3.31 0.11,0.51 -1,1.35 -1.54,2 -2.44,-2.6 -4.79,0 -7.19,0.14 1,-1.49 1.86,-3 2.91,-4.44 0.79,-1 1.66,-2.49 2.69,-2.73 2,-0.45 2.26,-1.71 2.18,-3.49 z"
       id="path152" />
    <path
       class="cls-13"
       d="m 229.19,45 c 0.21,-2.91 2.93,-6.28 5.85,-7.36 a 18.27,18.27 0 0 0 2.56,-1.4 l 2.36,0.11 3.59,2.65 c -0.25,0.57 -0.4,1.51 -0.78,1.64 -4.49,1.57 -8.5,5.07 -13.58,4.36 z"
       id="path154" />
    <path
       class="cls-4"
       d="m 211.27,31 c 0.08,1.78 -0.18,3 -2.18,3.49 -1,0.24 -1.9,1.68 -2.69,2.73 -1.05,1.4 -1.94,3 -2.91,4.44 L 202.28,45 h -1.21 c 0.46,-1.84 0.91,-3.68 1.35,-5.48 l -11.5,2.82 c 0,-0.45 0,-0.89 0,-1.34 4.16,-1.3 8.78,-1.32 12,-5.34 3.59,-0.71 5.28,-3.66 4.18,-7.34 l 2.36,1.5 c 0.54,0.4 1.2,0.81 1.81,1.18 z"
       id="path156" />
    <path
       class="cls-5"
       d="m 178.36,146.51 0.6,0.67 -0.89,0.32 z"
       id="path158" />
    <path
       class="cls-8"
       d="m 335.7,144.52 -1.23,2.66 c -2.4,-0.48 -4.8,-0.9 -7.18,-1.46 a 36.76,36.76 0 0 1 -3.58,-1.21 l -0.6,-2 c 3,-0.68 3.83,-2.19 3,-5.34 v -1.34 a 49.52,49.52 0 0 0 0.45,-5.27 c -0.1,-5.31 -0.3,-10.63 -0.57,-15.93 0,-0.66 -0.84,-1.22 -1.08,-1.91 -0.58,-1.73 -1.91,-4.56 -1.4,-5.08 2.51,-2.58 1.3,-6 2.13,-8.82 0.53,-1.85 0.72,-3.82 1.07,-5.73 l 4.18,-1.34 c -0.08,0.32 -0.08,0.79 -0.26,0.92 -1.63,1.12 -3.17,2.11 -2.72,4.82 0.4,2.43 1.42,3.73 3.59,4.4 1.12,0.34 2,1.67 3,2.55 l 1.69,4.23 -2.46,3 5.06,1.73 c 0.13,1.2 0.31,2.81 0.5,4.43 -1.65,0.55 -4.38,-0.4 -4.12,3 0.23,3 -1.2,3.86 -3.6,4 0.85,3 1.24,5.64 -1.92,7.14 l 4.3,3 c -3.08,1.46 -4,3.26 -3.41,6.15 0.65,3.33 2.69,3.66 5.16,3.4 z"
       id="path160" />
    <path
       class="cls-2"
       d="m 323.71,144.51 a 36.76,36.76 0 0 0 3.58,1.21 c 2.38,0.56 4.78,1 7.18,1.46 -2.22,5.11 -4,10.56 -6.76,15.26 -3.26,5.51 -7.4,10.38 -11.15,15.53 -0.74,-1.46 -2.42,-3.48 -2,-4.27 a 19.5,19.5 0 0 1 4.72,-6.12 c 1.13,-1 1.61,-1.53 1.2,-3.11 a 22.13,22.13 0 0 1 -0.33,-3.94 c -2.06,-1.47 -4,-3.26 -6.23,-4.19 -0.61,-0.25 -2.47,1.84 -3.1,3.23 -2.84,6.28 -7.88,9.87 -12.8,13.66 -0.21,-0.67 -0.41,-1.35 -0.62,-2 1.75,-1.75 3.38,-3.66 5.26,-5.21 a 23.64,23.64 0 0 0 7.43,-10.36 c 1,-2.78 0.54,-5.34 -1.86,-7.15 -0.21,-0.87 -0.41,-1.75 -0.62,-2.63 l 3.56,2 1.21,3.33 c 0.84,4.74 5.17,3.34 7.36,5.75 l 1,-3.77 c 0.37,0.85 0.74,1.7 1.16,2.64 2.33,-0.67 4.62,-1.25 6.85,-2 0.61,-0.22 1.45,-1.15 1.42,-1.69 -0.06,-0.8 -0.75,-2.17 -1.25,-2.21 -3.13,-0.31 -4.09,-2.93 -5.21,-5.42 z"
       id="path162" />
    <path
       class="cls-6"
       d="m 308.64,31.7 9.91,10.54 -4.29,3.2 c -3.27,-0.71 -3.25,-0.71 -3.76,3.72 a 9.59,9.59 0 0 1 -0.56,1.85 h -0.58 c 0,-1.33 0,-2.66 0,-4 0,-1.34 0,-2.67 0,-4 0,-5.46 -0.28,-5.86 -5.21,-6.76 -3.37,-0.61 -6.88,-0.74 -8.42,-5.18 -0.15,-0.44 -1.57,-0.54 -2.37,-0.43 a 4.83,4.83 0 0 0 -2.75,1.09 c -1.9,2 -5.7,2.23 -5.17,6.6 0,0.22 0,0.44 0,0.66 h -1.2 a 13,13 0 0 1 0,-1.65 c 0.4,-2.85 -0.57,-4.4 -3.21,-3.64 a 59.88,59.88 0 0 0 -6.35,2.63 c -0.85,-5.67 -0.65,-6.17 4.61,-6.66 1.8,-0.17 3.69,0.84 5.54,1.3 0,0.23 0,0.45 0,0.67 l 0.74,1 L 286,31 v -1.32 c 1.91,-0.39 3.84,-0.7 5.73,-1.18 2.86,-0.73 5.6,-1.08 8,1.41 2.15,2.23 4.19,2 6.09,-0.44 l 1.72,1.47 z"
       id="path164" />
    <path
       class="cls-10"
       d="m 335.7,144.52 c -2.47,0.26 -4.51,-0.07 -5.19,-3.44 -0.59,-2.89 0.33,-4.69 3.41,-6.15 l -4.3,-3 c 3.16,-1.5 2.77,-4.19 1.92,-7.14 2.4,-0.18 3.83,-1 3.6,-4 -0.26,-3.37 2.47,-2.42 4.12,-3 h 2.11 a 81.66,81.66 0 0 1 -5.67,26.73 z"
       id="path166" />
    <path
       class="cls-13"
       d="m 320.11,160.53 a 22.13,22.13 0 0 0 0.33,3.94 c 0.41,1.58 -0.07,2.12 -1.2,3.11 a 19.5,19.5 0 0 0 -4.72,6.12 c -0.38,0.79 1.3,2.81 2,4.27 -0.38,0.43 -0.75,0.87 -1.12,1.3 -0.38,0 -0.93,0.29 -1.13,0.1 -2.9,-2.79 -6.24,-2.9 -9.74,-2.13 h -2.4 c 1.4,-0.9 2.83,-1.72 4.17,-2.71 1,-0.75 2.82,-1.85 2.73,-2.54 -0.49,-3.77 2.4,-4.22 4.07,-5.85 1.39,-1.36 2.71,-2.82 4.18,-4.07 a 15.36,15.36 0 0 1 2.83,-1.54 z"
       id="path168" />
    <path
       class="cls-2"
       d="m 323.7,49 c 0.6,0.9 1.19,1.81 1.79,2.72 l 0.42,0.57 Q 329,58 332,63.73 l -7.08,2.66 a 22.63,22.63 0 0 0 0.34,-2.94 c 0,-1.58 -0.19,-3.3 -2.19,-3 -2.32,0.29 -4,-0.37 -4.84,-3 -0.47,-1.49 -1.12,-2.92 -1.68,-4.37 2.76,0.23 4.7,-1.35 6.39,-3.55 0.16,-0.28 0.49,-0.35 0.76,-0.53 z"
       id="path170" />
    <path
       class="cls-3"
       d="m 323.7,49 c -0.27,0.15 -0.6,0.22 -0.78,0.45 -1.69,2.2 -3.63,3.78 -6.39,3.55 l -6.59,-2 a 9.59,9.59 0 0 0 0.56,-1.85 c 0.51,-4.43 0.49,-4.43 3.76,-3.72 l 4.29,-3.2 1,1 a 0.88,0.88 0 0 0 0.3,0.36 z"
       id="path172" />
    <path
       class="cls-3"
       d="m 304.57,177.24 c 3.5,-0.77 6.84,-0.66 9.74,2.13 0.2,0.19 0.75,-0.05 1.13,-0.1 l -9.59,9 a 26.82,26.82 0 0 0 -2.78,-3.19 18.64,18.64 0 0 0 -3.29,-1.87 c 2.51,-1.06 4.79,-2.38 4.79,-5.97 z"
       id="path174" />
    <path
       class="cls-3"
       d="m 324.9,66.39 7.1,-2.66 q 1.54,3.71 3.07,7.4 c -0.88,0.42 -1.75,1.19 -2.63,1.2 -2,0 -3.51,0.28 -3.43,3.17 0,0.5 -1.09,1 -1.68,1.58 -0.39,-1.42 -0.38,-3.46 -1.23,-4.14 -2.49,-1.94 -2.34,-4.03 -1.2,-6.55 z"
       id="path176" />
    <path
       class="cls-6"
       d="m 330.88,91.75 -4.18,1.34 -4.2,1.32 -2.21,-0.41 -0.07,-1 5.87,-2.62 c 2.89,-0.61 5.85,-1.1 7.2,-4.67 l 4.76,-4.67 1.77,8.07 c -1.76,0.32 -3.54,0.58 -5.3,1 a 17.94,17.94 0 0 0 -2.45,1 z"
       id="path178" />
    <path
       class="cls-5"
       d="m 305.85,29.46 c -1.9,2.43 -3.94,2.67 -6.09,0.44 -2.39,-2.49 -5.13,-2.14 -8,-1.41 -1.89,0.48 -3.82,0.79 -5.73,1.18 -0.15,-1.61 0.2,-2.35 1.91,-2.83 a 84.77,84.77 0 0 0 9.41,-3.78 z"
       id="path180" />
    <path
       class="cls-3"
       d="m 340.45,117.8 h -1.19 c -0.19,-1.62 -0.37,-3.23 -0.5,-4.43 l -5.06,-1.73 2.46,-3 -1.69,-4.23 h 1.79 l 4.79,2.67 0.47,7.29 -0.06,2.07 z"
       id="path182" />
    <path
       class="cls-9"
       d="M 327.31,77.08 C 327.9,76.55 329,76 329,75.5 c -0.08,-2.89 1.41,-3.15 3.43,-3.17 0.88,0 1.75,-0.78 2.63,-1.2 l 2.37,7.29 c -2.07,-0.77 -4.11,-1.26 -5.95,0.66 -1.48,-0.53 -4.39,2.83 -4.17,-2 z"
       id="path184" />
    <path
       class="cls-3"
       d="m 332.07,91.08 a 17.94,17.94 0 0 1 2.45,-1 c 1.76,-0.4 3.54,-0.66 5.3,-1 q 0.93,8.32 1.84,16.64 h -0.6 c -0.25,-2 0.14,-4.75 -0.87,-5.72 -1.78,-1.71 -1.24,-2.57 -0.33,-3.39 l -4.19,-2.24 c -0.49,-2 -1.35,-3.58 -3.6,-3.29 z"
       id="path186" />
    <path
       class="cls-4"
       d="M 297.36,23.06 A 84.77,84.77 0 0 1 288,26.84 c -1.71,0.48 -2.06,1.22 -1.91,2.83 L 286,31 l -1.18,0.67 c 0,-0.22 0,-0.44 0,-0.67 v -5.35 c 0.56,-0.2 1.13,-0.37 1.67,-0.61 2.09,-0.91 3.83,-3 6.46,-2.22 0.39,0.12 1.05,-0.83 1.59,-1.28 z"
       id="path188" />
    <path
       class="cls-10"
       d="m 331.47,79.08 c 1.84,-1.92 3.88,-1.43 5.95,-0.66 v 0 c 0,0.41 0,0.83 0,1.24 l 0.6,1.38 -4.76,4.67 c -2.71,-1.46 -1.52,-4.29 -1.79,-6.63 z"
       id="path190" />
    <path
       class="cls-10"
       d="m 341.06,105.78 h 0.6 c -0.05,2.87 -0.09,5.75 -0.14,8.62 q -0.22,-3.64 -0.47,-7.29 z"
       id="path192" />
    <path
       class="cls-8"
       d="m 340.45,117.8 1,-1.32 -0.09,1.31 z"
       id="path194" />
    <path
       class="cls-9"
       d="m 337.45,79.7 c 0,-0.41 0,-0.83 0,-1.24 -0.01,0.41 0,0.83 0,1.24 z"
       id="path196" />
    <path
       class="cls-5"
       d="m 308.64,31.7 -1.07,-0.77 z"
       id="path198" />
    <path
       class="cls-3"
       d="m 325.91,52.32 -0.42,-0.57 z"
       id="path200" />
    <path
       class="cls-6"
       d="m 319.85,43.64 a 0.88,0.88 0 0 1 -0.3,-0.36 l 0.25,0.08 z"
       id="path202" />
    <path
       class="cls-1"
       d="M 284.82,25.65 V 31 c -1.85,-0.46 -3.74,-1.47 -5.54,-1.3 -5.26,0.49 -5.46,1 -4.61,6.66 0,0.66 0,1.31 0,2 l -0.63,0.69 -1.8,-3.33 c -0.59,-0.9 -1.19,-1.79 -1.78,-2.68 l -0.61,-2 c 0.05,-1.44 0.15,-2.92 -1.8,-2.71 v 0 -2 L 273.46,25 v 4.64 c 1.83,-2.24 3.06,-5.05 4.85,-5.6 1.79,-0.55 4.32,0.96 6.51,1.61 z"
       id="path204" />
    <path
       class="cls-1"
       d="m 265.69,27 c -4.29,-0.22 -8.58,-0.35 -12.85,-0.72 -1.72,-0.14 -3.41,-1.25 -5.08,-1.18 -3.21,0.13 -6.39,0.8 -9.59,1.24 -0.27,-3.08 2.52,-2.05 3.59,-3.34 6.1,0.14 12.22,0.7 18.3,0.28 3.83,-0.28 4.31,-0.61 5.63,3.72 z"
       id="path206" />
    <path
       class="cls-6"
       d="m 252.52,28.33 c 1.33,-0.2 2.88,-1 3.94,-0.49 3.39,1.6 6.57,0.35 9.82,-0.18 l 1.79,0.68 v 0 l 1.2,2.67 c -2.85,-0.22 -5.72,-0.27 -8.54,-0.72 -2.82,-0.45 -5.48,-1.29 -8.21,-1.96 z"
       id="path208" />
    <path
       class="cls-4"
       d="m 273.46,25 -5.39,1.34 c -0.8,-2.84 -0.4,-3.51 2,-2.9 a 21.46,21.46 0 0 1 3.39,1.56 z"
       id="path210" />
    <path
       class="cls-15"
       d="m 239.36,190.58 1.8,-4.68 1.78,-1.33 c 2.33,0.64 6.7,-2 7.79,-4.67 3.54,-3.69 5.71,-4.44 6.84,-2.31 -1.65,0.57 -4.08,0.75 -3.07,3.61 1.01,2.86 2.83,0.9 4.26,0.23 1.81,-0.85 3.53,-2 5.36,-2.74 a 56,56 0 0 1 5.39,-1.68 15.17,15.17 0 0 1 3.77,-0.43 c 2.51,-0.22 5,-0.45 7.5,-0.87 2,-0.34 3.9,-0.9 3.52,-4.1 -0.14,-1.14 0.53,-2.4 0.92,-4 2.4,2.44 4.66,3.51 7.38,2.25 1,0.89 2,1.78 3,2.68 l -3,4.64 -2.32,2 c -2.85,0.29 -3.93,-1.5 -3.72,-4.78 l -1.15,0.23 -0.91,5.76 c -3.14,0.25 -6.46,0.41 -9.76,0.81 a 30.77,30.77 0 0 0 -4.5,1.25 c -0.74,0.21 -1.63,0.78 -2.2,0.52 -2.14,-1 -3.75,0.17 -4.59,1.88 -1.7,3.43 -3.77,3.32 -6.38,1.67 -0.83,-0.53 -1.73,-0.91 -2.64,-1.38 -2.15,5.31 -6.64,4.48 -10.43,5.28 a 22.84,22.84 0 0 1 -4.64,0.16 z"
       id="path212" />
    <path
       class="cls-8"
       d="m 304.57,177.24 c 0,3.59 -2.28,4.91 -4.79,6 -2.58,0.81 -5.08,1.09 -7.16,-1.35 0.4,-1.33 0.8,-2.66 1.19,-4 l 2.37,-2 c 1.33,4.14 3.75,2.22 6,1.34 z"
       id="path214" />
    <path
       class="cls-6"
       d="m 296.18,175.89 -2.37,2 -1.24,-0.7 3,-4.64 1.77,-1.36 c 0.21,0.67 0.41,1.35 0.62,2 z"
       id="path216" />
    <path
       class="cls-3"
       d="m 194.5,76.4 h -1.79 c -1.14,-1.7 -2.35,-3.35 -3.37,-5.14 a 2.8,2.8 0 0 1 -0.06,-2.23 c 1.71,-3 3,-6.71 7,-6.65 V 63 c 0.33,3.84 -1.09,8 1.81,11.36 l 3,6 -0.61,2 c -0.23,-0.93 -0.46,-1.87 -0.71,-2.79 -1.04,-3.69 -1.84,-4.18 -5.27,-3.17 z"
       id="path218" />
    <path
       class="cls-9"
       d="m 203.48,51 h 1.19 a 6.47,6.47 0 0 0 0.21,1.62 c 2,5.08 0.48,7.72 -4.42,7.73 h -3 c 0,-0.44 0,-0.89 0,-1.33 0.2,-0.67 0.39,-1.34 0.59,-2 l 3.6,-4.69 z"
       id="path220" />
    <path
       class="cls-5"
       d="m 180.08,93.12 5.64,-3.67 c 0.25,3.94 -1,4.91 -5.19,4.63 z"
       id="path222" />
    <path
       class="cls-1"
       d="m 196.3,63 v -0.66 l 1.18,-2 v 0 c 0,0.88 0,1.77 0,2.65 z"
       id="path224" />
    <path
       class="cls-1"
       d="m 198.09,57 c -0.2,0.67 -0.39,1.34 -0.59,2 -0.12,-0.75 -0.23,-1.5 -0.35,-2.26 z"
       id="path226" />
    <path
       class="cls-9"
       d="m 181.34,112.46 v -2 l 1.09,1.16 z"
       id="path228" />
    <path
       class="cls-16"
       d="m 238.77,145.18 -5.39,2.67 c -1.93,-0.3 -3.86,-0.6 -5.79,-0.92 -0.29,-0.05 -0.63,-0.39 -0.83,-0.29 -4,2 -6.41,-1.4 -9.28,-3.32 a 6.47,6.47 0 0 1 -3.24,-6.15 14.65,14.65 0 0 0 0.23,-3.27 16.75,16.75 0 0 0 -1.22,-3.93 c -0.77,-1.8 -2.13,-3.41 -2.46,-5.27 -0.49,-2.82 2.07,-4.86 4.36,-3.68 3.54,1.84 7,3.86 10.54,5.72 a 7.87,7.87 0 0 0 2.3,0.41 c 3.26,-0.59 6.52,-1.17 9.78,-1.79 1.33,-0.25 2.65,-0.58 4,-0.88 -0.94,1.31 -1.7,3.41 -2.87,3.76 -3.25,1 -4.64,3.9 -6.43,6.41 a 5.09,5.09 0 0 0 -0.76,3.31 c 0.46,2.87 4.21,5.82 7.07,5.88 z"
       id="path230" />
    <path
       class="cls-12"
       d="m 228,127.15 a 7.87,7.87 0 0 1 -2.3,-0.41 c -3.54,-1.86 -7,-3.88 -10.54,-5.72 -2.29,-1.18 -4.85,0.86 -4.36,3.68 0.33,1.86 1.69,3.47 2.46,5.27 a 16.75,16.75 0 0 1 1.22,3.93 14.65,14.65 0 0 1 -0.23,3.27 l -4.19,-2 c -0.39,-3.26 -0.79,-6.53 -1.19,-9.79 -0.12,-1 0,-2.15 -0.4,-2.91 -1.29,-2.25 -0.33,-3.6 1,-5.15 a 5,5 0 0 0 1.43,-3.26 c -0.49,-3.89 -1.94,-7.72 -1.9,-11.56 0.04,-3.84 0.22,-7.22 -4.06,-8.18 -0.13,0 -0.21,-0.36 -0.31,-0.55 0.05,-2.46 -1.15,-5.38 2,-6.71 a 0.71,0.71 0 0 0 0.2,-0.59 c -0.57,-3.32 1.69,-2.46 3.19,-2.72 l 1.2,2 1.2,8.68 c 0,5.93 1.35,7.42 4.78,5.34 v 5 c 0,3.52 1.16,4.85 4.35,5 a 17.61,17.61 0 0 0 1.78,0 c 1.67,-0.07 2.33,0.9 2.25,2.67 l 1.79,8.68 q 0.33,3.04 0.63,6.03 z"
       id="path232" />
    <path
       class="cls-15"
       d="m 204.67,93.76 c 0.1,0.19 0.18,0.52 0.31,0.55 4.28,1 4.1,4.21 4.06,8.18 -0.04,3.97 1.41,7.67 1.9,11.56 a 5,5 0 0 1 -1.43,3.26 c -1.38,1.55 -2.34,2.9 -1,5.15 0.43,0.76 0.28,1.93 0.4,2.91 0.4,3.26 0.8,6.53 1.19,9.79 -3,3.54 -2.56,7.8 -1.88,12.48 l -2.9,0.21 a 9,9 0 0 0 -1,-2.64 c -3,-3.74 -2.84,-6.75 1.09,-9.68 L 199,126.67 c -0.25,-0.34 -0.7,-0.77 -0.65,-1.08 0.77,-5.06 1.29,-10.21 2.54,-15.12 0.71,-2.79 2.63,-5.2 4,-7.78 l -0.61,-0.6 h 3.41 l -4.26,-4.32 c -0.21,-0.89 -0.41,-1.78 -0.61,-2.67 z"
       id="path234" />
    <path
       class="cls-2"
       d="m 213.05,165.21 c -0.71,-0.25 -1.74,-0.26 -2.07,-0.8 a 12,12 0 0 1 -0.92,-3.22 z"
       id="path236" />
    <path
       class="cls-17"
       d="m 292.6,169.89 c -2.72,1.26 -5,0.19 -7.38,-2.25 -0.39,1.57 -1.06,2.83 -0.92,4 0.38,3.2 -1.51,3.76 -3.52,4.1 -2.48,0.42 -5,0.65 -7.5,0.87 a 15.17,15.17 0 0 0 -3.77,0.43 56,56 0 0 0 -5.39,1.68 c -1.83,0.76 -3.55,1.89 -5.36,2.74 -1.43,0.67 -3.27,2.53 -4.26,-0.23 -0.99,-2.76 1.42,-3 3.07,-3.61 -1.13,-2.13 -3.3,-1.38 -6.84,2.31 l -2.39,1.33 -1.8,-7.34 c 3,-3.78 6.6,-6.3 11.37,-6 l 0.6,0.67 4.18,2.67 c 4.41,-2.55 8.79,-5.17 13.24,-7.63 2.5,-1.38 5.13,-2.49 7.7,-3.73 0.78,1 2,1.8 2.25,2.91 a 6.06,6.06 0 0 0 5.29,5.21 c 0.56,0.06 0.96,1.2 1.43,1.87 z"
       id="path238" />
    <path
       class="cls-16"
       d="m 257.91,167.88 c -4.77,-0.29 -8.33,2.23 -11.37,6 -1.72,-2.95 -3.5,-5.87 -5.15,-8.87 -1.34,-2.45 -1.79,-4.87 0.51,-7.13 0.6,-0.59 0.72,-1.77 1.07,-2.68 1,-0.56 2,-1.05 2.95,-1.69 0.95,-0.64 2,-1.54 3,-2.33 -0.5,0.92 -1,1.86 -1.49,2.74 -1.25,2 -0.83,3.76 1.22,4.34 4.75,1.34 6.61,5.91 9.26,9.62 z"
       id="path240" />
    <path
       class="cls-18"
       d="m 242.36,153.86 c -2.57,-0.82 -5.43,-1 -7.3,-4.34 1.68,-0.82 3.26,-1.47 4.71,-2.37 0.6,-0.38 0.93,-1.3 1.39,-2 2.32,-1.32 4.6,-2.76 7,-3.88 0.68,-0.31 1.7,0.34 2.57,0.54 v 0.67 a 17.27,17.27 0 0 0 -3.53,1.5 15.8,15.8 0 0 0 -2.44,2.74 l 2.38,2.44 -4.14,4.68 z"
       id="path242" />
    <path
       class="cls-14"
       d="m 243,153.84 4.19,-4.65 4.19,-0.67 a 30.09,30.09 0 0 0 16.15,-4.69 h 1.19 v 2 l -9,4 -10.76,1.34 c -1,0.79 -2,1.63 -3,2.33 -1,0.7 -2,1.13 -2.95,1.69 C 243,154.75 243,154.3 243,153.84 Z"
       id="path244" />
    <path
       class="cls-8"
       d="m 248.34,181.23 2.39,-1.33 c -1.09,2.68 -5.46,5.31 -7.79,4.67 z"
       id="path246" />
    <path
       class="cls-19"
       d="m 250.73,141.84 c -0.87,-0.2 -1.89,-0.85 -2.57,-0.54 -2.4,1.12 -4.68,2.56 -7,3.88 h -2.39 v -1.34 l 6,-3.34 h 1.19 l 2.4,-0.66 a 34.92,34.92 0 0 0 4.08,-1.61 c 2.26,-1.23 4.43,-2.66 6.64,-4 l 0.75,1.45 z"
       id="path248" />
    <path
       class="cls-13"
       d="m 204.67,93.76 -1.8,1.34 c -2.38,-0.31 -3.89,-2.58 -3.52,-5.56 0.26,-2.17 0.75,-4.31 1.13,-6.46 v -0.66 c 0.21,-0.67 0.41,-1.34 0.61,-2 3.5,-0.78 1.22,-3.67 1.61,-5.58 0.31,-1.51 0.14,-4.13 0.79,-4.4 2.91,-1.19 5.45,-2.21 4.28,-6.56 0,-0.14 0.15,-0.41 0.29,-0.55 2.91,-2.94 5.9,-5.42 10.27,-4.53 a 3.81,3.81 0 0 0 3.29,-1.71 c 1.56,-3 2.69,-6.22 4,-9.37 v 0 h 1.19 v 0 l 0.47,1 0.73,-1 1.18,-0.67 3.61,-0.65 c -0.56,1 -1.07,2 -1.68,3 -1.1,1.7 -2.74,3.17 -3.29,5 -1.88,6.5 -6.11,9.68 -11.64,11.41 -0.66,0.2 -1.19,1 -1.74,1.51 a 29.25,29.25 0 0 1 -3.54,3.58 c -2.37,1.63 -4.73,6.48 -4.4,9.91 0.35,3.69 3.22,-0.34 4.16,1.64 0,0.22 0,0.44 0,0.66 l -0.6,0.66 c -1.5,0.26 -3.76,-0.6 -3.19,2.72 a 0.71,0.71 0 0 1 -0.2,0.59 c -3.16,1.3 -1.96,4.22 -2.01,6.68 z"
       id="path250" />
    <path
       class="cls-8"
       d="m 200.48,82.42 v 0.66 a 14.67,14.67 0 0 0 -1.73,2.67 24.51,24.51 0 0 0 -0.87,3.75 c -4.93,-3.38 -3,-8.57 -3.38,-13.1 3.43,-1 4.23,-0.52 5.27,3.23 0.23,0.92 0.48,1.86 0.71,2.79 z"
       id="path252" />
    <path
       class="cls-8"
       d="m 272.25,35.68 1.8,3.33 v 2.65 c -2.13,-0.75 -4.26,-1.52 -6.4,-2.23 -1.85,-0.62 -3.72,-1.18 -5.59,-1.76 -4.09,-2.59 -8.34,-1.15 -12.56,-0.66 l -2.39,-0.67 c 0.94,-0.69 1.9,-1.35 2.82,-2.08 0.92,-0.73 2.11,-1.72 3.16,-2.59 h 3 c 0.64,0.67 1.18,1.66 1.94,2 4.61,1.82 9.4,2.04 14.22,2.01 z"
       id="path254" />
    <path
       class="cls-9"
       d="m 256.11,31.67 h -3 c -0.7,-0.28 -1.53,-1 -2.07,-0.76 -2.55,1 -5,2.26 -7.5,3.42 l -2.28,-3.27 c 0.93,-0.68 1.8,-1.79 2.8,-2 2.79,-0.47 5.63,-0.54 8.45,-0.77 2.73,0.66 5.44,1.51 8.2,2 2.76,0.49 5.69,0.5 8.54,0.72 h 0.6 c 0.2,0.65 0.41,1.3 0.61,2 -0.92,-0.07 -1.85,-0.06 -2.76,-0.2 -2,-0.33 -4,-0.87 -6.1,-1.08 a 53.09,53.09 0 0 0 -5.49,-0.06 z"
       id="path256" />
    <path
       class="cls-2"
       d="m 232.79,46.36 -3.61,0.65 c 0,-0.22 0,-0.43 0,-0.65 V 45 c 5.08,0.69 9.09,-2.81 13.58,-4.38 0.38,-0.13 0.53,-1.07 0.78,-1.64 h 3 l 7.2,5.38 -1.18,1.32 a 25.48,25.48 0 0 1 -4.48,-2.59 c -1.8,-1.55 -3.38,-1.45 -5.1,-0.08 z"
       id="path258" />
    <path
       class="cls-3"
       d="m 253.12,41 c 0,-0.68 0,-1.35 0,-2 l 5.37,2 a 57.19,57.19 0 0 0 6.24,3.67 c 2.83,1.22 5.8,2 8.71,3 0,0.88 0,1.76 0,2.64 -2.14,-0.85 -4.3,-1.67 -6.43,-2.57 -4.24,-1.78 -8.47,-3.61 -12.71,-5.41 z"
       id="path260" />
    <path
       class="cls-15"
       d="m 258.5,41 -5.37,-2 -3.6,-2 c 4.22,-0.49 8.47,-1.93 12.56,0.66 z"
       id="path262" />
    <path
       class="cls-3"
       d="m 243.55,34.33 c 2.49,-1.16 4.95,-2.41 7.5,-3.42 0.54,-0.21 1.37,0.48 2.07,0.76 -1.05,0.87 -2.09,1.75 -3.16,2.59 -1.07,0.84 -1.88,1.39 -2.82,2.08 z"
       id="path264" />
    <path
       class="cls-12"
       d="m 253.12,41 1.2,1.33 -0.6,2 v 0 L 246.51,39 Z"
       id="path266" />
    <path
       class="cls-8"
       d="m 225.61,47.71 c -1.3,3.15 -2.43,6.4 -4,9.37 a 3.81,3.81 0 0 1 -3.29,1.71 c -4.37,-0.89 -7.36,1.59 -10.27,4.53 -0.14,0.14 -0.32,0.41 -0.29,0.55 1.17,4.35 -1.37,5.37 -4.28,6.56 -0.65,0.27 -0.48,2.89 -0.79,4.4 -0.39,1.91 1.89,4.8 -1.61,5.58 l -3,-6 -0.6,-6 6.82,-1.06 c 0.38,-1.58 0.31,-3.5 1.11,-4.24 2.13,-2 2.33,-4.32 2.39,-7 0,-0.45 2,-1.47 2.25,-1.2 2.79,2.55 5.65,1 8.67,0.51 L 220.83,49 Z"
       id="path268" />
    <path
       class="cls-3"
       d="m 220.83,49 -2.08,6.35 c -3,0.48 -5.88,2 -8.67,-0.51 -0.29,-0.27 -2.24,0.75 -2.25,1.2 -0.06,2.71 -0.26,5.07 -2.39,7 -0.8,0.74 -0.73,2.66 -1.11,4.24 l -6.82,1.06 v -5.37 c 0,-0.88 0,-1.77 0,-2.65 h 3 c 4.9,0 6.41,-2.65 4.42,-7.73 a 6.47,6.47 0 0 1 -0.21,-1.62 l 3,-0.67 h 1.8 c 2.92,-0.31 5.84,-0.6 8.76,-0.93 0.81,-0.03 1.72,-0.2 2.55,-0.37 z"
       id="path270" />
    <path
       class="cls-1"
       d="m 209.46,50.36 h -1.8 l 0.76,-1.21 z"
       id="path272" />
    <path
       class="cls-6"
       d="m 229.18,46.36 c 0,0.22 0,0.43 0,0.65 L 228,47.68 h -1.19 z"
       id="path274" />
    <path
       class="cls-12"
       d="m 326.09,90.42 -5.87,2.58 0.07,1 2.21,0.38 a 11,11 0 0 1 0.3,2.51 c -0.38,3.49 -1.77,7.2 -1.13,10.42 1.21,6.15 0.21,12.73 2.89,18.57 0.22,0.47 -0.09,1.26 -0.19,1.89 -0.36,2.35 -0.74,4.7 -1.12,7.09 l 2.85,0.94 v 1.34 q -1.8,1.67 -3.59,3.34 c -2.41,-0.46 -2.65,1.51 -3,3.34 l -1.79,-0.67 c -0.55,-1.91 -1,-3.86 -1.69,-5.71 a 29.31,29.31 0 0 0 -1.9,-3.64 l 5.27,1.23 c 0.75,-3.83 2.78,-7.78 0.76,-12.71 a 24,24 0 0 1 -1.89,-12 c 0.56,-4.71 0.73,-9.47 1.06,-14.07 l -5.15,1.45 v -2.63 h 1.75 c 2.58,-0.38 3,-2.88 3.52,-4.93 A 2.91,2.91 0 0 0 317,86.32 c -0.27,-0.06 -0.33,-1.24 -0.49,-1.91 l 2.38,-1.33 c 0.57,0.26 1.15,0.79 1.69,0.73 a 33.59,33.59 0 0 0 4,-0.86 z"
       id="path276" />
    <path
       class="cls-15"
       d="m 326.1,135.83 -2.85,-0.94 c 0.38,-2.39 0.76,-4.74 1.12,-7.09 0.1,-0.63 0.41,-1.42 0.19,-1.89 -2.68,-5.84 -1.68,-12.42 -2.89,-18.57 -0.64,-3.22 0.75,-6.93 1.13,-10.42 a 11,11 0 0 0 -0.3,-2.51 l 4.2,-1.32 c -0.35,1.91 -0.54,3.88 -1.07,5.73 -0.83,2.86 0.38,6.24 -2.13,8.82 -0.51,0.52 0.82,3.35 1.4,5.08 0.24,0.69 1.05,1.25 1.08,1.91 0.27,5.3 0.47,10.62 0.57,15.93 a 49.52,49.52 0 0 1 -0.45,5.27 z"
       id="path278" />
    <path
       class="cls-11"
       d="m 319.51,143.85 c 0.35,-1.83 0.59,-3.8 3,-3.34 l 0.6,2 0.6,2 c 1.12,2.5 2.08,5.11 5.18,5.36 0.5,0 1.19,1.41 1.25,2.21 0,0.54 -0.81,1.47 -1.42,1.69 -2.23,0.79 -4.52,1.37 -6.85,2 -0.42,-0.94 -0.79,-1.79 -1.16,-2.64 l -1.2,-5.33 z"
       id="path280" />
    <path
       class="cls-13"
       d="m 332.07,91.08 c 2.25,-0.29 3.11,1.29 3.6,3.35 a 2.39,2.39 0 0 0 -3.79,1.6 c -0.28,1.24 0.56,3 1.27,4.26 a 35.73,35.73 0 0 0 3.11,4.16 h -1.79 c -1,-0.88 -1.86,-2.21 -3,-2.55 -2.17,-0.67 -3.19,-2 -3.59,-4.4 -0.45,-2.71 1.09,-3.7 2.72,-4.82 0.18,-0.13 0.18,-0.6 0.26,-0.92 z"
       id="path282" />
    <path
       class="cls-15"
       d="m 323.11,142.51 -0.6,-2 q 1.78,-1.68 3.59,-3.34 c 0.84,3.15 0,4.66 -2.99,5.34 z"
       id="path284" />
    <path
       class="cls-20"
       d="m 248.94,151.19 10.76,-1.34 c 0.54,1.81 0.69,4 1.71,5.34 1.64,2.16 3.86,3.78 6.29,6.05 a 8,8 0 0 0 1.46,-2 c 1.54,-3.47 3.56,-4.47 6.93,-3.38 1.11,0.35 2.71,1 3.38,0.45 2.5,-2.08 4.45,-1.69 6.66,1.76 0.24,-1.75 0.37,-2.62 0.49,-3.5 a 34.28,34.28 0 0 0 2.11,-3.48 c 1,-2.14 1.79,-4.36 2.67,-6.55 l 0.6,1.35 a 22.18,22.18 0 0 0 -0.44,3.23 c 0,0.91 0,2.29 0.54,2.64 2,1.4 3.91,3 6.56,1.48 2.65,-1.52 1.09,-3.67 0.71,-5.47 l 6.4,-5.89 1.8,4 c 0.21,0.88 0.41,1.76 0.62,2.63 -0.6,1.93 -1.68,3.86 -1.68,5.78 0,2.77 -1.36,3.57 -3.21,4.33 -1.85,0.76 -3.52,2 -5.38,2.4 -2.52,0.56 -5.2,0.31 -7.73,0.87 -1.75,0.39 -3,0.54 -4,-1.41 -0.31,-0.57 -1.66,-0.42 -2.53,-0.6 -2.57,1.24 -5.2,2.35 -7.7,3.73 -4.45,2.46 -8.83,5.08 -13.24,7.63 -0.49,-2.65 -2.36,-2.63 -4.18,-2.67 l -0.6,-0.67 c -2.65,-3.71 -4.51,-8.28 -9.24,-9.61 -2,-0.58 -2.47,-2.29 -1.22,-4.34 0.52,-0.9 0.96,-1.84 1.46,-2.76 z"
       id="path286" />
    <path
       class="cls-16"
       d="m 283.63,159.86 c 0.87,0.18 2.22,0 2.53,0.6 1.07,1.95 2.28,1.8 4,1.41 2.53,-0.56 5.21,-0.31 7.73,-0.87 1.86,-0.42 3.56,-1.65 5.38,-2.4 1.82,-0.75 3.21,-1.56 3.21,-4.33 0,-1.92 1.08,-3.85 1.68,-5.78 2.4,1.81 2.85,4.37 1.86,7.15 a 23.64,23.64 0 0 1 -7.4,10.36 c -1.88,1.55 -3.51,3.46 -5.26,5.21 l -1.77,1.36 c -1,-0.9 -2,-1.79 -3,-2.68 -0.47,-0.67 -0.87,-1.81 -1.43,-1.91 a 6.06,6.06 0 0 1 -5.29,-5.21 c -0.24,-1.11 -1.46,-1.95 -2.24,-2.91 z"
       id="path288" />
    <path
       class="cls-11"
       d="m 296.18,175.89 1.8,-2.66 c 4.92,-3.79 10,-7.38 12.8,-13.66 0.63,-1.39 2.49,-3.48 3.1,-3.23 2.23,0.93 4.17,2.72 6.23,4.19 a 15.36,15.36 0 0 0 -2.79,1.53 c -1.47,1.25 -2.79,2.71 -4.18,4.07 -1.67,1.63 -4.56,2.08 -4.07,5.85 0.09,0.69 -1.71,1.79 -2.73,2.54 -1.34,1 -2.77,1.81 -4.17,2.71 -2.24,0.88 -4.66,2.77 -5.99,-1.34 z"
       id="path290" />
    <path
       class="cls-12"
       d="m 307.57,145.86 -1.8,-4 c -0.6,-2.23 -1.2,-4.45 -1.79,-6.68 -0.21,-3.12 -0.42,-6.23 -0.62,-9.35 h 1.2 c 0.6,2.49 1.12,5 1.82,7.46 0.7,2.46 1.57,4.83 2.36,7.24 0.6,1.56 1.2,3.11 1.81,4.67 l 0.58,2.68 z"
       id="path292" />
    <path
       class="cls-16"
       d="m 311.13,147.86 c -0.19,-0.89 -0.39,-1.79 -0.58,-2.68 l 7.17,-2 1.79,0.67 v 4 l -7.17,3.35 z"
       id="path294" />
    <path
       class="cls-14"
       d="m 312.34,151.19 7.17,-3.35 1.2,5.33 -1,3.77 c -2.2,-2.41 -6.53,-1.01 -7.37,-5.75 z"
       id="path296" />
    <path
       class="cls-13"
       d="M 326.09,90.42 324.58,83 a 33.59,33.59 0 0 1 -4,0.86 c -0.54,0.06 -1.12,-0.47 -1.69,-0.73 0.21,-0.67 0.41,-1.33 0.61,-2 1.28,-0.42 2.55,-0.93 3.85,-1.23 2.67,-0.62 2.29,-1.73 1,-3.87 a 19.49,19.49 0 0 1 -2.91,-7.44 c -0.36,-3 0,-6 -3.92,-5.59 -0.28,0 -0.59,-0.49 -0.91,-0.7 -1.14,-0.77 -2.29,-1.51 -3.45,-2.26 l -1.44,4.39 c -0.28,-1.16 -0.94,-2.38 -0.78,-3.45 0.67,-4.33 -0.16,-7.21 -2.81,-8.57 L 307.55,51 h 2.39 l 6.59,2 c 0.56,1.45 1.21,2.88 1.68,4.37 0.83,2.64 2.52,3.3 4.84,3 2,-0.26 2.16,1.46 2.19,3 a 22.63,22.63 0 0 1 -0.34,2.94 c -1.14,2.52 -1.29,4.62 1.18,6.55 0.85,0.68 0.84,2.72 1.23,4.14 -0.22,4.83 2.72,1.47 4.16,2 0.27,2.34 -0.92,5.17 1.82,6.67 -1.35,3.65 -4.29,4.14 -7.2,4.75 z"
       id="path298" />
    <path
       class="cls-3"
       d="m 285.43,38.35 c -0.53,-4.37 3.27,-4.59 5.17,-6.6 a 4.83,4.83 0 0 1 2.75,-1.09 c 0.8,-0.11 2.22,0 2.37,0.43 1.54,4.44 5,4.57 8.42,5.18 4.93,0.9 5.21,1.3 5.21,6.76 0,1.33 0,2.66 0,4 -0.27,-0.12 -0.69,-0.16 -0.8,-0.38 a 13.57,13.57 0 0 0 -5.87,-5.37 44.21,44.21 0 0 0 -4.2,-1.62 c -4.3,-1.04 -8.43,-4.31 -13.05,-1.31 z"
       id="path300" />
    <path
       class="cls-8"
       d="m 285.43,38.35 c 4.62,-3 8.75,0.27 13,1.31 a 44.21,44.21 0 0 1 4.2,1.62 13.57,13.57 0 0 1 5.87,5.37 c 0.11,0.22 0.53,0.26 0.8,0.38 0,1.33 0,2.66 0,4 h -1.81 c -1.71,-1.63 -3.43,-3.24 -5.13,-4.87 -0.58,-0.55 -1.07,-1.61 -1.66,-1.67 C 295.46,44 290.32,41 284.83,43 v 0 l 0.6,-4 c -0.01,-0.21 0,-0.43 0,-0.65 z"
       id="path302" />
    <path
       class="cls-8"
       d="m 274.68,38.32 c 0,-0.66 0,-1.31 0,-2 a 59.88,59.88 0 0 1 6.32,-2.6 c 2.64,-0.76 3.61,0.79 3.21,3.64 a 13,13 0 0 0 0,1.65 c -0.44,1.46 -1.6,3 0.6,4 v 0 l -0.6,2.67 -0.53,1.83 h -0.74 c -0.18,-1.1 -0.37,-2.19 -0.55,-3.29 -0.54,-3.25 -3,-4.08 -5.38,-1.82 q -1.16,-2.05 -2.33,-4.08 z"
       id="path304" />
    <path
       class="cls-3"
       d="m 284.82,43 c -2.2,-1 -1,-2.54 -0.6,-4 h 1.2 z"
       id="path306" />
    <path
       class="cls-1"
       d="M 284.83,31.66 286,31 c -0.14,0.56 -0.29,1.11 -0.44,1.67 z"
       id="path308" />
    <path
       class="cls-2"
       d="m 336.26,104.45 a 35.73,35.73 0 0 1 -3.11,-4.16 c -0.71,-1.27 -1.55,-3 -1.27,-4.26 a 2.39,2.39 0 0 1 3.79,-1.6 l 4.19,2.24 c -0.91,0.82 -1.45,1.68 0.33,3.39 1,1 0.62,3.76 0.87,5.72 0,0.45 0,0.89 0,1.34 z"
       id="path310" />
    <path
       class="cls-3"
       d="m 256.11,31.67 a 53.09,53.09 0 0 1 5.5,0 c 2.05,0.21 4.06,0.75 6.1,1.08 0.91,0.14 1.84,0.13 2.76,0.2 0.59,0.89 1.19,1.78 1.78,2.68 -4.82,0 -9.61,-0.19 -14.2,-2 -0.76,-0.3 -1.3,-1.29 -1.94,-1.96 z"
       id="path312" />
    <path
       class="cls-6"
       d="m 274.68,38.32 q 1.17,2 2.35,4 l 0.6,4.63 h -2.36 l -1.19,-5.36 v -2.65 z"
       id="path314" />
    <path
       class="cls-7"
       d="m 269.86,31 h -0.6 l -1.2,-2.67 c 1.94,-0.21 1.85,1.27 1.8,2.67 z"
       id="path316" />
    <path
       class="cls-6"
       d="m 197.48,63 v 5.37 l 0.6,6 c -2.9,-3.34 -1.48,-7.52 -1.81,-11.36 z"
       id="path318" />
    <path
       class="cls-17"
       d="m 228,127.15 q -0.28,-3 -0.59,-6 c 1.87,0.22 3.79,0.82 5.59,0.54 2.21,-0.34 5.73,-5 5,-6.61 -1,-2.37 -2.55,-4.93 -4.49,-6.16 -1.23,-0.78 -3.66,0.51 -5.44,1.23 -1,0.39 -1.66,1.52 -2.47,2.32 0.08,-1.77 -0.58,-2.74 -2.25,-2.67 a 17.61,17.61 0 0 1 -1.78,0 c -3.19,-0.18 -4.34,-1.51 -4.35,-5 v -5 c 2.27,-4.9 9.64,-7.63 14.36,-5.36 1.15,0.55 2.39,0.91 3.58,1.35 1.22,1.83 1.78,4.32 4.85,3.69 0.95,-0.19 3,2 3.4,3.53 1.32,4.66 2.13,9.52 3.1,14.31 0.9,4.42 -2.29,5.53 -4.77,7.19 -1.33,0.3 -2.65,0.63 -4,0.88 -3.23,0.61 -6.49,1.17 -9.74,1.76 z"
       id="path320" />
    <path
       class="cls-20"
       d="m 241.75,124.48 c 2.48,-1.66 5.67,-2.77 4.77,-7.19 -1,-4.79 -1.78,-9.65 -3.1,-14.31 -0.43,-1.51 -2.45,-3.72 -3.4,-3.53 -3.07,0.63 -3.63,-1.86 -4.85,-3.69 a 35.53,35.53 0 0 0 0.52,-3.54 c 0.08,-1.85 0.38,-3.34 2.48,-3.13 2.63,1.25 5.24,2.55 7.89,3.74 2.65,1.19 4.67,2.59 4.07,6.27 v 3.34 c -4.32,5.08 -3.5,11.34 1.13,14.65 a 5,5 0 0 1 2.09,5.89 20.1,20.1 0 0 1 -2.67,5.44 12.17,12.17 0 0 1 -3.56,3.45 c -2.13,1.31 -3.65,6.24 -2.37,8.63 l -6,3.34 c -2.86,-0.06 -6.61,-3 -7.07,-5.88 a 5.09,5.09 0 0 1 0.76,-3.31 c 1.79,-2.51 3.18,-5.44 6.43,-6.41 1.18,-0.35 1.94,-2.45 2.88,-3.76 z"
       id="path322" />
    <path
       class="cls-14"
       d="m 243,43 c 1.72,-1.37 3.3,-1.47 5.1,0.08 a 25.48,25.48 0 0 0 4.48,2.59 v 0.66 c -1.94,1.69 -5.22,3.09 -5.56,5.12 a 11.36,11.36 0 0 1 -5.54,8.43 c -0.15,0.1 -0.19,0.39 -0.31,0.57 -3.35,5.14 -3.35,5.14 2.43,7.26 0.09,0.31 0.11,0.82 0.29,0.9 4.92,2.18 9.58,5.51 15.26,4.43 v 0.68 c -2.42,1.18 -4.79,1.64 -7.35,0.28 a 49.31,49.31 0 0 0 -5.81,-2.28 17,17 0 0 1 -3.22,-2 c -4.85,-4.71 -9.95,-3 -11.73,4 -1.32,1.87 -3.14,3.53 -3.85,5.65 -1.13,3.42 -1.91,4.3 -5.07,3.88 -0.93,-0.12 -2.42,0.24 -2.82,1 a 50.42,50.42 0 0 0 -3.3,7.54 c -0.67,1.94 -1.64,2.95 -3.53,2.64 l -1.2,-8.68 -0.6,-2.67 c 0,-0.22 0,-0.44 0,-0.66 l 5.18,-1.59 -0.16,-0.88 -4.42,0.27 a 39.81,39.81 0 0 1 3.61,-5.41 21.8,21.8 0 0 1 5.31,-4.33 c 2.76,-1.49 5.51,-2 6.74,-6.31 0.85,-3 2.05,-7 6,-8 a 3.18,3.18 0 0 0 1.42,-2.59 c -0.64,-2.75 0.78,-3.09 2.54,-4.15 C 239.26,48 243.82,48.5 243,43 Z"
       id="path324" />
    <path
       class="cls-16"
       d="m 212.45,94.43 c 1.89,0.31 2.86,-0.7 3.53,-2.64 a 50.42,50.42 0 0 1 3.27,-7.56 c 0.4,-0.72 1.89,-1.08 2.82,-1 3.16,0.42 3.94,-0.46 5.07,-3.88 0.71,-2.12 2.53,-3.78 3.85,-5.65 1.39,1.84 2.58,3.61 2.6,6.35 0,1.39 0.58,3.71 3,3.78 0.75,0 1.48,1.22 2.21,1.88 l -0.59,3.34 c -2.1,-0.21 -2.4,1.28 -2.48,3.13 a 35.53,35.53 0 0 1 -0.52,3.54 c -1.19,-0.44 -2.43,-0.8 -3.58,-1.35 -4.72,-2.27 -12.09,0.46 -14.36,5.36 -3.47,2.12 -4.81,0.63 -4.82,-5.3 z"
       id="path326" />
    <path
       class="cls-15"
       d="m 225.61,112.46 c 0.81,-0.8 1.52,-1.93 2.47,-2.32 1.78,-0.72 4.21,-2 5.44,-1.23 1.94,1.23 3.48,3.79 4.49,6.16 0.71,1.65 -2.81,6.27 -5,6.61 -1.8,0.28 -3.72,-0.32 -5.59,-0.54 -0.62,-2.89 -1.22,-5.79 -1.81,-8.68 z m 9.57,2.61 c 0,-2.92 -1.13,-4.06 -3.92,-3.94 -2.79,0.12 -3.2,3 -3,4.84 0.12,1.51 1.93,3.76 3.26,4 2.54,0.54 3.69,-1.41 3.66,-4.9 z"
       id="path328" />
    <path
       class="cls-16"
       d="m 210.65,83.08 0.6,2.67 -1.2,-2 z"
       id="path330" />
    <path
       class="cls-16"
       d="m 258.51,168.55 c 1.82,0 3.69,0 4.18,2.67 z"
       id="path332" />
    <path
       class="cls-21"
       d="m 250.73,141.84 9.08,-6.17 -0.75,-1.45 c -2.21,1.35 -4.38,2.78 -6.64,4 a 34.92,34.92 0 0 1 -4.08,1.61 v -2.67 c 2.6,-0.94 5.22,-1.81 7.78,-2.86 0.51,-0.21 0.76,-1.15 1.17,-1.71 1,-1.35 2,-2.64 2.94,-4 A 67.4,67.4 0 0 0 265,121.2 c 0.86,-1.72 1,-3.89 1.46,-5.87 0.37,-1.71 1.07,-3.48 0.92,-5.13 a 61.7,61.7 0 0 0 -1.71,-7.75 c 1.58,2.07 4.75,4.49 4.46,6.16 -1,5.59 -1,11.65 -4.55,16.52 -1.15,1.6 -1.4,4 -2.07,6 l 1.05,0.78 5.9,-4.12 c 2.17,-0.91 4.49,-1.53 6.47,-2.81 3.34,-2.17 6.47,-4.76 9.7,-7.17 h 2.36 a 8.34,8.34 0 0 1 -1.42,2.37 c -2.66,2.18 -5.42,4.21 -8.14,6.29 a 107.63,107.63 0 0 0 -9.66,5.29 7.53,7.53 0 0 0 -3.44,8.34 c 0.28,1.27 0.75,2.48 1.14,3.72 a 30.09,30.09 0 0 1 -16.15,4.69 l -0.6,-6 z"
       id="path334" />
    <path
       class="cls-19"
       d="m 250.73,142.51 0.6,6 -4.19,0.67 -2.38,-2.44 a 15.8,15.8 0 0 1 2.44,-2.74 17.27,17.27 0 0 1 3.53,-1.49 z"
       id="path336" />
    <path
       class="cls-22"
       d="m 286.62,154.53 -0.49,3.5 c -2.21,-3.45 -4.16,-3.84 -6.66,-1.76 -0.67,0.55 -2.27,-0.1 -3.38,-0.45 -3.37,-1.09 -5.39,-0.09 -6.93,3.38 a 8,8 0 0 1 -1.46,2 c -2.43,-2.27 -4.65,-3.89 -6.29,-6.05 -1,-1.35 -1.17,-3.53 -1.71,-5.34 l 9,-4 c 4.08,-1 8,-2.38 11.37,-5.32 a 22.1,22.1 0 0 0 0.74,3.33 c 0.66,1.7 1.5,3.31 2.29,4.94 a 18.55,18.55 0 0 0 1.07,1.9 c 0.83,1.34 1.62,2.59 2.45,3.87 z"
       id="path338" />
    <path
       class="cls-23"
       d="m 267.48,143.83 c -0.39,-1.24 -0.86,-2.45 -1.14,-3.72 a 7.53,7.53 0 0 1 3.44,-8.34 107.63,107.63 0 0 1 9.66,-5.29 26.15,26.15 0 0 0 1.62,4 44.54,44.54 0 0 0 3.17,4.08 15,15 0 0 1 -2.48,2.26 c -4.33,2.42 -8.71,4.72 -13.08,7.07 z"
       id="path340" />
    <path
       class="cls-16"
       d="m 268.67,143.84 c 4.37,-2.35 8.75,-4.65 13.08,-7.07 a 15,15 0 0 0 2.48,-2.26 l 6,-2 v 2 l -3.6,2 -6.56,4 c -3.36,2.94 -7.29,4.34 -11.37,5.32 -0.03,-0.66 -0.03,-1.32 -0.03,-1.99 z"
       id="path342" />
    <path
       class="cls-22"
       d="m 265.68,102.45 a 61.7,61.7 0 0 1 1.71,7.75 c 0.15,1.65 -0.55,3.42 -0.92,5.13 -0.43,2 -0.6,4.15 -1.46,5.87 a 67.4,67.4 0 0 1 -4.78,7.38 c -0.94,1.38 -2,2.67 -2.94,4 -0.41,0.56 -0.66,1.5 -1.17,1.71 -2.56,1.05 -5.18,1.92 -7.78,2.86 L 247,135.4 c -0.53,0.73 -1.36,1.4 -1.51,2.23 a 8.31,8.31 0 0 0 0.48,2.87 h -1.19 c -1.28,-2.39 0.24,-7.32 2.37,-8.63 a 12.17,12.17 0 0 0 3.56,-3.45 20.1,20.1 0 0 0 2.67,-5.44 5,5 0 0 0 -2.09,-5.89 c -4.63,-3.31 -5.45,-9.57 -1.13,-14.65 0.16,1.36 0.76,2.91 0.39,4 a 10.05,10.05 0 0 0 0,5.52 c 0.56,2.93 2,4.15 4.13,4.13 a 6.8,6.8 0 0 0 6.27,-5.6 c 0.69,-7.94 -3.74,-12.66 -10.75,-11.44 0.6,-3.68 -1.51,-5.12 -4.07,-6.27 -2.56,-1.15 -5.26,-2.49 -7.89,-3.74 0.2,-1.12 0.39,-2.23 0.59,-3.34 l 3.59,-0.66 c 0.52,0.72 0.9,1.82 1.56,2.1 3.29,1.38 6.18,3.06 7.31,7.22 0.16,0.61 1.41,0.86 2.16,1.27 0.31,-0.71 0.64,-1.4 0.93,-2.12 0.42,-1 0.8,-2.09 1.2,-3.14 a 15.68,15.68 0 0 1 3.82,0.08 c 1.34,0.35 3,0.84 3.76,1.93 1.84,2.93 3.18,6.24 2.52,10.07 z"
       id="path344" />
    <path
       class="cls-20"
       d="m 245.94,140.5 a 8.31,8.31 0 0 1 -0.48,-2.87 c 0.15,-0.83 1,-1.5 1.51,-2.23 l 1.37,1.77 v 2.67 z"
       id="path346" />
    <path
       class="cls-11"
       d="m 243,43 c 0.87,5.49 -3.69,5 -6.11,6.44 -1.76,1.06 -3.18,1.4 -2.54,4.15 a 3.18,3.18 0 0 1 -1.42,2.59 c -3.91,0.94 -5.11,5 -6,8 -1.23,4.26 -4,4.82 -6.74,6.31 a 21.8,21.8 0 0 0 -5.31,4.33 39.81,39.81 0 0 0 -3.61,5.41 l 4.42,-0.27 0.16,0.88 -5.18,1.59 c -0.94,-2 -3.81,2 -4.16,-1.64 -0.33,-3.43 2,-8.28 4.4,-9.91 a 29.25,29.25 0 0 0 3.54,-3.58 c 0.55,-0.55 1.08,-1.31 1.74,-1.51 5.53,-1.73 9.76,-4.91 11.64,-11.41 0.55,-1.88 2.19,-3.35 3.29,-5 0.61,-1 1.12,-2 1.68,-3 z"
       id="path348" />
    <path
       class="cls-8"
       d="m 226.8,47.69 h 1.2 l -0.73,1 z"
       id="path350" />
    <path
       class="cls-12"
       d="m 274.08,41.66 c 0.39,1.79 0.79,3.57 1.19,5.36 l -1.82,0.68 c -2.91,-1 -5.88,-1.79 -8.71,-3 A 57.19,57.19 0 0 1 258.5,41 l 3.59,-3.35 c 1.87,0.58 3.74,1.14 5.59,1.76 2.14,0.73 4.32,1.5 6.4,2.25 z"
       id="path352" />
    <path
       class="cls-13"
       d="m 252.53,46.34 v -0.66 l 1.18,-1.32 v 0 l 10.75,7.36 c 0,0.67 0,1.33 0,2 L 262.07,52.38 260.3,51 Z"
       id="path354" />
    <path
       class="cls-16"
       d="m 264.47,51.7 -10.75,-7.36 0.6,-2 c 4.24,1.8 8.47,3.63 12.71,5.41 2.13,0.9 4.29,1.72 6.43,2.57 0,0.22 0,0.44 0,0.66 -4.27,0.08 -4.27,0.08 -3.63,4.71 z"
       id="path356" />
    <path
       class="cls-2"
       d="m 273.5,51 c 0,-0.22 0,-0.44 0,-0.66 0,-0.88 0,-1.76 0,-2.64 l 1.82,-0.68 h 2.36 v 2 l 2.32,4.68 -1.18,2 C 277,54.19 276.67,50.6 273.5,51 Z"
       id="path358" />
    <path
       class="cls-14"
       d="m 319.52,81.08 c -0.2,0.67 -0.4,1.33 -0.61,2 l -2.38,1.33 c 0.58,-4.52 -0.85,-8.57 -3.19,-9.69 l -2.79,2.34 c 0,-0.66 0,-1.33 0,-2 a 11,11 0 0 1 0.1,-2.31 c 1.05,-4 0.32,-5.44 -3.18,-7.51 a 9.22,9.22 0 0 1 -3.56,-4 c -1.18,-2.64 -2.66,-4 -5.32,-3.6 l -0.91,-2.57 c -6,1.25 -6.26,1 -6.27,-4.77 l 6,-2.67 a 23.26,23.26 0 0 1 2.83,1.51 c 2.44,1.71 4.55,4.41 7.93,3.16 2.65,1.36 3.48,4.24 2.81,8.57 -0.16,1.07 0.5,2.29 0.78,3.45 1.36,0.93 3.46,1.53 3.93,2.86 1.57,4.53 2.59,9.26 3.83,13.9 z"
       id="path360" />
    <path
       class="cls-21"
       d="m 310.54,75.07 c 0,0.66 0,1.33 0,2 -0.14,2.27 -0.27,4.54 -0.41,6.8 a 9.81,9.81 0 0 1 2.87,3.45 c 0.26,0.43 0.49,1 0.87,1.21 2.77,1.4 3,3.72 2.05,6.55 h -1.75 -1.18 l -2.44,-4.72 c 0.18,-2.12 -1.13,-2 -2.38,-2 a 10.68,10.68 0 0 0 0.41,-3.21 9,9 0 0 0 -1.58,-3.88 51.55,51.55 0 0 0 -5.43,-5.43 32.92,32.92 0 0 0 -3.52,-2.44 l -0.72,0.92 c 0.3,1.12 0.63,2.23 0.91,3.35 0.33,1.35 0.62,2.72 0.93,4.08 a 16,16 0 0 1 -2.05,-2.69 c -0.84,-1.7 -1.44,-3.54 -2.14,-5.32 0,-1.09 0.4,-2.43 0,-3.21 -1.42,-2.6 -3.14,-5 -4.75,-7.48 V 61.71 L 291.4,59 h 1.8 c 0.18,5.37 2.26,8.46 7.5,8.16 0.76,0 1.58,1.12 2.35,1.75 2.5,2.09 4.95,4.09 7.49,6.16 z"
       id="path362" />
    <path
       class="cls-24"
       d="m 313,95.11 h 1.18 c 0,0.87 0,1.75 0,2.63 a 4.62,4.62 0 0 0 -0.05,0.65 l -10,-0.67 c -0.46,2.94 -0.83,6 -1.43,9 -0.65,3.21 -1.12,6.26 1.77,8.5 0,0.41 0,0.81 0,1.22 l -4.28,-3.65 c 0.51,2.17 0.93,3.92 1.34,5.67 H 301 l -2.39,-1.58 v 3.58 l -1.25,0.64 0.06,-5.32 c 2.26,-1.31 0.27,-3.15 0.48,-4.72 q 0.66,-3.66 1.31,-7.32 0.48,3.39 0.94,6.78 c 0.33,-4.14 3.16,-8.07 0.9,-12.62 l -1.31,2.68 -3,-5.45 c -0.19,-2.46 -0.37,-4.91 -0.56,-7.37 l 2.41,-1.32 c 0.08,1 -0.14,2.2 0.31,2.88 a 30.23,30.23 0 0 0 3.27,3.68 l 2.2,-4 1.68,1.42 1.51,-2 h 0.6 c 1.25,0 2.56,-0.13 2.38,2 a 5.14,5.14 0 0 0 -5.21,4.26 c 2.56,2.32 5.35,2.46 7.67,0.43 z"
       id="path364" />
    <path
       class="cls-16"
       d="m 314.13,98.41 a 4.62,4.62 0 0 1 0.05,-0.65 l 5.15,-1.45 c -0.33,4.6 -0.5,9.36 -1.06,14.07 a 24,24 0 0 0 1.89,12 c 2,4.93 0,8.88 -0.76,12.71 l -5.27,-1.23 -1.29,-2.68 0.59,-0.78 4.21,2 c -0.34,-3.93 -0.67,-7.43 -0.93,-10.94 a 4.25,4.25 0 0 0 -3.77,-4.35 v -1.31 c 2.1,-0.52 2.74,-1.87 2.06,-4.17 -0.42,-1.47 -0.6,-3 -0.88,-4.53 l -0.07,-1.38 c 0.03,-2.43 0.05,-4.87 0.08,-7.31 z"
       id="path366" />
    <path
       class="cls-20"
       d="m 312.94,117.13 a 4.25,4.25 0 0 1 3.77,4.35 c 0.26,3.51 0.59,7 0.93,10.94 l -4.21,-2 -0.59,0.78 1.29,2.68 a 29.31,29.31 0 0 1 1.9,3.64 c 0.68,1.85 1.14,3.8 1.69,5.71 l -7.17,2 c -0.61,-1.56 -1.21,-3.11 -1.81,-4.67 2.8,-1.89 2.3,-5 2.1,-7.83 a 69.28,69.28 0 0 0 -1.49,-8 c 0.69,0.09 1,0.15 1.26,0.17 L 314,125 c -0.13,-1.59 -0.21,-3.2 -0.41,-4.79 -0.11,-1.03 -0.42,-2.05 -0.65,-3.08 z"
       id="path368" />
    <path
       class="cls-16"
       d="m 315.91,95.08 c 1,-2.83 0.72,-5.15 -2.05,-6.55 -0.38,-0.19 -0.61,-0.78 -0.87,-1.21 a 9.81,9.81 0 0 0 -2.85,-3.46 c 0.14,-2.26 0.27,-4.53 0.41,-6.8 l 2.79,-2.34 c 2.34,1.12 3.77,5.17 3.19,9.69 0.16,0.67 0.22,1.85 0.49,1.91 a 2.91,2.91 0 0 1 2.41,3.83 c -0.52,2.05 -0.94,4.55 -3.52,4.93 z"
       id="path370" />
    <path
       class="cls-22"
       d="m 304,135.16 c 0.59,2.23 1.19,4.45 1.79,6.68 l -6.4,5.89 c 0.38,1.8 2,3.9 -0.71,5.47 -2.71,1.57 -4.6,-0.08 -6.56,-1.48 -0.5,-0.35 -0.55,-1.73 -0.54,-2.64 a 22.18,22.18 0 0 1 0.44,-3.23 l 1.8,-5.35 a 14.32,14.32 0 0 1 1.53,2.13 c 0.91,1.93 1.85,2.7 3.13,0.39 a 9.42,9.42 0 0 0 1.42,-2.81 c 0.37,-2.77 2.1,-3.98 4.1,-5.05 z"
       id="path372" />
    <path
       class="cls-25"
       d="m 280.05,140.52 6.56,-4 4.8,2 v 6 c -0.88,2.19 -1.7,4.41 -2.67,6.55 a 34.28,34.28 0 0 1 -2.11,3.48 c -0.83,-1.28 -1.66,-2.55 -2.47,-3.84 a 18.55,18.55 0 0 1 -1.07,-1.9 c -0.79,-1.63 -1.63,-3.24 -2.29,-4.94 a 22.1,22.1 0 0 1 -0.75,-3.35 z"
       id="path374" />
    <path
       class="cls-19"
       d="m 291.4,144.5 c 0,-2 0,-4 0,-6 l 2.39,-0.67 h 0.59 l -0.59,2.67 -1.8,5.35 z"
       id="path376" />
    <path
       class="cls-22"
       d="m 312.94,117.13 c 0.23,1 0.54,2.05 0.68,3.1 0.2,1.59 0.28,3.2 0.41,4.79 l -3.42,-0.14 c -0.28,0 -0.57,-0.08 -1.26,-0.17 a 69.28,69.28 0 0 1 1.49,8 c 0.2,2.8 0.7,5.94 -2.1,7.83 -0.79,-2.41 -1.66,-4.79 -2.36,-7.24 -0.7,-2.45 -1.22,-5 -1.82,-7.46 -0.6,-2.46 0.79,-4.58 1.8,-6.67 1.24,0.35 3.33,1.35 3.57,1 a 15.87,15.87 0 0 0 1.48,-5 35.18,35.18 0 0 0 0.32,-4 c 0.41,1.56 0.81,3.12 1.21,4.68 z"
       id="path378" />
    <path
       class="cls-25"
       d="m 293.8,140.5 c 0.19,-0.89 0.39,-1.78 0.59,-2.67 q 2.1,-4.67 4.19,-9.34 c 1.67,-0.73 2.33,-3.68 4.78,-2.68 0.2,3.12 0.41,6.23 0.62,9.35 -2,1.07 -3.71,2.28 -4.1,5.05 a 9.42,9.42 0 0 1 -1.42,2.81 c -1.28,2.31 -2.22,1.54 -3.13,-0.39 a 14.32,14.32 0 0 0 -1.53,-2.13 z"
       id="path380" />
    <path
       class="cls-21"
       d="m 303.36,125.81 c -2.45,-1 -3.11,2 -4.78,2.68 a 20.44,20.44 0 0 1 1.54,-4.06 c 1.23,-1.91 1.79,-3.75 0.85,-6 h 0.62 l 3,-0.67 1.79,1.35 c -1,2.09 -2.4,4 -1.8,6.67 z"
       id="path382" />
    <path
       class="cls-11"
       d="m 319.52,81.08 c -1.24,-4.64 -2.26,-9.37 -3.86,-13.84 -0.47,-1.33 -2.57,-1.93 -3.93,-2.86 L 313.17,60 c 1.16,0.75 2.31,1.49 3.45,2.26 0.32,0.21 0.63,0.73 0.91,0.7 4,-0.36 3.56,2.55 3.92,5.59 a 19.49,19.49 0 0 0 2.91,7.45 c 1.3,2.14 1.68,3.25 -1,3.87 -1.29,0.28 -2.56,0.79 -3.84,1.21 z"
       id="path384" />
    <path
       class="cls-15"
       d="m 308.14,52.36 c -3.38,1.25 -5.49,-1.45 -7.93,-3.16 a 23.26,23.26 0 0 0 -2.83,-1.51 c -4.42,-0.33 -8.45,-3.91 -13.15,-2 l 0.6,-2.67 c 5.49,-2 10.63,0.93 15.93,1.47 0.59,0.06 1.08,1.12 1.66,1.67 1.7,1.63 3.42,3.24 5.13,4.87 0.2,0.44 0.45,0.88 0.59,1.33 z"
       id="path386" />
    <path
       class="cls-12"
       d="m 284.23,45.69 c 4.7,-1.91 8.73,1.67 13.15,2 l -6,2.67 h -5.68 l 0.6,5.61 a 6.7,6.7 0 0 1 -2.06,-3.16 c -1.65,-4.75 -2.23,-5.1 -6.6,-3.78 v -2 l -0.6,-4.63 c 2.39,-2.26 4.84,-1.43 5.38,1.82 0.18,1.1 0.37,2.19 0.55,3.29 h 0.74 z"
       id="path388" />
    <path
       class="cls-23"
       d="m 250.13,99.1 c 7,-1.22 11.44,3.5 10.75,11.44 a 6.8,6.8 0 0 1 -6.27,5.6 c -2.11,0 -3.57,-1.2 -4.13,-4.13 a 10.05,10.05 0 0 1 0,-5.52 c 0.37,-1.14 -0.23,-2.69 -0.39,-4 z"
       id="path390" />
    <path
       class="cls-21"
       d="m 255.51,90.42 c -0.4,1 -0.78,2.1 -1.2,3.14 -0.29,0.72 -0.62,1.41 -0.93,2.12 -0.75,-0.41 -2,-0.66 -2.16,-1.27 -1.13,-4.16 -4,-5.84 -7.31,-7.22 -0.66,-0.28 -1,-1.38 -1.56,-2.1 0.14,-0.27 0.46,-0.68 0.4,-0.79 -2.09,-3.51 -0.84,-6.06 1.61,-8.6 0.87,-0.91 1.08,-2.63 1.58,-4 a 49.31,49.31 0 0 1 5.81,2.3 c 2.56,1.36 4.93,0.9 7.35,-0.28 a 19.71,19.71 0 0 1 3.14,-0.71 c 3.74,-0.27 7.48,-0.43 11.22,-0.63 l -6.16,4.38 c -1.45,-0.58 -3.49,-1 -4.69,2.11 -0.18,0.46 -1.7,0.51 -2.55,0.38 -2.57,-0.39 -5.71,2.43 -7.17,6.3 -1.2,3.17 1.11,3.71 2.62,4.87 z"
       id="path392" />
    <path
       class="cls-19"
       d="m 260.3,51 1.8,1.34 c -2,5.8 -1.36,7.08 3.65,9 l 4.12,8.4 c -2.9,0.46 -5.81,0.81 -8.68,1.45 -0.77,0.18 -1.39,1.23 -2.09,1.88 -5.68,1.08 -10.34,-2.25 -15.26,-4.43 -0.18,-0.08 -0.2,-0.59 -0.29,-0.9 0.44,-0.56 1.15,-1 1.29,-1.69 0.73,-3.31 2.84,-3.86 5.43,-3.66 0.79,0.06 1.58,0 2.37,0 5.12,0 5.67,-0.76 5.94,-6.41 0.09,-1.69 1.12,-3.31 1.72,-4.98 z"
       id="path394" />
    <path
       class="cls-18"
       d="m 260.3,51 c -0.6,1.65 -1.63,3.27 -1.72,4.95 -0.27,5.65 -0.82,6.41 -5.94,6.41 -0.79,0 -1.58,0 -2.37,0 -2.59,-0.2 -4.7,0.35 -5.43,3.66 -0.14,0.65 -0.85,1.13 -1.29,1.69 -5.78,-2.12 -5.78,-2.12 -2.43,-7.26 0.12,-0.18 0.16,-0.47 0.31,-0.57 A 11.36,11.36 0 0 0 247,51.46 c 0.34,-2 3.62,-3.43 5.56,-5.12 z"
       id="path396" />
    <path
       class="cls-18"
       d="m 245.94,71.73 c -0.5,1.34 -0.71,3.06 -1.58,4 -2.45,2.54 -3.7,5.09 -1.61,8.6 0.06,0.11 -0.26,0.52 -0.4,0.79 l -3.59,0.66 c -0.73,-0.66 -1.46,-1.85 -2.21,-1.88 -2.38,-0.07 -3,-2.39 -3,-3.78 0,-2.74 -1.21,-4.51 -2.6,-6.35 1.78,-7 6.88,-8.72 11.73,-4 a 17,17 0 0 0 3.26,1.96 z"
       id="path398" />
    <path
       class="cls-18"
       d="m 259.1,73.05 c 0.7,-0.65 1.32,-1.7 2.09,-1.88 2.87,-0.64 5.78,-1 8.68,-1.45 h 4.78 l 1.2,0.67 6.59,6 h -0.61 l -8.37,-4 c -3.74,0.2 -7.48,0.36 -11.22,0.63 a 19.71,19.71 0 0 0 -3.14,0.71 z"
       id="path400" />
    <path
       class="cls-10"
       d="m 235.18,115.07 c 0,3.49 -1.12,5.44 -3.71,4.93 -1.33,-0.27 -3.14,-2.52 -3.26,-4 -0.15,-1.83 0.21,-4.71 3,-4.84 2.79,-0.13 3.95,0.99 3.97,3.91 z"
       id="path402" />
    <path
       class="cls-23"
       d="m 273.46,72.39 8.37,4 3.59,4 c -1.1,1.1 -2.2,2.21 -3.31,3.3 -0.67,0.65 -1.89,1.24 -1.93,1.92 a 7.7,7.7 0 0 0 1,3.56 c 0.26,0.54 1.08,0.73 1.65,1.08 l -0.09,0.81 c -1,0 -2,0 -3,0 -2.52,-0.07 -5.17,-0.74 -7.53,-0.1 -3.63,1 -4.62,5.7 -2.29,9 2.18,3.1 4.19,6.44 8.49,6.67 -1.81,3.69 -2.2,6.75 1.11,9.1 -1.42,1.43 -2.69,2.61 -3.86,3.89 a 59.69,59.69 0 0 0 -4.38,5.14 c -0.54,0.76 -0.54,2 -0.79,3 l -5.9,4.12 -1.05,-0.78 c 0.67,-2 0.92,-4.43 2.07,-6 3.52,-4.87 3.56,-10.93 4.55,-16.52 0.29,-1.67 -2.88,-4.09 -4.46,-6.16 0.66,-3.83 -0.65,-7.14 -2.59,-10 -0.74,-1.09 -2.42,-1.58 -3.76,-1.93 a 15.68,15.68 0 0 0 -3.82,-0.08 c -1.53,-1.16 -3.82,-1.7 -2.62,-4.86 1.46,-3.87 4.6,-6.69 7.17,-6.3 0.85,0.13 2.37,0.08 2.55,-0.38 1.2,-3.14 3.24,-2.69 4.69,-2.11 z"
       id="path404" />
    <path
       class="cls-25"
       d="m 270.47,127.82 c 0.25,-1 0.25,-2.25 0.79,-3 a 59.69,59.69 0 0 1 4.38,-5.14 c 1.17,-1.28 2.44,-2.46 3.86,-3.89 -3.31,-2.35 -2.92,-5.41 -1.11,-9.1 -4.3,-0.23 -6.31,-3.57 -8.49,-6.67 -2.33,-3.33 -1.34,-8.05 2.29,-9 2.36,-0.64 5,0 7.53,0.1 1,0 2,0 3,0 l 0.09,-0.81 c -0.57,-0.35 -1.39,-0.54 -1.65,-1.08 a 7.7,7.7 0 0 1 -1,-3.56 c 0,-0.68 1.26,-1.27 1.93,-1.92 1.11,-1.09 2.21,-2.2 3.31,-3.3 l 6,2 1.8,2.66 0.59,1.32 c -2.45,1.35 -5.88,0.19 -7.69,3.56 l 4.13,2.5 h -3 c -3,-1.3 -4.63,-0.34 -5.36,3 -0.36,1.67 -1,3.26 -1.38,4.94 -0.42,2 -1.59,4.35 1.37,5.3 h 1.21 c -0.35,1.64 -1.39,3.65 -0.89,4.86 1.07,2.62 2.94,4.84 4.48,7.23 -3.23,2.41 -6.36,5 -9.7,7.17 -1.96,1.3 -4.32,1.92 -6.49,2.83 z"
       id="path406" />
    <path
       class="cls-25"
       d="m 297.87,111.07 c -0.21,1.57 1.78,3.41 -0.48,4.72 -1.31,-0.42 -6.47,1.49 -7,2.69 a 2.25,2.25 0 0 0 0.1,1.48 c 2.19,0.5 3.45,3.94 6.23,2.49 -0.49,0.9 -0.91,1.84 -1.47,2.68 -1.67,2.47 -3.39,4.9 -5.09,7.35 l -6,2 a 44.54,44.54 0 0 1 -3.17,-4.08 26.15,26.15 0 0 1 -1.62,-4 c 2.72,-2.08 5.48,-4.11 8.14,-6.29 a 8.34,8.34 0 0 0 1.42,-2.37 l 6.61,-5.34 z"
       id="path408" />
    <path
       class="cls-26"
       d="m 295.61,112.48 -6.61,5.34 h -2.36 c -1.54,-2.39 -3.41,-4.61 -4.48,-7.23 -0.5,-1.21 0.54,-3.22 0.88,-4.86 4.29,-2.57 4.29,-2.57 5.62,-1.82 -5,2.18 -5.46,3.27 -3.18,7.11 1.52,2.55 3.7,1.12 5.64,1.2 1.49,0.08 2.99,0.18 4.49,0.26 z"
       id="path410" />
    <path
       class="cls-19"
       d="m 290.2,132.48 c 1.7,-2.45 3.42,-4.88 5.09,-7.35 0.56,-0.84 1,-1.78 1.47,-2.68 l 0.57,-1.34 1.25,-0.64 c 0,4.3 -2.71,7 -4.77,10 -0.41,0.66 -0.81,1.33 -1.21,2 l -1.2,1.34 -1.19,0.67 z"
       id="path412" />
    <path
       class="cls-22"
       d="m 290.21,134.5 1.19,-0.67 q -0.39,3.1 2.4,2.67 v 1.33 l -2.39,0.67 -4.8,-2 z"
       id="path414" />
    <path
       class="cls-22"
       d="m 274.65,69.72 h -4.78 l -4.12,-8.4 c -5,-1.88 -5.64,-3.16 -3.65,-9 l 2.39,1.34 c 0.58,0.54 1.14,1.11 1.74,1.63 l 9.63,8.38 v 0.67 c -0.2,1.56 -0.4,3.12 -0.61,4.68 z"
       id="path416" />
    <path
       class="cls-14"
       d="m 275.86,63.71 -9.63,-8.38 c -0.6,-0.52 -1.16,-1.09 -1.74,-1.63 0,-0.67 0,-1.33 0,-2 l 5.4,4 7.16,6 c 0,0.44 0,0.88 0,1.32 z"
       id="path418" />
    <path
       class="cls-20"
       d="m 277,61.72 -7.16,-6 c -0.64,-4.62 -0.64,-4.62 3.63,-4.7 3.17,-0.4 3.52,3.19 5.34,4.71 q 1.19,2 2.36,4 z"
       id="path420" />
    <path
       class="cls-16"
       d="m 277.66,49 c 4.37,-1.32 4.95,-1 6.6,3.78 a 6.7,6.7 0 0 0 2.06,3.22 l -0.6,-5.61 h 5.68 c 0,5.81 0.26,6 6.27,4.77 l 0.91,2.57 -5.38,1.27 h -1.8 c -0.6,-0.29 -1.66,-0.92 -1.73,-0.81 -0.77,1.28 -1.41,2.68 0.53,3.48 0,0.45 0,0.89 0,1.34 v 0 c -2.62,0.13 -2.93,-2.51 -3.95,-4.21 -0.82,-1.38 -1.44,-2.65 -2.66,-0.45 L 280,53.7 Z"
       id="path422" />
    <path
       class="cls-11"
       d="m 280,53.7 q 1.8,2.34 3.58,4.69 l 4.23,9.33 -1.22,0.72 -5.41,-8.72 q -1.17,-2 -2.36,-4 z"
       id="path424" />
    <path
       class="cls-18"
       d="m 293.2,59 5.38,-1.34 c 2.66,-0.42 4.14,1 5.32,3.6 a 9.22,9.22 0 0 0 3.56,4 c 3.5,2.07 4.23,3.48 3.18,7.51 a 11,11 0 0 0 -0.1,2.31 c -2.5,-2 -5,-4.09 -7.49,-6.12 -0.77,-0.63 -1.59,-1.8 -2.35,-1.75 -5.24,0.29 -7.32,-2.8 -7.5,-8.21 z"
       id="path426" />
    <path
       class="cls-23"
       d="m 308.16,88.4 h -0.6 c -2.16,-1.86 -3.94,-4.56 -7.19,-4 l -1.19,-2.66 c -0.31,-1.36 -0.6,-2.73 -0.93,-4.08 -0.28,-1.12 -0.61,-2.23 -0.91,-3.35 l 0.72,-0.92 a 32.92,32.92 0 0 1 3.52,2.44 51.55,51.55 0 0 1 5.42,5.44 9,9 0 0 1 1.56,3.92 10.68,10.68 0 0 1 -0.4,3.21 z"
       id="path428" />
    <path
       class="cls-25"
       d="m 299.18,81.75 1.19,2.66 -1.81,0.67 -1.18,-0.66 c -0.59,-0.89 -1.18,-1.79 -1.78,-2.68 l -6,-12 1.18,-2 c 1.4,2 2.79,4 4.19,6 0.7,1.78 1.3,3.62 2.14,5.32 a 16,16 0 0 0 2.07,2.69 z"
       id="path430" />
    <path
       class="cls-26"
       d="m 313,95.11 c -2.3,2 -5.09,1.88 -7.65,-0.46 a 5.14,5.14 0 0 1 5.21,-4.26 c 0.79,1.61 1.6,3.15 2.44,4.72 z"
       id="path432" />
    <path
       class="cls-19"
       d="m 295,73.74 c -1.4,-2 -2.79,-4 -4.19,-6 -0.2,-1.56 -0.39,-3.11 -0.59,-4.67 v 0 c 1.61,2.48 3.33,4.88 4.75,7.48 0.42,0.76 0.03,2.1 0.03,3.19 z"
       id="path434" />
    <path
       class="cls-18"
       d="m 290.2,61.71 c -1.94,-0.8 -1.3,-2.2 -0.53,-3.48 0.07,-0.11 1.13,0.52 1.73,0.81 z"
       id="path436" />
    <path
       class="cls-27"
       d="m 295.61,112.48 c -1.5,-0.08 -3,-0.18 -4.49,-0.24 -1.94,-0.08 -4.12,1.35 -5.64,-1.2 -2.28,-3.84 -1.8,-4.93 3.18,-7.11 -1.33,-0.75 -1.33,-0.75 -5.62,1.82 h -1.2 a 6.36,6.36 0 0 0 1.26,-5.84 c -0.68,-2.7 0.77,-4.58 2.75,-6 a 10.9,10.9 0 0 0 1.36,-1.43 h 3 l 6.45,2.68 3,5.45 c -0.18,1 -0.35,2.1 -0.53,3.16 q -0.65,3.66 -1.31,7.32 z"
       id="path438" />
    <path
       class="cls-26"
       d="m 314.13,98.41 c 0,2.44 -0.05,4.88 -0.08,7.31 l -1.13,1.4 -1.17,2.69 c -2.68,1.36 -3.48,5.88 -7.26,5.41 -2.89,-2.24 -2.42,-5.29 -1.77,-8.5 0.6,-3 1,-6 1.43,-9 z"
       id="path440" />
    <path
       class="cls-26"
       d="M 296.68,95.14 290.23,92.46 286.1,90 c 1.81,-3.37 5.24,-2.21 7.69,-3.56 l 2.33,1.37 z"
       id="path442" />
    <path
       class="cls-26"
       d="m 298.56,85.08 1.81,-0.67 c 3.25,-0.56 5,2.14 7.19,4 l -1.51,2 -1.68,-1.42 -2.2,4 a 30.23,30.23 0 0 1 -3.33,-3.66 c -0.45,-0.68 -0.23,-1.9 -0.31,-2.88 z"
       id="path444" />
    <path
       class="cls-25"
       d="m 293.8,136.5 q -2.79,0.44 -2.4,-2.67 l 1.2,-1.34 1.21,-2 c 2.06,-3.06 4.79,-5.73 4.77,-10 v -3.58 l 2.39,1.58 c 0.94,2.21 0.38,4 -0.85,6 a 20.44,20.44 0 0 0 -1.54,4.06 z"
       id="path446" />
    <path
       class="cls-25"
       d="m 304.49,115.22 c 3.78,0.47 4.58,-4 7.26,-5.41 0,0.43 0,0.87 0,1.31 a 35.18,35.18 0 0 1 -0.32,4 15.87,15.87 0 0 1 -1.48,5 c -0.24,0.4 -2.33,-0.6 -3.57,-1 l -1.79,-1.35 c 0,-0.45 0,-0.9 0,-1.35 0,-0.45 -0.08,-0.79 -0.1,-1.2 z"
       id="path448" />
    <path
       class="cls-26"
       d="m 297.33,121.11 -0.57,1.34 c -2.78,1.45 -4,-2 -6.23,-2.49 a 2.25,2.25 0 0 1 -0.1,-1.48 c 0.49,-1.2 5.65,-3.11 7,-2.69 z"
       id="path450" />
    <path
       class="cls-23"
       d="m 299.18,103.75 c 0.18,-1.06 0.35,-2.11 0.53,-3.16 0.39,-0.82 0.79,-1.63 1.31,-2.68 2.26,4.55 -0.57,8.48 -0.9,12.62 q -0.47,-3.39 -0.94,-6.78 z"
       id="path452" />
    <path
       class="cls-23"
       d="m 304.53,116.44 c 0,0.45 0,0.9 0,1.35 l -3,0.67 c -0.41,-1.75 -0.83,-3.5 -1.34,-5.67 z"
       id="path454" />
    <path
       class="cls-23"
       d="m 298.56,85.08 v 1.37 l -2.41,1.32 -2.33,-1.37 -0.59,-1.32 a 19.75,19.75 0 0 0 2.87,0.12 c 0.46,0 0.88,-0.51 1.31,-0.78 z"
       id="path456" />
    <path
       class="cls-20"
       d="m 311.73,111.12 c 0,-0.44 0,-0.88 0,-1.31 l 1.17,-2.69 h 1.2 c 0.28,1.51 0.46,3.06 0.88,4.53 0.68,2.3 0,3.65 -2.06,4.17 -0.38,-1.58 -0.78,-3.14 -1.19,-4.7 z"
       id="path458" />
    <path
       class="cls-25"
       d="m 314.12,107.1 h -1.2 l 1.13,-1.4 c 0.02,0.48 0.04,0.94 0.07,1.4 z"
       id="path460" />
    <path
       class="cls-21"
       d="m 293.8,136.5 4.78,-8 q -2.1,4.66 -4.19,9.34 h -0.59 z"
       id="path462" />
    <path
       class="cls-23"
       d="m 275.25,69.06 c 0.21,-1.56 0.41,-3.12 0.61,-4.68 q 4.18,4.34 8.36,8.69 l 3.18,4.55 -0.62,0.68 -4.34,-1.9 -6.59,-6 z"
       id="path464" />
    <path
       class="cls-19"
       d="m 282.44,76.4 4.34,1.9 0.62,-0.68 -3.18,-4.55 h 1.21 c 1,1.14 1.95,2.34 3,3.37 a 4.58,4.58 0 0 0 1.74,0.64 c 0.6,1.55 1.19,3.11 1.79,4.67 l -0.6,0.68 -6,-2 -3.59,-4 z"
       id="path466" />
    <path
       class="cls-19"
       d="m 275.25,69.06 0.6,1.33 -1.2,-0.67 z"
       id="path468" />
    <path
       class="cls-26"
       d="m 287.21,92.46 a 10.9,10.9 0 0 1 -1.36,1.43 c -2,1.42 -3.43,3.3 -2.75,6 a 6.36,6.36 0 0 1 -1.26,5.84 c -3,-1 -1.79,-3.3 -1.37,-5.3 0.35,-1.68 1,-3.27 1.38,-4.94 0.73,-3.37 2.35,-4.33 5.36,-3.03 z"
       id="path470" />
    <path
       class="cls-21"
       d="m 291.4,82.42 0.6,-0.68 h 3.6 c 0.6,0.89 1.19,1.79 1.78,2.68 -0.43,0.27 -0.85,0.74 -1.31,0.78 a 19.75,19.75 0 0 1 -2.87,-0.12 z"
       id="path472" />
    <path
       class="cls-22"
       d="m 293.81,130.5 -1.21,2 c 0.4,-0.67 0.8,-1.34 1.21,-2 z"
       id="path474" />
    <path
       class="cls-18"
       d="m 285.43,73.06 h -1.21 q -4.19,-4.35 -8.36,-8.69 V 63.7 l 1.21,-0.67 z"
       id="path476" />
    <path
       class="cls-22"
       d="m 285.43,73.06 -8.36,-10 c 0,-0.44 0,-0.88 0,-1.32 l 4.17,-2 5.41,8.72 3.6,8.63 a 4.58,4.58 0 0 1 -1.74,-0.64 c -1.13,-1.05 -2.08,-2.25 -3.08,-3.39 z"
       id="path478" />
    <path
       class="cls-22"
       d="m 290.21,63.05 c 0.2,1.56 0.39,3.11 0.59,4.67 l -1.18,2 -1.79,-2 -4.23,-9.33 c 1.22,-2.2 1.84,-0.93 2.66,0.45 1.02,1.7 1.33,4.34 3.95,4.21 z"
       id="path480" />
    <path
       class="cls-18"
       d="m 287.83,67.72 1.79,2 6,12 H 292 c -0.6,-1.56 -1.19,-3.12 -1.79,-4.67 l -3.6,-8.63 z"
       id="path482" />
  </g>
</svg>
