<?xml version="1.0" encoding="UTF-8" standalone="no"?>
<!-- Created with Inkscape (http://www.inkscape.org/) -->
<svg xmlns:dc="http://purl.org/dc/elements/1.1/" xmlns:cc="http://web.resource.org/cc/" xmlns:rdf="http://www.w3.org/1999/02/22-rdf-syntax-ns#" xmlns:svg="http://www.w3.org/2000/svg" xmlns="http://www.w3.org/2000/svg" xmlns:sodipodi="http://sodipodi.sourceforge.net/DTD/sodipodi-0.dtd" xmlns:inkscape="http://www.inkscape.org/namespaces/inkscape" width="702.5" height="702.5" id="svg2" sodipodi:version="0.32" inkscape:version="0.45.1" version="1.0" sodipodi:docname="No_Political_Correctness.svg" inkscape:output_extension="org.inkscape.output.svg.inkscape" sodipodi:docbase="C:\_Download">
  <defs id="defs4"/>
  <sodipodi:namedview id="base" pagecolor="#ffffff" bordercolor="#666666" borderopacity="1.0" inkscape:pageopacity="0.0" inkscape:pageshadow="2" inkscape:zoom="0.65312308" inkscape:cx="322.34953" inkscape:cy="288.61859" inkscape:document-units="px" inkscape:current-layer="layer1" inkscape:window-width="973" inkscape:window-height="749" inkscape:window-x="33" inkscape:window-y="53"/>
  <metadata id="metadata7">
    <rdf:RDF>
      <cc:Work rdf:about="">
        <dc:format>image/svg+xml</dc:format>
        <dc:type rdf:resource="http://purl.org/dc/dcmitype/StillImage"/>
        <cc:license rdf:resource=""/>
        <dc:date>3.3.2008</dc:date>
        <dc:creator>
          <cc:Agent>
            <dc:title>D.Musil</dc:title>
          </cc:Agent>
        </dc:creator>
        <dc:rights>
          <cc:Agent>
            <dc:title>copyleft, GDFL, list author only</dc:title>
          </cc:Agent>
        </dc:rights>
        <dc:description>Political Correctness, No thanx</dc:description>
        <dc:title>No Political Correctness</dc:title>
        <dc:subject>
          <rdf:Bag>
            <rdf:li>Political</rdf:li>
            <rdf:li>Correctness</rdf:li>
          </rdf:Bag>
        </dc:subject>
      </cc:Work>
    </rdf:RDF>
  </metadata>
  <g inkscape:label="Ebene 1" inkscape:groupmode="layer" id="layer1" transform="translate(-25.221697,-137.60255)">
    <g id="g2228">
      <path transform="translate(732.91229,79.282768)" d="M 0 0 A 0 0 0 1 1  0,0 A 0 0 0 1 1  0 0 z" sodipodi:ry="0" sodipodi:rx="0" sodipodi:cy="0" sodipodi:cx="0" id="path8972" style="opacity:0.47318612;fill:none;fill-opacity:1;fill-rule:evenodd;stroke:#00a200;stroke-width:85;stroke-linecap:square;stroke-linejoin:miter;stroke-miterlimit:4;stroke-dasharray:none;stroke-opacity:1" sodipodi:type="arc"/>
      <path style="fill:#ffffff;fill-opacity:1;fill-rule:evenodd;stroke:#000000;stroke-width:2.5;stroke-linecap:butt;stroke-linejoin:miter;stroke-miterlimit:4;stroke-dashoffset:0;stroke-opacity:1" d="M 623.95909,736.33994 C 487.27558,873.02344 265.66783,873.02344 128.98433,736.33994 C -7.69918,599.65643 -7.69918,378.04868 128.98433,241.36518 C 265.66783,104.68168 487.27557,104.68168 623.95908,241.36519 C 760.64258,378.04869 760.64259,599.65644 623.95909,736.33994 L 623.95909,736.33994 z " id="path6820"/>
      <path style="fill:#cc0000;fill-opacity:1;fill-rule:evenodd;stroke:none;stroke-width:93.75;stroke-linecap:butt;stroke-linejoin:miter;stroke-miterlimit:4;stroke-dashoffset:0;stroke-opacity:1" d="M 614.6783,250.64596 C 483.55078,119.51844 269.39262,119.51844 138.2651,250.64596 C 7.13757,381.77349 7.13757,595.93165 138.2651,727.05917 C 269.39263,858.1867 483.55078,858.1867 614.67831,727.05918 C 745.80583,595.93165 745.80584,381.77349 614.6783,250.64596 z M 548.38704,316.93723 C 643.64683,412.19701 643.64683,565.50813 548.38705,660.76791 C 453.12726,756.0277 299.81615,756.0277 204.55636,660.76791 C 109.29658,565.50813 109.29657,412.19702 204.55636,316.93723 C 299.81615,221.67744 453.12726,221.67744 548.38704,316.93723 z " id="path6822"/>
      <path style="fill:#ffffff;fill-opacity:1;fill-rule:evenodd;stroke:none" d="M 553.2484,665.62927 C 455.66766,763.21001 297.27574,763.21001 199.695,665.62927 C 102.11426,568.04853 102.11426,409.65661 199.695,312.07587 C 297.27574,214.49513 455.66766,214.49513 553.2484,312.07587 C 650.82914,409.65661 650.82914,568.04853 553.2484,665.62927 z " id="path6824"/>
      <path id="text2169" d="M 209.9477,234.79343 L 361.26081,234.79343 C 394.21591,234.79372 418.89888,242.63065 435.30979,258.30423 C 451.72019,273.97835 459.92552,296.28345 459.9258,325.21959 C 459.92552,354.95993 450.98339,378.20278 433.09937,394.94821 C 415.21485,411.69391 387.91958,420.0667 351.21346,420.06659 L 301.37859,420.06659 L 301.37859,529.38177 L 209.9477,529.38177 L 209.9477,234.79343 z M 301.37859,360.38532 L 323.68372,360.38532 C 341.23293,360.38549 353.55767,357.3378 360.65797,351.24223 C 367.75791,345.14702 371.30797,337.34359 371.30816,327.8319 C 371.30797,318.58855 368.22679,310.75162 362.0646,304.3211 C 355.90205,297.89103 344.31411,294.67588 327.30076,294.67564 L 301.37859,294.67564 L 301.37859,360.38532 z M 703.8755,409.0145 L 783.65147,433.12815 C 778.29259,455.50032 769.85282,474.18838 758.33215,489.19237 C 746.81092,504.19644 732.5102,515.51644 715.42996,523.15242 C 698.34924,530.7884 676.61349,534.60639 650.22265,534.6064 C 618.20495,534.60639 592.04837,529.95112 571.75283,520.64058 C 551.45711,511.33005 533.94124,494.95288 519.20518,471.50903 C 504.46904,448.06529 497.10099,418.05723 497.10101,381.48476 C 497.10099,332.72181 510.06206,295.24523 535.98426,269.0549 C 561.90634,242.86509 598.57914,229.77005 646.00276,229.76975 C 683.11077,229.77005 712.28155,237.27207 733.51519,252.27582 C 754.74832,267.28013 770.52264,290.32203 780.83822,321.4016 L 700.4594,339.28588 C 697.64593,330.31045 694.69871,323.74619 691.61773,319.59307 C 686.52687,312.62713 680.29752,307.26854 672.92966,303.51731 C 665.56141,299.76653 657.32259,297.89103 648.21318,297.89079 C 627.58246,297.89103 611.77465,306.19683 600.78968,322.80823 C 592.48375,335.13317 588.33085,354.49105 588.33096,380.88192 C 588.33085,413.56942 593.28754,435.97499 603.20104,448.0987 C 613.11429,460.22257 627.04661,466.28447 644.99802,466.28441 C 662.41325,466.28447 675.57527,461.39476 684.48411,451.61527 C 693.39255,441.83594 699.85634,427.6357 703.8755,409.0145 L 703.8755,409.0145 z " style="font-size:411.53952026px;font-style:normal;font-variant:normal;font-weight:normal;font-stretch:normal;text-align:start;line-height:125%;writing-mode:lr-tb;text-anchor:start;fill:#000000;fill-opacity:1;stroke:none;stroke-width:1px;stroke-linecap:butt;stroke-linejoin:miter;stroke-opacity:1;font-family:Arial Black" transform="scale(0.77524,1.2899231)"/>
      <path style="fill:none;stroke:#cc0000;stroke-width:99.62233734;stroke-linecap:butt;stroke-linejoin:miter;stroke-miterlimit:4;stroke-dasharray:none;stroke-opacity:1" d="M 590.01494,287.3706 L 162.92847,690.33454" id="path6826"/>
    </g>
  </g>
</svg>